<svg xmlns="http://www.w3.org/2000/svg" width="600" height="510" viewBox="0 0 724.09 641.779">
  <g id="Looking_for_destination" data-name="Looking for destination" transform="translate(-1314.799 -264.424)">
    <g id="Person_Alone" data-name="Person Alone" transform="translate(1522.921 264.424)">
      <g id="Group_367" data-name="Group 367" transform="translate(235.581 622.641)">
        <path id="Path_1083" data-name="Path 1083" d="M198.143,447.725l7.729,17.981-34.584-.412-.731-18.328Z" transform="translate(-170.557 -446.966)" fill="#e8505b"/>
        <g id="Group_365" data-name="Group 365" transform="translate(0.475 14.678)">
          <path id="Path_1084" data-name="Path 1084" d="M171.626,456.273a31.716,31.716,0,0,0,4.844.248c2.994.052,7.131.037,11.694-.037l11.675-.243a36.431,36.431,0,0,0,4.837-.244,32.138,32.138,0,0,0-4.842-.238c-3-.047-7.133-.03-11.7.044l-11.673.236A37.092,37.092,0,0,0,171.626,456.273Z" transform="translate(-171.626 -455.732)" fill="#263238"/>
        </g>
        <g id="Group_366" data-name="Group 366" transform="translate(14.616 0.367)">
          <path id="Path_1085" data-name="Path 1085" d="M182.384,447.185c-.3.018-.367,3.283-.144,7.3s.646,7.252.949,7.235.367-3.283.144-7.3S182.687,447.17,182.384,447.185Z" transform="translate(-182.108 -447.185)" fill="#263238"/>
        </g>
        <path id="Path_1086" data-name="Path 1086" d="M205.368,460.17,170.8,459.012l-.221-3.28,33.051.283,1.75,3.763" transform="translate(-170.106 -441.054)" fill="#fff" opacity="0.6"/>
      </g>
      <g id="Group_474" data-name="Group 474" transform="translate(92.442 614.526)">
        <g id="Group_470" data-name="Group 470" transform="translate(0)">
          <g id="Group_469" data-name="Group 469">
            <g id="Group_373" data-name="Group 373" transform="translate(0.095)">
              <g id="Group_372" data-name="Group 372">
                <g id="Group_371" data-name="Group 371">
                  <g id="Group_370" data-name="Group 370">
                    <g id="Group_369" data-name="Group 369">
                      <g id="Group_368" data-name="Group 368">
                        <path id="Path_1087" data-name="Path 1087" d="M266.305,459.678l.047-17.44,32.67-.119.2,25.515-2.026.137c-9.013.532-45.863,2.078-51.9.273C238.572,466.03,266.305,459.678,266.305,459.678Z" transform="translate(-244.247 -442.119)" fill="#e8505b"/>
                      </g>
                    </g>
                  </g>
                </g>
              </g>
            </g>
            <g id="Group_378" data-name="Group 378" transform="translate(0 21.145)" opacity="0.4">
              <g id="Group_377" data-name="Group 377">
                <g id="Group_376" data-name="Group 376">
                  <g id="Group_375" data-name="Group 375">
                    <g id="Group_374" data-name="Group 374">
                      <path id="Path_1088" data-name="Path 1088" d="M252.85,454.748s-9.718,2.843-8.5,4.44,38.518,1.44,54.965-.07l-.055-.73-43.506.556S254.754,454.822,252.85,454.748Z" transform="translate(-244.247 -454.748)" fill="#fff"/>
                    </g>
                  </g>
                </g>
              </g>
            </g>
            <g id="Group_384" data-name="Group 384" transform="translate(0.093 24.746)">
              <g id="Group_383" data-name="Group 383">
                <g id="Group_382" data-name="Group 382">
                  <g id="Group_381" data-name="Group 381">
                    <g id="Group_380" data-name="Group 380">
                      <g id="Group_379" data-name="Group 379">
                        <path id="Path_1089" data-name="Path 1089" d="M299.41,456.914a2.722,2.722,0,0,1-.561.064c-.484.032-1.015.065-1.612.105l-5.937.28c-5.015.2-11.945.389-19.6.429s-14.592-.08-19.608-.231l-5.939-.221-1.614-.089a2.989,2.989,0,0,1-.561-.057,2.973,2.973,0,0,1,.564-.023l1.616.015,5.939.1c5.016.079,11.946.152,19.6.116s14.582-.183,19.6-.313l5.939-.154,1.616-.03A3.044,3.044,0,0,1,299.41,456.914Z" transform="translate(-243.974 -456.898)" fill="#263238"/>
                      </g>
                    </g>
                  </g>
                </g>
              </g>
            </g>
            <g id="Group_390" data-name="Group 390" transform="translate(8.363 20.745)">
              <g id="Group_389" data-name="Group 389" transform="translate(0)">
                <g id="Group_388" data-name="Group 388">
                  <g id="Group_387" data-name="Group 387">
                    <g id="Group_386" data-name="Group 386">
                      <g id="Group_385" data-name="Group 385">
                        <path id="Path_1090" data-name="Path 1090" d="M273.381,459.613a8.614,8.614,0,0,0-3.154-5.093,5.275,5.275,0,0,1,3.154,5.093Z" transform="translate(-270.224 -454.509)" fill="#263238"/>
                      </g>
                    </g>
                  </g>
                </g>
              </g>
            </g>
            <g id="Group_396" data-name="Group 396" transform="translate(19.386 18.202)">
              <g id="Group_395" data-name="Group 395" transform="translate(0)">
                <g id="Group_394" data-name="Group 394">
                  <g id="Group_393" data-name="Group 393">
                    <g id="Group_392" data-name="Group 392">
                      <g id="Group_391" data-name="Group 391">
                        <path id="Path_1091" data-name="Path 1091" d="M266.256,455.706c-.092.059-.556-.5-1.035-1.249s-.8-1.4-.7-1.462.554.5,1.035,1.247S266.348,455.647,266.256,455.706Z" transform="translate(-264.503 -452.99)" fill="#263238"/>
                      </g>
                    </g>
                  </g>
                </g>
              </g>
            </g>
            <g id="Group_402" data-name="Group 402" transform="translate(21.723 17.672)">
              <g id="Group_401" data-name="Group 401" transform="translate(0)">
                <g id="Group_400" data-name="Group 400">
                  <g id="Group_399" data-name="Group 399">
                    <g id="Group_398" data-name="Group 398">
                      <g id="Group_397" data-name="Group 397">
                        <path id="Path_1092" data-name="Path 1092" d="M264.986,454.509c-.072.082-.589-.261-1.154-.763s-.964-.978-.892-1.06.591.261,1.155.763S265.06,454.427,264.986,454.509Z" transform="translate(-262.932 -452.674)" fill="#263238"/>
                      </g>
                    </g>
                  </g>
                </g>
              </g>
            </g>
            <g id="Group_408" data-name="Group 408" transform="translate(22.025 16.244)">
              <g id="Group_407" data-name="Group 407" transform="translate(0)">
                <g id="Group_406" data-name="Group 406">
                  <g id="Group_405" data-name="Group 405">
                    <g id="Group_404" data-name="Group 404">
                      <g id="Group_403" data-name="Group 403">
                        <path id="Path_1093" data-name="Path 1093" d="M265.358,451.994a7.467,7.467,0,0,1-3.412.054,7.464,7.464,0,0,1,3.412-.054Z" transform="translate(-261.946 -451.821)" fill="#263238"/>
                      </g>
                    </g>
                  </g>
                </g>
              </g>
            </g>
            <g id="Group_414" data-name="Group 414" transform="translate(22.137 14.208)">
              <g id="Group_413" data-name="Group 413" transform="translate(0)">
                <g id="Group_412" data-name="Group 412">
                  <g id="Group_411" data-name="Group 411">
                    <g id="Group_410" data-name="Group 410">
                      <g id="Group_409" data-name="Group 409">
                        <path id="Path_1094" data-name="Path 1094" d="M265.474,450.637a4.811,4.811,0,0,1-3.866.308,139.969,139.969,0,0,0,3.866-.308Z" transform="translate(-261.607 -450.605)" fill="#263238"/>
                      </g>
                    </g>
                  </g>
                </g>
              </g>
            </g>
            <g id="Group_420" data-name="Group 420" transform="translate(13.855 15.153)">
              <g id="Group_419" data-name="Group 419" transform="translate(0)">
                <g id="Group_418" data-name="Group 418">
                  <g id="Group_417" data-name="Group 417">
                    <g id="Group_416" data-name="Group 416">
                      <g id="Group_415" data-name="Group 415">
                        <path id="Path_1095" data-name="Path 1095" d="M271.346,454.089a6.087,6.087,0,0,1-2.1-.005,12.351,12.351,0,0,1-2.237-.482,6.129,6.129,0,0,1-1.281-.522,1.127,1.127,0,0,1-.522-.65.824.824,0,0,1,.315-.84,3.851,3.851,0,0,1,4.765,1.1,3.771,3.771,0,0,1,.69,1.4,1.169,1.169,0,0,1,.057.568,5.919,5.919,0,0,0-.964-1.786,3.765,3.765,0,0,0-1.8-1.159,3.254,3.254,0,0,0-2.5.181c-.333.249-.2.64.171.861a6.306,6.306,0,0,0,1.182.5,14.329,14.329,0,0,0,2.163.554C270.546,454.025,271.346,454.024,271.346,454.089Z" transform="translate(-265.182 -451.169)" fill="#263238"/>
                      </g>
                    </g>
                  </g>
                </g>
              </g>
            </g>
            <g id="Group_426" data-name="Group 426" transform="translate(19.21 14.107)">
              <g id="Group_425" data-name="Group 425" transform="translate(0)">
                <g id="Group_424" data-name="Group 424">
                  <g id="Group_423" data-name="Group 423">
                    <g id="Group_422" data-name="Group 422">
                      <g id="Group_421" data-name="Group 421">
                        <path id="Path_1096" data-name="Path 1096" d="M264.143,454.616a2.064,2.064,0,0,1-.248-1.457,3.437,3.437,0,0,1,.568-1.535,2.108,2.108,0,0,1,1.743-1.078.837.837,0,0,1,.651.966,2.3,2.3,0,0,1-.353.941,6.364,6.364,0,0,1-.986,1.274,3,3,0,0,1-1.2.854c-.037-.05.417-.378.991-1.045a7.221,7.221,0,0,0,.874-1.264c.286-.444.481-1.242-.047-1.334-.526-.049-1.06.476-1.378.9a3.458,3.458,0,0,0-.588,1.368A7.749,7.749,0,0,0,264.143,454.616Z" transform="translate(-263.878 -450.544)" fill="#263238"/>
                      </g>
                    </g>
                  </g>
                </g>
              </g>
            </g>
            <g id="Group_432" data-name="Group 432" transform="translate(43.25 15.615)">
              <g id="Group_431" data-name="Group 431" transform="translate(0)">
                <g id="Group_430" data-name="Group 430">
                  <g id="Group_429" data-name="Group 429">
                    <g id="Group_428" data-name="Group 428">
                      <g id="Group_427" data-name="Group 427">
                        <path id="Path_1097" data-name="Path 1097" d="M255.969,451.657c-.007.074-.936-.085-2.413.1a10.233,10.233,0,0,0-8.527,6.857c-.492,1.4-.536,2.344-.609,2.334a1.864,1.864,0,0,1-.005-.658,8.639,8.639,0,0,1,.35-1.763,9.928,9.928,0,0,1,8.765-7.049,8.609,8.609,0,0,1,1.8.039A1.853,1.853,0,0,1,255.969,451.657Z" transform="translate(-244.395 -451.445)" fill="#263238"/>
                      </g>
                    </g>
                  </g>
                </g>
              </g>
            </g>
            <g id="Group_438" data-name="Group 438" transform="translate(51.265 2.247)">
              <g id="Group_437" data-name="Group 437" transform="translate(0)">
                <g id="Group_436" data-name="Group 436">
                  <g id="Group_435" data-name="Group 435">
                    <g id="Group_434" data-name="Group 434">
                      <g id="Group_433" data-name="Group 433">
                        <path id="Path_1098" data-name="Path 1098" d="M246.362,443.461a114.141,114.141,0,0,1,.228,13.425,114.125,114.125,0,0,1-.228-13.425Z" transform="translate(-246.248 -443.461)" fill="#263238"/>
                      </g>
                    </g>
                  </g>
                </g>
              </g>
            </g>
            <g id="Group_444" data-name="Group 444" transform="translate(29.554 22.097)">
              <g id="Group_443" data-name="Group 443">
                <g id="Group_442" data-name="Group 442">
                  <g id="Group_441" data-name="Group 441">
                    <g id="Group_440" data-name="Group 440">
                      <g id="Group_439" data-name="Group 439">
                        <path id="Path_1099" data-name="Path 1099" d="M263.331,455.354a26.782,26.782,0,0,1-9.545.131c.01-.114,2.143.007,4.774-.033S263.318,455.239,263.331,455.354Z" transform="translate(-253.786 -455.316)" fill="#263238"/>
                      </g>
                    </g>
                  </g>
                </g>
              </g>
            </g>
            <g id="Group_450" data-name="Group 450" transform="translate(44.575 22.085)">
              <g id="Group_449" data-name="Group 449" transform="translate(0)">
                <g id="Group_448" data-name="Group 448">
                  <g id="Group_447" data-name="Group 447">
                    <g id="Group_446" data-name="Group 446">
                      <g id="Group_445" data-name="Group 445">
                        <path id="Path_1100" data-name="Path 1100" d="M250.88,455.322c.08.079-.172.452-.388.943s-.333.924-.445.918-.171-.516.084-1.08S250.81,455.243,250.88,455.322Z" transform="translate(-249.953 -455.31)" fill="#263238"/>
                      </g>
                    </g>
                  </g>
                </g>
              </g>
            </g>
            <g id="Group_456" data-name="Group 456" transform="translate(46.668 19.069)">
              <g id="Group_455" data-name="Group 455" transform="translate(0)">
                <g id="Group_454" data-name="Group 454">
                  <g id="Group_453" data-name="Group 453">
                    <g id="Group_452" data-name="Group 452">
                      <g id="Group_451" data-name="Group 451">
                        <path id="Path_1101" data-name="Path 1101" d="M249.754,453.523c.077.077-.132.417-.469.762s-.671.561-.75.484.131-.417.467-.762S249.675,453.446,249.754,453.523Z" transform="translate(-248.519 -453.508)" fill="#263238"/>
                      </g>
                    </g>
                  </g>
                </g>
              </g>
            </g>
            <g id="Group_462" data-name="Group 462" transform="translate(49.488 17.513)">
              <g id="Group_461" data-name="Group 461" transform="translate(0)">
                <g id="Group_460" data-name="Group 460">
                  <g id="Group_459" data-name="Group 459">
                    <g id="Group_458" data-name="Group 458">
                      <g id="Group_457" data-name="Group 457">
                        <path id="Path_1102" data-name="Path 1102" d="M248.331,452.764c-.022.11-.455.109-.936.28s-.824.429-.909.353c-.089-.059.186-.526.782-.728S248.364,452.661,248.331,452.764Z" transform="translate(-246.469 -452.578)" fill="#263238"/>
                      </g>
                    </g>
                  </g>
                </g>
              </g>
            </g>
            <g id="Group_468" data-name="Group 468" transform="translate(52.819 16.965)">
              <g id="Group_467" data-name="Group 467" transform="translate(0)">
                <g id="Group_466" data-name="Group 466">
                  <g id="Group_465" data-name="Group 465">
                    <g id="Group_464" data-name="Group 464">
                      <g id="Group_463" data-name="Group 463">
                        <path id="Path_1103" data-name="Path 1103" d="M245.986,452.326c.039.1-.147.27-.419.377s-.522.109-.563.008.147-.271.419-.377S245.946,452.224,245.986,452.326Z" transform="translate(-245 -452.252)" fill="#263238"/>
                      </g>
                    </g>
                  </g>
                </g>
              </g>
            </g>
          </g>
        </g>
        <g id="Group_473" data-name="Group 473" transform="translate(22.138 10.399)" opacity="0.3">
          <g id="Group_472" data-name="Group 472">
            <g id="Group_471" data-name="Group 471">
              <path id="Path_1104" data-name="Path 1104" d="M277.18,452.445l-32.933.033.035-3.934,32.779-.215Z" transform="translate(-244.248 -448.33)"/>
            </g>
          </g>
        </g>
      </g>
      <g id="Group_482" data-name="Group 482" transform="translate(104.316 286.629)">
        <g id="Group_477" data-name="Group 477">
          <path id="Path_1105" data-name="Path 1105" d="M282.22,251.291l56.959,331.371-46.192,1.916L233.634,297.1,218.326,584.811l-50.8-.78,18.445-337.749Z" transform="translate(-167.526 -246.282)" fill="#454f6b"/>
          <g id="Group_475" data-name="Group 475" transform="translate(51.9 50.449)">
            <path id="Path_1107" data-name="Path 1107" d="M211.291,276.505a7.58,7.58,0,0,0,1.828.246l5,.358c4.219.285,10.053.576,16.459,1.2s12.186,1.5,16.38,2.043l4.969.628a7.417,7.417,0,0,0,1.842.114,7.591,7.591,0,0,0-1.79-.449c-1.16-.236-2.845-.543-4.929-.9-4.171-.7-9.946-1.658-16.387-2.3s-12.288-.824-16.516-.951c-2.116-.055-3.828-.084-5.011-.08A7.506,7.506,0,0,0,211.291,276.505Z" transform="translate(-211.291 -276.413)" fill="#263238"/>
          </g>
          <g id="Group_476" data-name="Group 476" transform="translate(14.905 13.006)">
            <path id="Path_1108" data-name="Path 1108" d="M247,271.048a3.333,3.333,0,0,0,1.242.32,17.188,17.188,0,0,0,3.493.161,20.244,20.244,0,0,0,17.86-12.837,17.137,17.137,0,0,0,.961-3.36,3.309,3.309,0,0,0,.094-1.281c-.152-.032-.434,1.773-1.622,4.4a21.09,21.09,0,0,1-17.341,12.464C248.82,271.2,247.02,270.894,247,271.048Z" transform="translate(-247.001 -254.05)" fill="#263238"/>
          </g>
        </g>
        <path id="Path_1109" data-name="Path 1109" d="M253.456,314.607c-12.2,36.6-3.514,64.348-3.514,64.348h24.68l5.316-62.329Z" transform="translate(-241.258 -200.208)" fill="#263238"/>
        <path id="Path_1110" data-name="Path 1110" d="M195.883,435.706c8.318-22.515,3.673-49.326-11.732-67.73H171.682l9.869,67.73Z" transform="translate(-35.266 -164.219)" fill="#263238"/>
        <g id="Group_478" data-name="Group 478" transform="translate(7.699 117.208)">
          <path id="Path_1111" data-name="Path 1111" d="M247.614,328.853a5.146,5.146,0,0,0,1.44.544c.944.293,2.317.69,4.037,1.107a33.977,33.977,0,0,0,13.808.857,12.183,12.183,0,0,0,3.821-1.346,10.539,10.539,0,0,0,2.863-2.475,15.943,15.943,0,0,0,2.838-5.616,31.8,31.8,0,0,0,.894-4.1,5.126,5.126,0,0,0,.136-1.535c-.157-.038-.537,2.135-1.617,5.452a16.234,16.234,0,0,1-2.868,5.288,10.064,10.064,0,0,1-6.23,3.479c-5.219.931-10.09.034-13.514-.6A47.954,47.954,0,0,0,247.614,328.853Z" transform="translate(-247.613 -316.285)" fill="#455a64"/>
        </g>
        <g id="Group_479" data-name="Group 479" transform="translate(27.121 130.515)">
          <path id="Path_1112" data-name="Path 1112" d="M256.337,374.841c.142-.052-.847-2.759-2.048-7.24a96.864,96.864,0,0,1-2.726-35.9c.511-4.611,1.08-7.436.933-7.466a9.151,9.151,0,0,0-.551,1.954c-.311,1.268-.658,3.124-.993,5.437a84.976,84.976,0,0,0,2.744,36.146c.68,2.234,1.3,4.02,1.8,5.226A9.1,9.1,0,0,0,256.337,374.841Z" transform="translate(-250.137 -324.232)" fill="#455a64"/>
        </g>
        <g id="Group_480" data-name="Group 480" transform="translate(136.961 204.709)">
          <path id="Path_1113" data-name="Path 1113" d="M174.266,368.545a5.192,5.192,0,0,0,.08,1.547c.121.985.335,2.408.691,4.147a70.351,70.351,0,0,0,4.162,13.239l.973,2.185.131.293.323-.045c4.78-.69,9.053-1.028,12.122-1.206a40.438,40.438,0,0,0,4.944-.357,23.938,23.938,0,0,0-4.964-.224,97.219,97.219,0,0,0-12.224.929l.454.246c-.306-.693-.628-1.423-.954-2.163a88.269,88.269,0,0,1-4.365-13.035C174.783,370.682,174.4,368.525,174.266,368.545Z" transform="translate(-174.236 -368.545)" fill="#455a64"/>
        </g>
        <g id="Group_481" data-name="Group 481" transform="translate(143.39 225.471)">
          <path id="Path_1114" data-name="Path 1114" d="M189.69,429.059a9.187,9.187,0,0,1-2.049-.114,7.062,7.062,0,0,1-4.291-3.238c-1.257-2-1.715-4.842-2.024-8-.363-3.191-.76-6.667-1.177-10.316-.861-7.317-1.686-13.934-2.329-18.719-.32-2.254-.589-4.147-.8-5.661a9.837,9.837,0,0,0-.414-2.063,9.681,9.681,0,0,0,.075,2.1c.142,1.522.32,3.429.531,5.694.484,4.8,1.214,11.432,2.074,18.749.44,3.645.859,7.119,1.246,10.307.353,3.149.884,6.138,2.3,8.239a7.188,7.188,0,0,0,4.75,3.241,4.684,4.684,0,0,0,1.591-.03C189.521,429.159,189.7,429.087,189.69,429.059Z" transform="translate(-176.571 -380.945)" fill="#455a64"/>
        </g>
      </g>
      <g id="Group_505" data-name="Group 505" transform="translate(5.891 79.974)">
        <path id="Path_1115" data-name="Path 1115" d="M358.41,129.636l-43.458,27.158L266.6,122.857l-39.3,26.176v144.4l39.3-20.816,43.486,24.9,48.19-20.72L397.3,293.214l-4.11-126.658Z" transform="translate(-227.292 -122.857)" fill="#455a64"/>
        <path id="Path_1116" data-name="Path 1116" d="M383.474,167.025l4.152,109.3-29.063-12.1L310.458,287.49l-43.236-29.537-35.291,21.7V151.073l31.139-23.527,46.709,35.983,45.325-27.9Z" transform="translate(-225.383 -119.696)" fill="#f5f5f5"/>
        <g id="Group_483" data-name="Group 483" transform="translate(6.549 8.932)">
          <path id="Path_1117" data-name="Path 1117" d="M282.8,249.158V178.345c5.637-6.314,16.432-7.57,23.133-2.229,8.358,6.66,9.38,20.295,18.694,25.537,3.885,2.188,8.536,2.451,12.753,3.894a23.6,23.6,0,0,1,7.647,40.315l-26.937-18.4Z" transform="translate(-282.801 -98.136)" fill="#e0e0e0"/>
          <path id="Path_1118" data-name="Path 1118" d="M297.935,128.192l45.3,34.9,9.393-5.781c1.835,5.492,1.319,12.01-2.5,16.34a25.136,25.136,0,0,1-.355,9.651c-1.7,6.955-7.01,13.142-13.924,15.01s-15.1-1.221-18.329-7.61c-1.976-3.91-2.369-9.015-6.021-11.434-4.171-2.763-9.624-.226-14.567.544-10.55,1.641-21.3-6.361-23.98-16.7-1.857-7.154-.157-14.856,3.849-21.1l16.758-12.661A37.808,37.808,0,0,1,297.935,128.192Z" transform="translate(-265.391 -128.192)" fill="#e0e0e0"/>
          <path id="Path_1119" data-name="Path 1119" d="M248.539,262.907c3.5-5.6,3.576-12.653,2.806-19.2s-2.28-13.12-1.565-19.678,4.285-13.356,10.515-15.528c3.511-1.224,7.406-.844,10.958-1.937,6.594-2.033,10.739-8.829,11.961-15.62s.136-13.75-.38-20.631-.367-14.155,3.019-20.167a15.609,15.609,0,0,1,9.4-7.24l12.444,13.77,4.152,109.3-29.063-12.1-48.105,23.273-2.751-1.88C238.238,271.9,244.869,268.781,248.539,262.907Z" transform="translate(-156.156 -118.273)" fill="#e0e0e0"/>
        </g>
        <g id="Group_504" data-name="Group 504" transform="translate(13.876 52.09)">
          <g id="Group_484" data-name="Group 484" transform="translate(142.89 51.791)">
            <path id="Path_1120" data-name="Path 1120" d="M233.019,184.916c-.188.179,1.025,1.6,1.994,3.613.991,2.006,1.274,3.839,1.529,3.819.226.008.328-2.016-.743-4.2S233.163,184.749,233.019,184.916Z" transform="translate(-232.999 -184.901)" fill="#e8505b"/>
          </g>
          <g id="Group_485" data-name="Group 485" transform="translate(127.595 46.183)">
            <path id="Path_1121" data-name="Path 1121" d="M239.392,182.264c.02.119.5.181,1.254.188s1.771-.1,2.893,0c2.245.134,4.05.589,4.131.352.087-.214-1.683-1.075-4.077-1.222a10.854,10.854,0,0,0-3.014.261C239.821,181.993,239.37,182.145,239.392,182.264Z" transform="translate(-239.391 -181.552)" fill="#e8505b"/>
          </g>
          <g id="Group_486" data-name="Group 486" transform="translate(113.195 49.784)">
            <path id="Path_1122" data-name="Path 1122" d="M249.008,188.884c.177.172,1.6-1.036,3.4-2.445s3.309-2.488,3.188-2.7-1.882.558-3.727,2.019S248.838,188.723,249.008,188.884Z" transform="translate(-248.992 -183.702)" fill="#e8505b"/>
          </g>
          <g id="Group_487" data-name="Group 487" transform="translate(103.475 61.435)">
            <path id="Path_1123" data-name="Path 1123" d="M256.1,197.782c.209.119,1.363-1.37,2.575-3.324s2.038-3.65,1.84-3.789-1.351,1.35-2.577,3.324S255.893,197.663,256.1,197.782Z" transform="translate(-256.07 -190.661)" fill="#e8505b"/>
          </g>
          <g id="Group_488" data-name="Group 488" transform="translate(94.749 75.809)">
            <path id="Path_1124" data-name="Path 1124" d="M261.217,206.265c.191.146,1.378-1.316,2.649-3.265s2.131-3.627,1.924-3.747-1.4,1.341-2.65,3.267S261.024,206.121,261.217,206.265Z" transform="translate(-261.19 -199.246)" fill="#e8505b"/>
          </g>
          <g id="Group_489" data-name="Group 489" transform="translate(82.369 89.072)">
            <path id="Path_1125" data-name="Path 1125" d="M267.247,211.926c.052.109.511-.022,1.219-.323a13.3,13.3,0,0,0,2.63-1.442c1.932-1.344,3.173-2.808,3.009-2.975s-1.641.963-3.508,2.26c-.923.668-1.81,1.185-2.428,1.616S267.193,211.817,267.247,211.926Z" transform="translate(-267.241 -207.167)" fill="#e8505b"/>
          </g>
          <g id="Group_490" data-name="Group 490" transform="translate(66.061 96.197)">
            <path id="Path_1126" data-name="Path 1126" d="M276.1,211.822c-.029.233,1.845.643,4.2.571s4.2-.6,4.154-.832c-.043-.245-1.9-.1-4.181-.04S276.127,211.576,276.1,211.822Z" transform="translate(-276.102 -211.423)" fill="#e8505b"/>
          </g>
          <g id="Group_491" data-name="Group 491" transform="translate(50.285 91.353)">
            <path id="Path_1127" data-name="Path 1127" d="M285.978,208.562c-.127.2,1.383,1.378,3.518,2.352s4.007,1.363,4.075,1.137-1.639-.973-3.712-1.929S286.109,208.353,285.978,208.562Z" transform="translate(-285.971 -208.529)" fill="#e8505b"/>
          </g>
          <g id="Group_492" data-name="Group 492" transform="translate(38.045 80.075)">
            <path id="Path_1128" data-name="Path 1128" d="M294.492,201.8c-.191.139.767,1.786,2.324,3.531s3.094,2.878,3.252,2.7-1.08-1.574-2.6-3.283S294.69,201.659,294.492,201.8Z" transform="translate(-294.468 -201.794)" fill="#e8505b"/>
          </g>
          <g id="Group_493" data-name="Group 493" transform="translate(30.054 65.406)">
            <path id="Path_1129" data-name="Path 1129" d="M300.521,193.035c-.223.082.249,1.924,1.216,4.045s2.048,3.69,2.255,3.575-.514-1.843-1.462-3.935S300.749,192.952,300.521,193.035Z" transform="translate(-300.467 -193.032)" fill="#e8505b"/>
          </g>
          <g id="Group_494" data-name="Group 494" transform="translate(25.921 49.196)">
            <path id="Path_1130" data-name="Path 1130" d="M304.2,183.351c-.238.018-.271,1.927.154,4.223s1.1,4.072,1.329,4.01-.06-1.912-.472-4.166S304.439,183.331,304.2,183.351Z" transform="translate(-304.023 -183.351)" fill="#e8505b"/>
          </g>
          <g id="Group_495" data-name="Group 495" transform="translate(26.078 32.887)">
            <path id="Path_1131" data-name="Path 1131" d="M306.01,173.617c-.2-.122-1.326,1.467-2.019,3.732s-.718,4.191-.491,4.213c.249.034.648-1.788,1.323-3.955S306.227,173.737,306.01,173.617Z" transform="translate(-303.369 -173.61)" fill="#e8505b"/>
          </g>
          <g id="Group_496" data-name="Group 496" transform="translate(34.009 22.323)">
            <path id="Path_1132" data-name="Path 1132" d="M303.158,167.354c-.074-.218-1.947.228-4.007,1.383s-3.406,2.55-3.25,2.722c.161.189,1.689-.862,3.677-1.962S303.243,167.589,303.158,167.354Z" transform="translate(-295.889 -167.301)" fill="#e8505b"/>
          </g>
          <g id="Group_497" data-name="Group 497" transform="translate(49.392 19.59)">
            <path id="Path_1133" data-name="Path 1133" d="M294.411,166.167c.018-.236-1.862-.568-4.2-.486s-4.194.543-4.157.777,1.9.167,4.188.094S294.394,166.411,294.411,166.167Z" transform="translate(-286.052 -165.668)" fill="#e8505b"/>
          </g>
          <g id="Group_498" data-name="Group 498" transform="translate(66.117 15.862)">
            <path id="Path_1134" data-name="Path 1134" d="M283.7,163.447c-.248-.111-.964,1.671-2.893,2.741-1.9,1.083-3.8,1.333-3.751,1.614-.005.188,2.016.36,4.191-.862a5.459,5.459,0,0,0,2.16-2.235C283.765,163.984,283.8,163.48,283.7,163.447Z" transform="translate(-277.059 -163.442)" fill="#e8505b"/>
          </g>
          <g id="Group_499" data-name="Group 499" transform="translate(63.984 3.281)">
            <path id="Path_1135" data-name="Path 1135" d="M278.283,155.97c-.049.109.323.419.956.829s1.547.887,2.456,1.55c1.857,1.279,3.153,2.6,3.344,2.448.193-.137-.874-1.8-2.845-3.163a11.193,11.193,0,0,0-2.677-1.386C278.8,155.972,278.333,155.859,278.283,155.97Z" transform="translate(-278.279 -155.928)" fill="#e8505b"/>
          </g>
          <g id="Group_500" data-name="Group 500" transform="translate(47.658)">
            <path id="Path_1136" data-name="Path 1136" d="M287.1,154.529c.025.246,1.889.233,4.166.327s4.134.238,4.179-.005-1.795-.779-4.146-.867S287.066,154.3,287.1,154.529Z" transform="translate(-287.095 -153.969)" fill="#e8505b"/>
          </g>
          <g id="Group_501" data-name="Group 501" transform="translate(31.771 2.321)">
            <path id="Path_1137" data-name="Path 1137" d="M296.954,158.632c.1.223,1.879-.4,3.993-1.3s3.809-1.683,3.734-1.912-1.932.194-4.074,1.108S296.855,158.418,296.954,158.632Z" transform="translate(-296.95 -155.355)" fill="#e8505b"/>
          </g>
          <g id="Group_502" data-name="Group 502" transform="translate(16.158 8.981)">
            <path id="Path_1138" data-name="Path 1138" d="M306.123,161.865c.022.2,1.951.07,4.181-.636,2.2-.794,3.9-1.619,3.8-1.84s-1.917.229-4.069,1.01C307.868,161.086,306.08,161.59,306.123,161.865Z" transform="translate(-306.123 -159.332)" fill="#e8505b"/>
          </g>
          <g id="Group_503" data-name="Group 503" transform="translate(0 8.845)">
            <path id="Path_1139" data-name="Path 1139" d="M315.886,159.279c-.147.181,1.331,1.5,3.593,2.277,2.249.79,4.194.785,4.213.559.034-.253-1.793-.63-3.923-1.381C317.632,160,316.033,159.077,315.886,159.279Z" transform="translate(-315.876 -159.251)" fill="#e8505b"/>
          </g>
        </g>
      </g>
      <g id="Group_506" data-name="Group 506" transform="translate(219.011 167.3)">
        <path id="Path_1140" data-name="Path 1140" d="M205.532,175.013a2.561,2.561,0,0,0-.177.748c-.094.591-.208,1.3-.343,2.162-.288,2.016-.671,4.707-1.139,7.968-.968,6.853-2.272,16.085-3.714,26.289-1.447,10.272-2.679,19.581-3.471,26.334-.4,3.375-.695,6.11-.872,8-.074.866-.134,1.584-.186,2.182a2.7,2.7,0,0,0-.007.769,2.675,2.675,0,0,0,.176-.747l.343-2.163c.288-2.016.673-4.7,1.139-7.967.969-6.855,2.274-16.087,3.715-26.294,1.445-10.269,2.679-19.578,3.469-26.331.4-3.375.7-6.11.872-8,.074-.866.136-1.584.186-2.182A2.678,2.678,0,0,0,205.532,175.013Z" transform="translate(-195.603 -175.013)" fill="#263238"/>
      </g>
      <g id="Group_531" data-name="Group 531" transform="translate(122.003 0)">
        <g id="Group_519" data-name="Group 519" transform="translate(0 16.401)">
          <g id="Group_517" data-name="Group 517" transform="translate(7.391 7.354)">
            <g id="Group_516" data-name="Group 516">
              <g id="Group_515" data-name="Group 515">
                <g id="Group_514" data-name="Group 514">
                  <g id="Group_513" data-name="Group 513">
                    <g id="Group_509" data-name="Group 509" transform="translate(2.894 10.022)">
                      <g id="Group_508" data-name="Group 508">
                        <g id="Group_507" data-name="Group 507">
                          <path id="Path_1141" data-name="Path 1141" d="M271.3,102.4l3.786,76.686-32.832,3.094-1.815-18.612s-11.58,2.861-15.1-7.853c-2.247-6.845-4.246-60.452-4.246-60.452Z" transform="translate(-221.094 -95.266)" fill="#ffbe9d"/>
                        </g>
                      </g>
                    </g>
                    <g id="Group_512" data-name="Group 512">
                      <g id="Group_511" data-name="Group 511">
                        <g id="Group_510" data-name="Group 510">
                          <path id="Path_1142" data-name="Path 1142" d="M215.924,108.258c-.907,7.176,9.127,11.33,9.127,11.33l1.753,16.978a33.3,33.3,0,0,1,4.717-.042c-.845-7.967,9.413-6.413,10.458-.979,1,5.224-4.944,8.71-4.944,8.71,4.105,6.3,5.771,9.624,11.6,15.529,6.307,6.389,9.7,6.907,16.209,6.714l7.173-.332s2.553-6.128,4.425-20.6c.9-6.964,6.337-16.087,4.79-27.407-4.4-32.171-35.221-28.772-35.221-28.772C230.016,89.829,218.033,91.6,215.924,108.258Z" transform="translate(-215.866 -89.28)" fill="#263238"/>
                        </g>
                      </g>
                    </g>
                  </g>
                </g>
              </g>
            </g>
          </g>
          <g id="Group_518" data-name="Group 518" transform="translate(0)">
            <path id="Path_1143" data-name="Path 1143" d="M250.055,122.016a24.288,24.288,0,0,1-15.55-16.583c-.774-2.95-.931-6.252.581-8.9s5.1-4.239,7.772-2.764a8.913,8.913,0,0,1,17.318-2.949,7.993,7.993,0,0,1,8.852-2.481,11.334,11.334,0,0,1,6.639,6.828,19.9,19.9,0,0,1,.8,9.7" transform="translate(-233.931 -84.888)" fill="#263238"/>
          </g>
        </g>
        <path id="Path_1144" data-name="Path 1144" d="M257.309,142.613c5.853-5.765,7.647-11.771,7-19.96a31.7,31.7,0,0,0-24.193-47.436c-2.8-.286-5.776-.161-8.211,1.251s-4.119,4.414-3.272,7.1,4.765,4.065,6.709,2.029c-6.408,3.816-12.944,7.737-17.748,13.443s-7.64,13.627-5.422,20.748c1.815,5.828,6.627,10.2,11.561,13.788,9.718,7.076,22.063,12.487,33.577,9.036" transform="translate(-188.002 -75.093)" fill="#7bc1ba"/>
        <g id="Group_520" data-name="Group 520" transform="translate(32.972 19.583)">
          <path id="Path_1145" data-name="Path 1145" d="M214.089,86.789a9.636,9.636,0,0,0,.224,2.289,30.41,30.41,0,0,0,1.706,6.043,33.369,33.369,0,0,0,32.713,21.308,30.292,30.292,0,0,0,6.217-.884,9.571,9.571,0,0,0,2.185-.72c-.039-.188-3.176.9-8.419.988a33.9,33.9,0,0,1-32.127-20.924C214.549,90.059,214.276,86.747,214.089,86.789Z" transform="translate(-214.07 -86.789)" fill="#263238"/>
        </g>
        <g id="Group_521" data-name="Group 521" transform="translate(54.815 49.251)">
          <path id="Path_1146" data-name="Path 1146" d="M219.613,123.231A7.72,7.72,0,0,0,223,122.144a15.645,15.645,0,0,0,8.551-14.131,7.7,7.7,0,0,0-.611-3.5c-.142.025.112,1.356-.007,3.489A16.646,16.646,0,0,1,222.7,121.6C220.867,122.7,219.57,123.092,219.613,123.231Z" transform="translate(-219.612 -104.508)" fill="#263238"/>
        </g>
        <g id="Group_522" data-name="Group 522" transform="translate(42.85 46.328)">
          <path id="Path_1147" data-name="Path 1147" d="M227.362,119.39a7.054,7.054,0,0,0,2.86-1.216,17.291,17.291,0,0,0,7.965-12.306,7.03,7.03,0,0,0-.064-3.106,25.291,25.291,0,0,0-.544,3,19.618,19.618,0,0,1-7.7,11.9A25.334,25.334,0,0,0,227.362,119.39Z" transform="translate(-227.36 -102.762)" fill="#263238"/>
        </g>
        <g id="Group_523" data-name="Group 523" transform="translate(30.551 39.999)">
          <path id="Path_1148" data-name="Path 1148" d="M233.589,113.817c.251.116,1.922-4.072,5.514-8.182,3.55-4.149,7.451-6.406,7.3-6.639-.065-.2-4.286,1.783-7.96,6.069C234.734,109.316,233.383,113.781,233.589,113.817Z" transform="translate(-233.568 -98.982)" fill="#263238"/>
        </g>
        <g id="Group_524" data-name="Group 524" transform="translate(23.424 29.906)">
          <path id="Path_1149" data-name="Path 1149" d="M237.907,105.153c.295.146,1.532-3.943,5.03-7.523,3.533-3.6,7.8-4.348,7.685-4.64a6.105,6.105,0,0,0-2.692.5,14.651,14.651,0,0,0-5.611,3.521,17.734,17.734,0,0,0-3.653,5.515A6.785,6.785,0,0,0,237.907,105.153Z" transform="translate(-237.884 -92.954)" fill="#263238"/>
        </g>
        <g id="Group_525" data-name="Group 525" transform="translate(46.661 33.887)" opacity="0.2">
          <path id="Path_1150" data-name="Path 1150" d="M244.106,106.594c-3.948,1.217-8.28-.062-11.851-2.141s-6.637-4.919-10.079-7.206a11,11,0,0,0-3.895-1.813,4.591,4.591,0,0,0-4.038.993,4.428,4.428,0,0,0-.939,4.4,8.49,8.49,0,0,0,2.7,3.812c5.113,4.469,12.412,5.244,19.2,5.41a14.063,14.063,0,0,0,4.6-.415,5.031,5.031,0,0,0,3.349-2.967" transform="translate(-213.091 -95.332)"/>
        </g>
        <g id="Group_526" data-name="Group 526" transform="translate(45.659 24.675)">
          <path id="Path_1151" data-name="Path 1151" d="M213.62,89.832a5.559,5.559,0,0,0,.675,1.44c.487.9,1.224,2.177,2.2,3.72a45.037,45.037,0,0,0,9.276,10.863,24.926,24.926,0,0,0,13.085,5.634,16.7,16.7,0,0,0,4.355-.131,4.773,4.773,0,0,0,1.542-.415,34.431,34.431,0,0,1-5.827-.067,25.977,25.977,0,0,1-12.606-5.7,50.866,50.866,0,0,1-9.311-10.527A56.268,56.268,0,0,0,213.62,89.832Z" transform="translate(-213.614 -89.83)" fill="#263238"/>
        </g>
        <g id="Group_527" data-name="Group 527" transform="translate(49.785 34.324)">
          <path id="Path_1152" data-name="Path 1152" d="M230.593,95.595c-.248.065.774,2.707-.3,5.808-.988,3.131-3.382,4.643-3.223,4.844.049.089.73-.139,1.611-.874a8.465,8.465,0,0,0,2.682-8.117C231.1,96.141,230.684,95.551,230.593,95.595Z" transform="translate(-227.065 -95.593)" fill="#263238"/>
        </g>
        <g id="Group_528" data-name="Group 528" transform="translate(41.434 3.564)">
          <path id="Path_1153" data-name="Path 1153" d="M221.559,79.677c.054.069.616-.405,1.787-.949a10.909,10.909,0,0,1,5.3-.881,12.813,12.813,0,0,1,7.288,3A18.64,18.64,0,0,1,241.263,89a25.811,25.811,0,0,1,1.505,9.741,11.949,11.949,0,0,1-2.793,7.344,9.348,9.348,0,0,1-4.484,2.887c-1.247.318-1.986.258-1.986.342,0,.03.177.062.529.092a6.717,6.717,0,0,0,1.532-.1,9.186,9.186,0,0,0,4.864-2.8,12.329,12.329,0,0,0,3.138-7.7,25.7,25.7,0,0,0-1.484-10.09,18.97,18.97,0,0,0-5.637-8.489,13.14,13.14,0,0,0-7.766-2.994,10.536,10.536,0,0,0-5.488,1.19,7.138,7.138,0,0,0-1.262.869C221.668,79.523,221.541,79.654,221.559,79.677Z" transform="translate(-221.557 -77.221)" fill="#263238"/>
        </g>
        <g id="Group_529" data-name="Group 529" transform="translate(42.613 1.961)">
          <path id="Path_1154" data-name="Path 1154" d="M235.074,118.1a2.232,2.232,0,0,0,.712-.042,10.269,10.269,0,0,0,1.976-.514,13.885,13.885,0,0,0,6.033-4.41,17.6,17.6,0,0,0,3.665-10.438,25.078,25.078,0,0,0-3.265-13.162A25.552,25.552,0,0,0,224.187,76.39a25.038,25.038,0,0,0-7.469.363,18.561,18.561,0,0,0-1.964.524,2.177,2.177,0,0,0-.66.263c.018.221,3.809-1.259,10.026-.537a25.907,25.907,0,0,1,10.212,3.489,25.634,25.634,0,0,1,9.1,9.468,24.711,24.711,0,0,1,3.225,12.708,17.268,17.268,0,0,1-3.349,10.085,14.227,14.227,0,0,1-5.671,4.477C236.041,117.915,235.055,118.011,235.074,118.1Z" transform="translate(-214.094 -76.264)" fill="#263238"/>
        </g>
        <g id="Group_530" data-name="Group 530" transform="translate(35.111 6.788)">
          <path id="Path_1155" data-name="Path 1155" d="M228.017,101.691a10.833,10.833,0,0,1,1.345-5.485,12.572,12.572,0,0,1,4.275-4.35,29.855,29.855,0,0,1,7-3.044,9.543,9.543,0,0,0,3.653-2.014,4.352,4.352,0,0,0,1.432-3.71,4.451,4.451,0,0,0-2.028-2.972,5.761,5.761,0,0,0-2.937-.961,11.092,11.092,0,0,0-4.275.769,5.007,5.007,0,0,0-1.438.648,6.1,6.1,0,0,0,1.539-.323,12.339,12.339,0,0,1,4.127-.477,5.205,5.205,0,0,1,2.573.941,3.748,3.748,0,0,1,1.643,2.488,3.564,3.564,0,0,1-1.232,2.985,8.9,8.9,0,0,1-3.344,1.8,28.573,28.573,0,0,0-7.156,3.2,12.678,12.678,0,0,0-4.377,4.728,9,9,0,0,0-1.063,4.211A3.382,3.382,0,0,0,228.017,101.691Z" transform="translate(-227.755 -79.146)" fill="#263238"/>
        </g>
      </g>
      <g id="Group_537" data-name="Group 537" transform="translate(0 124.219)">
        <g id="Group_535" data-name="Group 535" transform="translate(0 5.283)">
          <g id="Group_534" data-name="Group 534">
            <g id="Group_533" data-name="Group 533">
              <g id="Group_532" data-name="Group 532">
                <path id="Path_1156" data-name="Path 1156" d="M331.38,199.8l-7.1-3.064c-6.218-3.347-9.8-4.971-10.893-7.454-1.457-3.324,2.825-4.2,2.825-4.2s-4.018-3.575-2.381-6.252c1.118-1.825,3.432-1.113,3.432-1.113s-3.462-3.349-3.558-5.416c-.131-2.82,3.317-2.85,3.317-2.85-4.188-5.843-2.235-9.07-.787-8.867s5,4.072,5,4.072c3.273,2.619,12.121,9.962,10.7,2.794s.2-13.212,1.771-14.545,4,.373,3.468,2.578a26.667,26.667,0,0,0,.028,7.367,17.461,17.461,0,0,0,1.594,5.693c1,2.085,1.929,3.813,2.756,5.262l3.781,8.784Z" transform="translate(-313.084 -152.437)" fill="#7bc1ba"/>
              </g>
            </g>
          </g>
        </g>
        <path id="Path_1157" data-name="Path 1157" d="M378.664,183.279,327.716,252.97a22.108,22.108,0,0,1-32.738,3.3l-56.561-51.533,20.526-24.72,47.431,36.571,34.806-57.7a22.372,22.372,0,0,1,31.119-5.612h0A22.373,22.373,0,0,1,378.664,183.279Z" transform="translate(-224.648 -149.282)" fill="#7bc1ba"/>
        <g id="Group_536" data-name="Group 536" transform="translate(119.298 45.19)">
          <path id="Path_1158" data-name="Path 1158" d="M271.818,176.274a7.28,7.28,0,0,0-1.083,1.455q-1.118,1.7-2.714,4.11c-2.284,3.471-5.475,8.241-9.147,13.406s-7.136,9.745-9.668,13.041q-1.756,2.3-2.99,3.911a7.183,7.183,0,0,0-1.02,1.5,7.338,7.338,0,0,0,1.281-1.284c.784-.862,1.882-2.14,3.211-3.742,2.66-3.2,6.208-7.74,9.9-12.921s6.8-10.019,8.959-13.584c1.078-1.782,1.925-3.238,2.481-4.261A7.183,7.183,0,0,0,271.818,176.274Z" transform="translate(-245.192 -176.272)" fill="#7bc1ba"/>
        </g>
      </g>
      <g id="Group_540" data-name="Group 540" transform="translate(113.283 116.732)">
        <path id="Path_1159" data-name="Path 1159" d="M214.491,184.922s8.968,39.015,9.083,44.192c.154,6.8-8.489,18.518-16.42,20.111-12.678,2.545-24.994-8.542-24.994-8.542l-1.532-52.32Z" transform="translate(-82.827 -117.763)" fill="#e8505b"/>
        <g id="Group_539" data-name="Group 539" transform="translate(0)">
          <path id="Path_1160" data-name="Path 1160" d="M318.1,216.082s-7.419-59.2-35.32-66.592-24.285-3.812-24.285-3.812l-23.37,2.774a50.539,50.539,0,0,0-44.315,44.976l.628,52.593s-5.939,37.741-5.939,40.141c0,15.3,5.939,31.869,5.939,31.869l100.258,4.489s6.443-2.319,9.478-11.826-9.92-41.629-9.92-41.629Z" transform="translate(-185.495 -144.811)" fill="#7bc1ba"/>
          <g id="Group_538" data-name="Group 538" transform="translate(3.395 56.76)" opacity="0.2">
            <path id="Path_1161" data-name="Path 1161" d="M273.262,178.711a248.914,248.914,0,0,1-12.847,63.4,52.083,52.083,0,0,1-5.179,11.578c-1.144,1.765-2.907,3.585-4.983,3.252a4.116,4.116,0,0,1-3.037-3.067,12.1,12.1,0,0,1-.116-4.529c1.334-13.3,1.132-23.99,2.468-37.287" transform="translate(-246.945 -178.711)" fill="#7bc1ba"/>
          </g>
        </g>
      </g>
      <g id="Group_552" data-name="Group 552" transform="translate(118.245 110.509)">
        <path id="Path_1162" data-name="Path 1162" d="M257.148,194.821c.228-2.761-9.865-47.511-9.865-47.511l-19.5,3.99L239.7,197.863Z" transform="translate(-200.324 -136.903)" fill="#263238"/>
        <path id="Path_1163" data-name="Path 1163" d="M277.662,252.7c-14.59-1.319-33.254-35.645-38.99-55.235-4.132,30.135,14.7,60.336,36.514,76.964" transform="translate(-238.098 -103.078)" fill="#263238"/>
        <g id="Group_551" data-name="Group 551" transform="translate(6.611)">
          <g id="Group_549" data-name="Group 549">
            <g id="Group_547" data-name="Group 547">
              <path id="Path_1164" data-name="Path 1164" d="M165.665,192.792q4.732.025,9.462.052c.5,4.291-1.529,8.76-.2,12.871a18.243,18.243,0,0,0,2.584,5c1.929,2.681,1.89,22.327.231,29.095H166.418Z" transform="translate(-24.743 -106.233)" fill="#7bc1ba"/>
              <path id="Path_1165" data-name="Path 1165" d="M164.886,189.59h155.43c6-16.968,8.286-33.267,0-47.665H164.886C152.958,157.235,156.02,173.272,164.886,189.59Z" transform="translate(-157.046 -140.534)" fill="#455a64"/>
              <path id="Path_1166" data-name="Path 1166" d="M249.28,329.884c22.4,2.145,27.928-4.363,33.53-14.428s5.363-22.232,4.976-33.745l-2.019-59.961c-.447-13.288.733-27.635-6.1-39.037s-17.276-15.174-33.267-14.217L207.967,169.5c-19.971.524-35.891,7.98-35.333,30.491l-.558,102.9a25.914,25.914,0,0,0,25.376,25.909Z" transform="translate(-144.464 -122.713)" fill="#263238"/>
              <rect id="Rectangle_250" data-name="Rectangle 250" width="6.672" height="50.189" transform="translate(109.465 0.129)" fill="#263238"/>
              <rect id="Rectangle_251" data-name="Rectangle 251" width="6.672" height="50.189" transform="translate(55.2)" fill="#263238"/>
              <g id="Group_541" data-name="Group 541" transform="translate(35.607 57.918)">
                <path id="Path_1167" data-name="Path 1167" d="M176.1,175.686a1.57,1.57,0,0,0,0,.43c.02.333.045.747.075,1.254.089,1.1.151,2.738.489,4.814a75.625,75.625,0,0,0,4.377,17.239,67.424,67.424,0,0,0,5.487,11.024,49.8,49.8,0,0,0,8.984,10.912l2.905,2.45c1.031.757,2.148,1.427,3.238,2.155A17.027,17.027,0,0,0,203.334,227l1.8.867a25.006,25.006,0,0,0,3.709,1.617l3.923,1.276c1.348.313,2.732.519,4.114.785.695.11,1.385.29,2.09.342L221.1,232c1.423.049,2.86.2,4.3.161a79.3,79.3,0,0,0,16.645-2.068,53.13,53.13,0,0,0,14.491-5.842,40.388,40.388,0,0,0,10.753-9.175q1.02-1.318,2-2.6c.621-.874,1.108-1.815,1.651-2.691a36.459,36.459,0,0,0,2.627-5.309,55.44,55.44,0,0,0,3.678-17.378c.032-2.1,0-3.735-.012-4.841-.013-.509-.023-.923-.03-1.257a1.56,1.56,0,0,0-.04-.427,1.646,1.646,0,0,0-.05.43l-.055,1.256c-.037,1.17-.087,2.781-.152,4.819A57.27,57.27,0,0,1,273,204.24a36.216,36.216,0,0,1-2.637,5.2c-.542.857-1.026,1.778-1.644,2.632q-.977,1.243-1.987,2.535a39.983,39.983,0,0,1-10.607,8.946,52.767,52.767,0,0,1-14.285,5.7,79.074,79.074,0,0,1-16.457,2.026c-1.422.037-2.825-.112-4.224-.157l-2.091-.1c-.692-.05-1.366-.228-2.048-.335-1.353-.26-2.712-.459-4.033-.762q-1.939-.628-3.843-1.244a24.2,24.2,0,0,1-3.635-1.574l-1.766-.844a16.268,16.268,0,0,1-1.649-1.011c-1.068-.71-2.165-1.361-3.18-2.1l-2.863-2.391a49.543,49.543,0,0,1-8.907-10.7,67.844,67.844,0,0,1-5.525-10.863A79.476,79.476,0,0,1,177,182.134c-.388-2.059-.506-3.684-.65-4.779-.065-.5-.119-.914-.162-1.246A1.592,1.592,0,0,0,176.1,175.686Z" transform="translate(-176.09 -175.686)" fill="#455a64"/>
              </g>
              <rect id="Rectangle_252" data-name="Rectangle 252" width="24.066" height="6.716" transform="translate(79.071 95.68)" fill="#7bc1ba"/>
              <g id="Group_542" data-name="Group 542" transform="translate(58.536 76.817)">
                <rect id="Rectangle_253" data-name="Rectangle 253" width="4.241" height="97.153" transform="translate(3.801)" fill="#455a64"/>
                <rect id="Rectangle_254" data-name="Rectangle 254" width="10.891" height="2.563" transform="translate(0 80.269)" fill="#455a64"/>
              </g>
              <g id="Group_543" data-name="Group 543" transform="translate(112.421 76.817)">
                <rect id="Rectangle_255" data-name="Rectangle 255" width="4.241" height="96.216" transform="translate(3.801)" fill="#455a64"/>
                <rect id="Rectangle_256" data-name="Rectangle 256" width="10.891" height="2.563" transform="translate(0 79.331)" fill="#455a64"/>
              </g>
              <g id="Group_544" data-name="Group 544" transform="translate(37.903 71.842)">
                <path id="Path_1168" data-name="Path 1168" d="M172.532,184a2.765,2.765,0,0,0,.01.558c.03.414.069.951.117,1.627.121,1.485.291,3.58.507,6.249.432,5.428,1.016,13.284,1.485,23.005s.794,21.306.733,34.172c-.028,6.433-.166,13.184-.424,20.179-.119,3.494-.321,7.072-.117,10.719a29.729,29.729,0,0,0,2.421,10.828,17.531,17.531,0,0,0,7.345,8.3,26.575,26.575,0,0,0,10.429,2.748c7.01.558,13.761.814,20.208.946,12.887.241,24.492-.149,34.218-.71,4.859-.316,9.262-.5,13.115-1.075a23.533,23.533,0,0,0,9.385-3.253,14.394,14.394,0,0,0,4.462-4.412,8.469,8.469,0,0,0,.939-1.982c-.045-.02-.3.7-1.087,1.887a14.782,14.782,0,0,1-4.5,4.221,23.509,23.509,0,0,1-9.272,3.057c-3.809.521-8.223.665-13.078.941-9.718.482-21.308.807-34.168.522-6.424-.152-13.185-.429-20.144-.993a25.81,25.81,0,0,1-10.089-2.655,16.668,16.668,0,0,1-6.972-7.9,28.926,28.926,0,0,1-2.347-10.518c-.206-3.581-.012-7.134.1-10.639.246-7,.367-13.765.373-20.206.017-12.882-.375-24.481-.921-34.207s-1.226-17.582-1.763-23c-.261-2.711-.5-4.812-.67-6.235-.085-.675-.152-1.209-.2-1.619A2.6,2.6,0,0,0,172.532,184Z" transform="translate(-172.523 -184.002)" fill="#455a64"/>
              </g>
              <g id="Group_545" data-name="Group 545" transform="translate(32.905 180.816)">
                <path id="Path_1169" data-name="Path 1169" d="M231.33,266.292c.275.072.953-4.752,4.211-9.587,3.191-4.884,7.37-7.384,7.2-7.608a8.052,8.052,0,0,0-2.724,1.576,22.883,22.883,0,0,0-8.291,12.5A8.035,8.035,0,0,0,231.33,266.292Z" transform="translate(-231.282 -249.087)" fill="#455a64"/>
              </g>
              <g id="Group_546" data-name="Group 546" transform="translate(72.059 135.009)">
                <path id="Path_1170" data-name="Path 1170" d="M192.278,222.144a6.758,6.758,0,0,0-.069,1.065c-.023.825-.055,1.89-.094,3.213a42.357,42.357,0,0,0,.075,5.15,18.2,18.2,0,0,0,1.962,6.5,18.972,18.972,0,0,0,13.962,10.009,19.122,19.122,0,0,0,10.347-1.289,20.528,20.528,0,0,0,4.747-2.922,19.76,19.76,0,0,0,3.786-4.31,18.821,18.821,0,0,0,2.955-8.787c.149-3.034.033-5.864.059-8.625l.005-.417-.417,0-26.957.2-7.682.114-2.018.05a3.135,3.135,0,0,0-.663.05,4.583,4.583,0,0,0,.76.052l2.1.05,7.777.114,26.679.2-.412-.412c-.042,2.731.06,5.659-.092,8.556a18.067,18.067,0,0,1-2.831,8.383,18.968,18.968,0,0,1-3.61,4.117,19.744,19.744,0,0,1-4.526,2.8,18.415,18.415,0,0,1-9.892,1.281,18.4,18.4,0,0,1-15.56-15.771c-.233-1.947-.189-3.618-.234-4.991-.038-1.319-.069-2.383-.094-3.2A9.75,9.75,0,0,0,192.278,222.144Z" transform="translate(-192.073 -221.729)" fill="#455a64"/>
              </g>
              <path id="Path_1171" data-name="Path 1171" d="M163.927,212.163h15.166s-1.507,39.486-13.818,40.007Z" transform="translate(-21.953 -93.17)" fill="#455a64"/>
            </g>
            <g id="Group_548" data-name="Group 548" transform="translate(140.922 90.253)">
              <path id="Path_1172" data-name="Path 1172" d="M168.05,195.433c0,.241,2.086.435,4.656.435s4.658-.194,4.658-.435S175.28,195,172.706,195,168.05,195.192,168.05,195.433Z" transform="translate(-168.05 -194.998)" fill="#263238"/>
            </g>
          </g>
          <g id="Group_550" data-name="Group 550" transform="translate(27.09 129.534)">
            <path id="Path_1173" data-name="Path 1173" d="M277.5,296.389a1.419,1.419,0,0,0-.4-.055c-.318-.018-.707-.044-1.18-.074l-4.546-.2-16.72-.571-24.8-.733-14.645-.4c-2.52-.109-5.165-.049-7.7-.3a22.054,22.054,0,0,1-7.468-2.2,20.553,20.553,0,0,1-6.172-4.718,14.787,14.787,0,0,1-3.6-6.54c-1.219-4.872-1.061-9.81-1.093-14.468-.033-9.324-.064-17.726-.089-24.814-.057-7.005-.1-12.7-.136-16.727q-.05-2.878-.08-4.549c-.017-.476-.032-.864-.043-1.182a1.39,1.39,0,0,0-.044-.4,1.423,1.423,0,0,0-.045.4c-.012.318-.025.707-.044,1.182q-.03,1.67-.082,4.549c-.035,4.027-.084,9.721-.142,16.727-.028,7.088-.062,15.489-.1,24.814.013,4.648-.174,9.639,1.07,14.677a15.618,15.618,0,0,0,3.774,6.9,21.373,21.373,0,0,0,6.431,4.924,22.885,22.885,0,0,0,7.76,2.28c2.687.254,5.226.182,7.779.288l14.647.352,24.805.548,16.727.293,4.549.035,1.184-.012A1.4,1.4,0,0,0,277.5,296.389Z" transform="translate(-188.365 -218.459)" fill="#455a64"/>
          </g>
        </g>
      </g>
    </g>
    <g id="Leafs" transform="translate(1314.799 690.37)">
      <g id="Floor" transform="translate(0 136.513)">
        <g id="Group_561" data-name="Group 561">
          <path id="Path_1182" data-name="Path 1182" d="M27.558,472.238s.325-.039.963-.142l2.844-.48,11.1-1.931,42.23-7.461.079-.013.051-.061,43.73-52.05-.235.11,56.633.048-.282-.142L211.981,446.4l.084.109.134.032,28.546,6.729-.174-.09L278.974,488l.118.106h.158c26.236,0,53.563.006,81.577.008,107.933-.047,205.63-.09,276.364-.122l83.748-.132c9.877-.036,17.548-.061,22.77-.079l5.921-.042c1.334-.015,2.018-.044,2.018-.044s-.685-.029-2.018-.043c-1.35-.008-3.329-.023-5.921-.04l-22.77-.079-83.748-.134c-70.734-.032-168.431-.076-276.364-.122-28.014,0-55.341.006-81.577.008l.275.106L241.1,452.6l-.076-.069-.1-.023L212.374,445.8l.216.142c-9.506-12.6-18.668-24.738-27.356-36.253l-.106-.142h-.177l-56.633.048h-.143l-.092.109-43.6,52.163.129-.074-42.193,7.664L31.345,471.5l-2.833.538C27.877,472.16,27.558,472.238,27.558,472.238Z" transform="translate(-27.558 -409.547)" fill="#263238"/>
        </g>
      </g>
      <g id="Plant" transform="translate(241.964 0)">
        <g id="Group_609" data-name="Group 609" transform="translate(311.832)">
          <g id="Group_568" data-name="Group 568" transform="translate(0)">
            <g id="Group_567" data-name="Group 567">
              <g id="Group_566" data-name="Group 566">
                <g id="Group_565" data-name="Group 565">
                  <g id="Group_564" data-name="Group 564">
                    <g id="Group_563" data-name="Group 563">
                      <g id="Group_562" data-name="Group 562">
                        <path id="Path_1183" data-name="Path 1183" d="M69.474,536.631C38.269,515.8,30.652,476.4,31.319,440.862c.111-5.934-.644-12.175,2.131-17.418s9.389-8.9,14.807-6.481c4.492,2.005,6.517,7.1,9.079,11.3a35,35,0,0,0,14.295,13.071c3.856,1.9,8.606,3.028,12.351.917,5.14-2.9,5.639-9.972,5.51-15.872q-.36-16.48-.722-32.964c-.129-5.9-.242-11.916,1.532-17.54s5.794-10.885,11.453-12.541,12.739,1.474,14.029,7.227c.536,2.4.079,4.895.282,7.34s1.4,5.137,3.771,5.786c2.393.654,4.758-1.055,6.518-2.806,6.074-6.047,10.139-13.778,13.931-21.465s7.467-15.548,12.961-22.126,13.154-11.84,21.7-12.446,17.746,4.471,20.038,12.729c2.3,8.279-2.487,16.786-7.728,23.6A132.471,132.471,0,0,1,159.9,387.7c-1.864,1.347-3.883,2.8-4.571,5-1.234,3.949,2.6,7.8,6.552,9.033,4.478,1.4,9.3.868,13.968,1.34s9.746,2.424,11.578,6.742c2.54,5.993-2.469,12.385-7.43,16.6a114.6,114.6,0,0,1-33.513,19.768c-4.37,1.654-8.973,3.115-12.47,6.216s-5.552,8.432-3.349,12.552,7.725,5.373,12.315,4.462,8.673-3.439,13.035-5.138c8.163-3.181,18.774-2.78,24.142,4.144,3.527,4.55,3.932,10.957,2.268,16.471s-5.132,10.292-8.83,14.707c-12.921,15.435-29.577,27.953-48.521,34.755s-36.567,8.831-55.6,2.282" transform="translate(-31.28 -324.792)" fill="#83bd44"/>
                      </g>
                    </g>
                  </g>
                </g>
              </g>
            </g>
          </g>
          <g id="Group_576" data-name="Group 576" transform="translate(40.643 4.818)">
            <g id="Group_575" data-name="Group 575">
              <g id="Group_574" data-name="Group 574">
                <g id="Group_573" data-name="Group 573">
                  <g id="Group_572" data-name="Group 572">
                    <g id="Group_571" data-name="Group 571">
                      <g id="Group_570" data-name="Group 570">
                        <g id="Group_569" data-name="Group 569">
                          <path id="Path_1184" data-name="Path 1184" d="M37.084,535.489c5.022-18,18.768-60.339,26.955-80.255q3.1-7.453,6.121-14.722c2.018-4.829,4.019-9.612,6.269-14.174a263.753,263.753,0,0,1,14.449-25.484c5-7.887,10.026-15.192,14.781-21.994s9.334-13.037,13.742-18.555a211.613,211.613,0,0,1,22.728-24.5c2.9-2.677,5.222-4.681,6.81-6.022.775-.644,1.377-1.147,1.815-1.512.412-.337.638-.493.638-.493s-.185.2-.578.562l-1.757,1.578c-1.548,1.384-3.829,3.428-6.691,6.14A221.139,221.139,0,0,0,119.893,360.7c-4.365,5.529-8.893,11.787-13.631,18.587-4.722,6.813-9.724,14.126-14.689,22.01A264.828,264.828,0,0,0,77.212,426.72c-2.234,4.544-4.217,9.3-6.237,14.135s-4.048,9.749-6.113,14.717c-8.182,19.9-21.937,62.2-26.988,80.141" transform="translate(-37.084 -327.783)" fill="#263238"/>
                        </g>
                      </g>
                    </g>
                  </g>
                </g>
              </g>
            </g>
          </g>
          <g id="Group_584" data-name="Group 584" transform="translate(70.464 38.539)">
            <g id="Group_583" data-name="Group 583" transform="translate(0)">
              <g id="Group_582" data-name="Group 582">
                <g id="Group_581" data-name="Group 581">
                  <g id="Group_580" data-name="Group 580">
                    <g id="Group_579" data-name="Group 579">
                      <g id="Group_578" data-name="Group 578">
                        <g id="Group_577" data-name="Group 577">
                          <path id="Path_1185" data-name="Path 1185" d="M93.221,413.462a14.1,14.1,0,0,1-.583-2.513c-.325-1.627-.728-3.994-1.184-6.924-.918-5.861-1.92-14-3-22.967s-2.223-17.076-3.266-22.9c-.512-2.915-.957-5.27-1.287-6.892a14.187,14.187,0,0,1-.411-2.546,14.438,14.438,0,0,1,.749,2.469c.435,1.6.974,3.943,1.567,6.852,1.206,5.811,2.448,13.924,3.532,22.909,1.06,8.9,2.02,16.946,2.74,22.989.364,2.812.668,5.151.9,6.957A14.162,14.162,0,0,1,93.221,413.462Z" transform="translate(-83.476 -348.719)" fill="#263238"/>
                        </g>
                      </g>
                    </g>
                  </g>
                </g>
              </g>
            </g>
          </g>
          <g id="Group_592" data-name="Group 592" transform="translate(80.209 87.927)">
            <g id="Group_591" data-name="Group 591">
              <g id="Group_590" data-name="Group 590">
                <g id="Group_589" data-name="Group 589">
                  <g id="Group_588" data-name="Group 588">
                    <g id="Group_587" data-name="Group 587">
                      <g id="Group_586" data-name="Group 586">
                        <g id="Group_585" data-name="Group 585">
                          <path id="Path_1186" data-name="Path 1186" d="M112.528,379.422a2.828,2.828,0,0,1-.789.14l-2.271.229c-1.971.188-4.822.456-8.334.9-7.026.834-16.693,2.34-27.28,4.473-10.587,2.152-20.08,4.513-26.893,6.428-3.415.934-6.156,1.765-8.053,2.332l-2.189.644a2.675,2.675,0,0,1-.784.166,2.757,2.757,0,0,1,.726-.337l2.139-.8c1.865-.668,4.586-1.6,7.984-2.609,6.784-2.073,16.282-4.537,26.9-6.7,10.611-2.137,20.322-3.548,27.386-4.225,3.529-.367,6.4-.541,8.379-.623l2.284-.063A2.75,2.75,0,0,1,112.528,379.422Z" transform="translate(-35.934 -379.382)" fill="#263238"/>
                        </g>
                      </g>
                    </g>
                  </g>
                </g>
              </g>
            </g>
          </g>
          <g id="Group_600" data-name="Group 600" transform="translate(7.875 91.778)">
            <g id="Group_599" data-name="Group 599">
              <g id="Group_598" data-name="Group 598">
                <g id="Group_597" data-name="Group 597">
                  <g id="Group_596" data-name="Group 596">
                    <g id="Group_595" data-name="Group 595">
                      <g id="Group_594" data-name="Group 594">
                        <g id="Group_593" data-name="Group 593">
                          <path id="Path_1187" data-name="Path 1187" d="M143.631,478.019a4.571,4.571,0,0,1-.522-.924c-.348-.71-.792-1.614-1.34-2.73-1.155-2.374-2.743-5.852-4.652-10.171-3.824-8.635-8.738-20.723-13.99-34.132s-10.072-25.523-13.744-34.212c-1.818-4.26-3.307-7.744-4.387-10.276-.486-1.144-.879-2.071-1.187-2.8a4.825,4.825,0,0,1-.359-1,4.837,4.837,0,0,1,.522.926c.348.709.791,1.614,1.34,2.73,1.155,2.374,2.741,5.852,4.65,10.17,3.825,8.636,8.739,20.725,13.993,34.137s10.07,25.518,13.741,34.209c1.82,4.259,3.308,7.744,4.389,10.276.486,1.143.878,2.071,1.187,2.8A4.806,4.806,0,0,1,143.631,478.019Z" transform="translate(-103.446 -381.773)" fill="#263238"/>
                        </g>
                      </g>
                    </g>
                  </g>
                </g>
              </g>
            </g>
          </g>
          <g id="Group_608" data-name="Group 608" transform="translate(48.06 154.028)">
            <g id="Group_607" data-name="Group 607">
              <g id="Group_606" data-name="Group 606">
                <g id="Group_605" data-name="Group 605">
                  <g id="Group_604" data-name="Group 604">
                    <g id="Group_603" data-name="Group 603">
                      <g id="Group_602" data-name="Group 602">
                        <g id="Group_601" data-name="Group 601">
                          <path id="Path_1188" data-name="Path 1188" d="M141.956,420.427a5.2,5.2,0,0,1-1.012.408l-2.956,1.005c-2.679.894-6.372,2.124-10.888,3.629-9.187,3.075-21.826,7.477-35.779,12.373s-26.639,9.211-35.884,12.133c-4.623,1.466-8.372,2.614-10.978,3.36l-3,.847a4.858,4.858,0,0,1-1.066.235,5.142,5.142,0,0,1,1.013-.408c.763-.261,1.743-.594,2.954-1.005l10.887-3.627C64.432,446.3,77.071,441.9,91.029,437s26.634-9.208,35.876-12.131c4.624-1.463,8.374-2.613,10.98-3.36,1.232-.346,2.228-.627,3.006-.847A4.862,4.862,0,0,1,141.956,420.427Z" transform="translate(-40.389 -420.421)" fill="#263238"/>
                        </g>
                      </g>
                    </g>
                  </g>
                </g>
              </g>
            </g>
          </g>
        </g>
        <g id="Group_655" data-name="Group 655" transform="translate(0 121.815)">
          <g id="Group_616" data-name="Group 616" transform="translate(14.903)">
            <g id="Group_615" data-name="Group 615">
              <g id="Group_614" data-name="Group 614">
                <g id="Group_613" data-name="Group 613">
                  <g id="Group_612" data-name="Group 612">
                    <g id="Group_611" data-name="Group 611">
                      <g id="Group_610" data-name="Group 610">
                        <path id="Path_1189" data-name="Path 1189" d="M322.46,438.418c-2.59,3.626-7.546,2.369-9.828.119s-3.223-5.489-4.08-8.577c-1.957-7.055-3.927-14.456-2.352-21.606a11.993,11.993,0,0,1,2.812-5.84,6.263,6.263,0,0,1,5.955-1.918c2.5.686,4.032,3.154,5.133,5.5a51.445,51.445,0,0,1,4.871,22.127c-.021,3.555-.477,7.28-2.511,10.2" transform="translate(-305.627 -400.422)" fill="#dabe6b"/>
                      </g>
                    </g>
                  </g>
                </g>
              </g>
            </g>
          </g>
          <g id="Group_623" data-name="Group 623" transform="translate(0 54.241)">
            <g id="Group_622" data-name="Group 622">
              <g id="Group_621" data-name="Group 621">
                <g id="Group_620" data-name="Group 620">
                  <g id="Group_619" data-name="Group 619">
                    <g id="Group_618" data-name="Group 618">
                      <g id="Group_617" data-name="Group 617">
                        <path id="Path_1190" data-name="Path 1190" d="M332.167,436.245c-4.159-2.2-9.078-2.525-13.725-1.8-2.5.388-5.1,1.108-6.818,2.965s-2.066,5.148-.135,6.774a6.5,6.5,0,0,0,4.27,1.127c3.632-.006,7.668-.607,10.55,1.606,1.643,1.263,2.725,3.345,4.7,3.978a4.681,4.681,0,0,0,5.172-2.24,8,8,0,0,0,.639-5.9A9.017,9.017,0,0,0,332.167,436.245Z" transform="translate(-310.183 -434.098)" fill="#dabe6b"/>
                      </g>
                    </g>
                  </g>
                </g>
              </g>
            </g>
          </g>
          <g id="Group_630" data-name="Group 630" transform="translate(36.083 12.123)">
            <g id="Group_629" data-name="Group 629">
              <g id="Group_628" data-name="Group 628">
                <g id="Group_627" data-name="Group 627">
                  <g id="Group_626" data-name="Group 626">
                    <g id="Group_625" data-name="Group 625">
                      <g id="Group_624" data-name="Group 624">
                        <path id="Path_1191" data-name="Path 1191" d="M287.052,439.127c-2.743-3.321-3.223-8.129-1.949-12.243a23.556,23.556,0,0,1,7.34-10.431,38.969,38.969,0,0,1,13.037-7.523,13.817,13.817,0,0,1,5.839-.934A6.119,6.119,0,0,1,316.183,411c1.34,2.616,0,5.758-1.438,8.319a98.868,98.868,0,0,1-8.64,12.884c-2.584,3.265-5.537,6.483-9.442,7.931s-7.942,1.235-9.977-1.48" transform="translate(-284.432 -407.948)" fill="#dabe6b"/>
                      </g>
                    </g>
                  </g>
                </g>
              </g>
            </g>
          </g>
          <g id="Group_638" data-name="Group 638" transform="translate(12.627 59.315)">
            <g id="Group_637" data-name="Group 637">
              <g id="Group_636" data-name="Group 636">
                <g id="Group_635" data-name="Group 635">
                  <g id="Group_634" data-name="Group 634">
                    <g id="Group_633" data-name="Group 633">
                      <g id="Group_632" data-name="Group 632">
                        <g id="Group_631" data-name="Group 631">
                          <path id="Path_1192" data-name="Path 1192" d="M326.126,470.992a7.859,7.859,0,0,1-.216-1.661c-.106-1.21-.238-2.727-.4-4.531a65.442,65.442,0,0,0-.955-6.649,51.08,51.08,0,0,0-2.337-7.86,28.827,28.827,0,0,0-3.933-7.129,14.929,14.929,0,0,0-5.017-4.254,14.082,14.082,0,0,0-4.247-1.367,7.95,7.95,0,0,1-1.649-.256,7.879,7.879,0,0,1,1.68-.01,12.884,12.884,0,0,1,4.431,1.2,14.905,14.905,0,0,1,5.3,4.292,28.192,28.192,0,0,1,4.078,7.274,47.931,47.931,0,0,1,2.319,7.987A55.753,55.753,0,0,1,326,464.76c.126,1.923.166,3.481.182,4.557A7.825,7.825,0,0,1,326.126,470.992Z" transform="translate(-307.375 -437.248)" fill="#263238"/>
                        </g>
                      </g>
                    </g>
                  </g>
                </g>
              </g>
            </g>
          </g>
          <g id="Group_646" data-name="Group 646" transform="translate(23.342 14.672)">
            <g id="Group_645" data-name="Group 645">
              <g id="Group_644" data-name="Group 644">
                <g id="Group_643" data-name="Group 643">
                  <g id="Group_642" data-name="Group 642">
                    <g id="Group_641" data-name="Group 641">
                      <g id="Group_640" data-name="Group 640">
                        <g id="Group_639" data-name="Group 639">
                          <path id="Path_1193" data-name="Path 1193" d="M315.057,484.431a3.24,3.24,0,0,1-.037-.77c.006-.578.016-1.306.027-2.2.024-1.91.048-4.674-.021-8.087-.1-6.828-.6-16.256-1.635-26.624s-2.469-19.7-3.787-26.4c-.309-1.68-.625-3.191-.921-4.515s-.523-2.469-.757-3.4c-.2-.871-.364-1.582-.495-2.144a3.363,3.363,0,0,1-.127-.76,3.169,3.169,0,0,1,.261.723l.619,2.115c.274.918.554,2.054.873,3.376s.681,2.827,1.023,4.5a249.755,249.755,0,0,1,3.993,26.431c1.037,10.39,1.459,19.845,1.438,26.689.008,3.421-.092,6.191-.2,8.1-.063.892-.114,1.62-.156,2.2A3.154,3.154,0,0,1,315.057,484.431Z" transform="translate(-307.299 -409.531)" fill="#263238"/>
                        </g>
                      </g>
                    </g>
                  </g>
                </g>
              </g>
            </g>
          </g>
          <g id="Group_654" data-name="Group 654" transform="translate(31.202 20.561)">
            <g id="Group_653" data-name="Group 653">
              <g id="Group_652" data-name="Group 652">
                <g id="Group_651" data-name="Group 651">
                  <g id="Group_650" data-name="Group 650">
                    <g id="Group_649" data-name="Group 649">
                      <g id="Group_648" data-name="Group 648">
                        <g id="Group_647" data-name="Group 647">
                          <path id="Path_1194" data-name="Path 1194" d="M292.086,463.971a14.448,14.448,0,0,1,.037-2.3c.1-1.477.324-3.609.765-6.222A82.131,82.131,0,0,1,295,446.4a80.373,80.373,0,0,1,3.9-10.7,57.232,57.232,0,0,1,11.312-17.246,28.551,28.551,0,0,1,2.645-2.411c.406-.337.765-.672,1.129-.937q.551-.37,1.024-.691a14.541,14.541,0,0,1,1.947-1.219,68.529,68.529,0,0,0-6.4,5.6,60.282,60.282,0,0,0-11.031,17.186,85.322,85.322,0,0,0-3.919,10.6c-1.028,3.325-1.719,6.386-2.244,8.965-.5,2.584-.794,4.7-.974,6.158A14.725,14.725,0,0,1,292.086,463.971Z" transform="translate(-292.058 -413.187)" fill="#263238"/>
                        </g>
                      </g>
                    </g>
                  </g>
                </g>
              </g>
            </g>
          </g>
        </g>
        <g id="Group_689" data-name="Group 689" transform="translate(287.559 93.235)">
          <g id="Group_659" data-name="Group 659" transform="translate(0)">
            <g id="Group_658" data-name="Group 658">
              <g id="Group_657" data-name="Group 657">
                <g id="Group_656" data-name="Group 656">
                  <path id="Path_1195" data-name="Path 1195" d="M164.172,472.536c12.826-10.55,14.52-28.393,12.739-44.171-.3-2.633-.225-5.441-1.664-7.659s-4.494-3.571-6.771-2.273c-1.888,1.078-2.564,3.426-3.513,5.4a15.481,15.481,0,0,1-5.728,6.4c-1.614,1.005-3.651,1.7-5.384.918-2.376-1.078-2.893-4.2-3.083-6.832l-1.063-14.693a24.541,24.541,0,0,0-1.406-7.738c-1.013-2.429-3-4.6-5.554-5.106s-5.529,1.181-5.856,3.793a24.394,24.394,0,0,0,.184,3.276,2.771,2.771,0,0,1-1.413,2.727c-1.024.39-2.132-.271-2.978-.979-2.92-2.439-5.029-5.71-7.014-8.971s-3.928-6.61-6.617-9.308S112.78,382.6,109,382.68s-7.6,2.721-8.264,6.488,1.794,7.366,4.381,10.178a58.8,58.8,0,0,0,13.121,10.675,4.836,4.836,0,0,1,2.215,2.034c.709,1.707-.813,3.576-2.5,4.288-1.907.805-4.048.77-6.077,1.173s-4.176,1.48-4.8,3.476c-.865,2.769,1.6,5.407,3.956,7.076a50.386,50.386,0,0,0,15.538,7.412,17,17,0,0,1,5.736,2.248c1.664,1.235,2.79,3.523,1.994,5.446s-3.165,2.709-5.219,2.492-3.951-1.171-5.937-1.748c-3.716-1.079-8.358-.462-10.424,2.838a8.339,8.339,0,0,0-.308,7.42,19.234,19.234,0,0,0,4.492,6.177,50.646,50.646,0,0,0,22.757,13.459c8.6,2.245,16.421,2.421,24.5-1.276" transform="translate(-100.63 -382.677)" fill="#699f2f"/>
                </g>
              </g>
            </g>
          </g>
          <g id="Group_668" data-name="Group 668" transform="translate(3.62 2.589)">
            <g id="Group_667" data-name="Group 667">
              <g id="Group_666" data-name="Group 666">
                <g id="Group_665" data-name="Group 665">
                  <g id="Group_664" data-name="Group 664">
                    <path id="Path_1197" data-name="Path 1197" d="M107.417,384.285a1.986,1.986,0,0,0,.274.23c.208.156.485.367.834.633.736.554,1.822,1.372,3.191,2.463A98.984,98.984,0,0,1,122.6,397.651c2.145,2.279,4.392,4.877,6.755,7.707s4.859,5.884,7.367,9.184a119.537,119.537,0,0,1,7.362,10.716c1.171,1.928,2.239,3.959,3.328,6.029s2.186,4.17,3.3,6.294a242.168,242.168,0,0,1,11.347,24.539,117.62,117.62,0,0,1,6.072,21.208,86.066,86.066,0,0,1,1.413,14.815c0,1.759-.026,3.126-.077,4.052-.016.443-.031.791-.039,1.053a2.107,2.107,0,0,0,0,.361,1.783,1.783,0,0,0,.047-.358c.021-.259.052-.609.089-1.05.082-.926.14-2.293.169-4.059a82.358,82.358,0,0,0-1.266-14.876,115.543,115.543,0,0,0-5.993-21.309,236.041,236.041,0,0,0-11.334-24.6q-1.674-3.189-3.3-6.3c-1.089-2.065-2.168-4.112-3.347-6.048a117.982,117.982,0,0,0-7.416-10.743c-2.526-3.3-5.04-6.344-7.412-9.171s-4.648-5.413-6.816-7.685a93.318,93.318,0,0,0-11.017-9.951c-1.387-1.069-2.49-1.864-3.245-2.39l-.863-.6A2.046,2.046,0,0,0,107.417,384.285Z" transform="translate(-107.417 -384.285)" fill="#263238"/>
                  </g>
                </g>
              </g>
            </g>
          </g>
          <g id="Group_673" data-name="Group 673" transform="translate(40.523 14.107)">
            <g id="Group_672" data-name="Group 672" transform="translate(0)">
              <g id="Group_671" data-name="Group 671">
                <g id="Group_670" data-name="Group 670">
                  <g id="Group_669" data-name="Group 669">
                    <path id="Path_1198" data-name="Path 1198" d="M122.23,420.634a5.262,5.262,0,0,0,.169-1.142c.081-.736.163-1.806.243-3.128.166-2.645.271-6.3.37-10.339s.254-7.685.461-10.32c.1-1.318.19-2.382.262-3.118a5.229,5.229,0,0,0,.056-1.152,5.227,5.227,0,0,0-.243,1.126c-.13.73-.274,1.794-.416,3.112-.295,2.635-.506,6.3-.606,10.337-.087,3.982-.167,7.585-.227,10.337-.035,1.243-.066,2.29-.09,3.131A5.255,5.255,0,0,0,122.23,420.634Z" transform="translate(-122.199 -391.436)" fill="#263238"/>
                  </g>
                </g>
              </g>
            </g>
          </g>
          <g id="Group_678" data-name="Group 678" transform="translate(6.288 39.429)">
            <g id="Group_677" data-name="Group 677">
              <g id="Group_676" data-name="Group 676">
                <g id="Group_675" data-name="Group 675">
                  <g id="Group_674" data-name="Group 674">
                    <path id="Path_1199" data-name="Path 1199" d="M123.179,407.378a7.283,7.283,0,0,0,1.361.055c.871.01,2.134.016,3.693.074,3.12.09,7.424.366,12.159.88s9,1.174,12.074,1.736c1.54.271,2.778.522,3.635.691a7.425,7.425,0,0,0,1.343.221,7.238,7.238,0,0,0-1.3-.408c-.847-.225-2.078-.53-3.613-.846-3.063-.651-7.337-1.361-12.086-1.885a119.772,119.772,0,0,0-12.2-.736c-1.566-.015-2.832.032-3.706.082A7.41,7.41,0,0,0,123.179,407.378Z" transform="translate(-123.179 -407.157)" fill="#263238"/>
                  </g>
                </g>
              </g>
            </g>
          </g>
          <g id="Group_683" data-name="Group 683" transform="translate(58.211 35.207)">
            <g id="Group_682" data-name="Group 682" transform="translate(0)">
              <g id="Group_681" data-name="Group 681">
                <g id="Group_680" data-name="Group 680">
                  <g id="Group_679" data-name="Group 679">
                    <path id="Path_1200" data-name="Path 1200" d="M103.765,449a1.75,1.75,0,0,0,.2-.43c.129-.343.288-.76.48-1.268.414-1.1.97-2.712,1.632-4.711,1.324-4,2.981-9.574,4.726-15.754s3.349-11.769,4.587-15.788l1.482-4.755c.159-.519.29-.947.4-1.3a1.777,1.777,0,0,0,.108-.464,1.786,1.786,0,0,0-.2.43c-.13.343-.288.76-.482,1.268-.412,1.1-.97,2.712-1.63,4.711-1.326,4-2.981,9.574-4.727,15.757s-3.347,11.766-4.587,15.785l-1.482,4.755c-.158.519-.288.947-.4,1.3A1.734,1.734,0,0,0,103.765,449Z" transform="translate(-103.762 -404.536)" fill="#263238"/>
                  </g>
                </g>
              </g>
            </g>
          </g>
          <g id="Group_688" data-name="Group 688" transform="translate(12.204 68.734)">
            <g id="Group_687" data-name="Group 687">
              <g id="Group_686" data-name="Group 686">
                <g id="Group_685" data-name="Group 685">
                  <g id="Group_684" data-name="Group 684">
                    <path id="Path_1201" data-name="Path 1201" d="M112.214,425.357a1.8,1.8,0,0,0,.459.148l1.338.335,4.927,1.179c4.16,1,9.891,2.438,16.223,4.041s12.082,3,16.263,3.906c2.092.456,3.787.809,4.964,1.028.544.1.992.177,1.356.245a1.818,1.818,0,0,0,.48.052,1.853,1.853,0,0,0-.461-.15c-.359-.089-.8-.2-1.337-.333-1.234-.3-2.9-.694-4.927-1.179-4.16-1-9.893-2.44-16.224-4.043s-12.078-2.994-16.261-3.9c-2.091-.456-3.787-.809-4.964-1.028l-1.356-.245A1.819,1.819,0,0,0,112.214,425.357Z" transform="translate(-112.214 -425.351)" fill="#263238"/>
                  </g>
                </g>
              </g>
            </g>
          </g>
        </g>
      </g>
    </g>
  </g>
</svg>
