<svg xmlns="http://www.w3.org/2000/svg" width="1200.779" height="1181.153" viewBox="0 0 1200.779 1181.153">
  <g id="Enjoy" transform="translate(-181.604 -59.425)">
    <g id="Starts" transform="translate(331.836 70.375)">
      <path id="Path_1372" data-name="Path 1372" d="M520.725,66.432l7.15,3.741-7.007,4-3.741,7.15-4-7.007-7.15-3.741,7.007-4,3.741-7.15Z" transform="translate(254.419 -70.375)" fill="#263238"/>
      <path id="Path_1373" data-name="Path 1373" d="M244.289,174.981l7.15,3.741-7.007,4-3.741,7.15-4-7.007-7.15-3.741,7.007-4,3.741-7.15Z" transform="translate(-251.439 128.261)" fill="#263238"/>
      <path id="Path_1374" data-name="Path 1374" d="M282.7,204.544l7.15,3.741-7.007,4-3.741,7.15-4-7.007-7.15-3.741,7.007-4,3.741-7.15Z" transform="translate(-181.152 182.359)" fill="#dabe6b"/>
      <path id="Path_1375" data-name="Path 1375" d="M506.592,118.417l7.15,3.741-7.007,4-3.741,7.15-4-7.007-7.15-3.741,7.007-4,3.741-7.15Z" transform="translate(228.556 24.753)" fill="#dabe6b"/>
      <path id="Path_1376" data-name="Path 1376" d="M329.735,120.12l3.575,1.871-3.5,2-1.871,3.575-2-3.5-3.575-1.871,3.5-2,1.871-3.575Z" transform="translate(-81.582 34.28)" fill="#dabe6b"/>
      <path id="Path_1377" data-name="Path 1377" d="M244.652,118.185l3.575,1.87-3.5,2-1.871,3.575-2-3.5-3.575-1.87,3.5-2,1.871-3.575Z" transform="translate(-237.277 30.74)" fill="#263238"/>
      <path id="Path_1378" data-name="Path 1378" d="M370.981,66.8l3.575,1.871-3.5,2-1.87,3.575-2-3.5-3.575-1.871,3.5-2,1.871-3.575Z" transform="translate(-6.106 -63.294)" fill="#dabe6b"/>
      <path id="Path_1379" data-name="Path 1379" d="M593.263,131.282l3.575,1.87-3.5,2-1.87,3.575-2-3.5-3.575-1.87,3.5-2,1.87-3.575Z" transform="translate(400.653 54.705)" fill="#dabe6b"/>
      <path id="Path_1380" data-name="Path 1380" d="M536.442,199.7l3.575,1.87-3.5,2-1.87,3.575-2-3.5-3.575-1.87,3.5-2,1.87-3.575Z" transform="translate(296.675 179.902)" fill="#dabe6b"/>
    </g>
    <g id="Moon" transform="translate(779.891 172.161)">
      <path id="Path_1381" data-name="Path 1381" d="M533.988,279.972a113.546,113.546,0,0,1-91.7-180.71A113.6,113.6,0,1,0,601,257.978,113.037,113.037,0,0,1,533.988,279.972Z" transform="translate(-395.605 -99.262)" fill="#454f6b"/>
    </g>
    <g id="Trunk" transform="translate(185.604 588.482)">
      <g id="Group_1161" data-name="Group 1161">
        <g id="Group_1065" data-name="Group 1065" transform="translate(-4 262.969)">
          <g id="Group_1052" data-name="Group 1052" transform="translate(79.454 144.578)">
            <path id="Path_1382" data-name="Path 1382" d="M228.848,538.215c-1.808-7.174,2.929-14.339,8.224-19.507s11.62-9.789,14.4-16.648c4.5-11.107-1.384-25.56,6.243-34.808,4.485-5.439,12.486-7.222,16.473-13.04,2.091-3.048,2.785-6.809,3.619-10.411a105.978,105.978,0,0,1,26.638-49.17A91.945,91.945,0,0,1,293.832,442.1c-3.1,5.824-6.9,11.5-7.952,18.01-1.709,10.578,4.135,21.516,1.477,31.893-3.042,11.871-16.439,19.75-17.141,31.984-.594,10.341,8.371,19.473,7.638,29.8-.311,4.4-2.377,8.476-4.672,12.242-8.074,13.252-19.875,22.345-37.683,21.946l-21.819.64Z" transform="translate(-213.68 -394.63)" fill="#5a8f1f"/>
          </g>
          <g id="Group_1054" data-name="Group 1054" transform="translate(79.454 144.578)" opacity="0.3">
            <g id="Group_1053" data-name="Group 1053">
              <path id="Path_1383" data-name="Path 1383" d="M228.848,538.215c-1.808-7.174,2.929-14.339,8.224-19.507s11.62-9.789,14.4-16.648c4.5-11.107-1.384-25.56,6.243-34.808,4.485-5.439,12.486-7.222,16.473-13.04,2.091-3.048,2.785-6.809,3.619-10.411a105.978,105.978,0,0,1,26.638-49.17A91.945,91.945,0,0,1,293.832,442.1c-3.1,5.824-6.9,11.5-7.952,18.01C284.171,470.69,287.357,492,287.357,492s-16.439,19.75-17.141,31.984c-.594,10.341,8.371,19.473,7.638,29.8-.311,4.4-2.377,8.476-4.672,12.242-8.074,13.252-19.875,22.345-37.683,21.946l-21.819.64Z" transform="translate(-213.68 -394.63)" fill="#699f2f"/>
            </g>
          </g>
          <g id="Group_1064" data-name="Group 1064">
            <g id="Group_1059" data-name="Group 1059" transform="translate(0 68.295)">
              <g id="Group_1056" data-name="Group 1056">
                <g id="Group_1055" data-name="Group 1055">
                  <path id="Path_1384" data-name="Path 1384" d="M260.436,638.1a17.4,17.4,0,0,1-6.005-.164,36.457,36.457,0,0,1-7.078-1.825,29.95,29.95,0,0,1-8.727-4.845,12.171,12.171,0,0,1-3.574-4.819,22.5,22.5,0,0,1-.99-6.523,63.452,63.452,0,0,0-.47-7.058,19.472,19.472,0,0,0-2.623-7.032c-2.55-4.531-6.795-8.832-8.139-14.976-1.46-6.042-.351-12.565.7-19.119,1.05-6.537,2.072-13.666-.393-20.494-2.3-6.837-7.049-13.023-9.4-20.726-2.338-7.782-1.18-16.131-1.636-24.374a32.332,32.332,0,0,0-2.776-12.129c-1.74-3.871-4.168-7.528-6.059-11.6-3.823-8.241-4.454-17.557-5.462-26.692q-.734-6.9-1.486-13.949c-.492-4.717-.886-9.418-2.346-13.963a123.281,123.281,0,0,0-5.139-13.533,44.694,44.694,0,0,1-2.493-7.063,71.112,71.112,0,0,1-.662-7.508,88.511,88.511,0,0,1,.668-15.095c.623-5.032,1.556-10.018,2.128-15.061l.1-.869.119-1,.891.453a33.661,33.661,0,0,1,11.685,9.978,53.365,53.365,0,0,1,7.14,13.337c3.591,9.392,4.848,19.221,6.633,28.6,1.738,9.381,4.05,18.615,8.812,26.434,2.369,3.9,5.241,7.46,7.748,11.266,2.5,3.775,4.7,7.921,5.343,12.463,1.24,9.234-3.891,17.311-2.878,25.489a28.289,28.289,0,0,0,3.914,11.342c1.961,3.5,4.27,6.741,6.461,10a63.737,63.737,0,0,1,5.8,10.1,31.853,31.853,0,0,1,2.62,10.952c.49,7.361-.594,14.334-.093,20.924.4,6.6,2.688,12.6,5.281,17.959,2.609,5.382,5.516,10.25,7.949,14.97a76.76,76.76,0,0,1,3.266,6.973,33.855,33.855,0,0,1,1.876,6.905,43.53,43.53,0,0,1,.091,12.455c-.991,7.465-3.809,12.831-6.331,15.842a15.188,15.188,0,0,1-1.777,1.9,8.776,8.776,0,0,1-1.438,1.208c-.818.594-1.254.866-1.254.866a27.463,27.463,0,0,0,4.248-4.154c2.42-3.025,5.116-8.351,6.011-15.737a43.245,43.245,0,0,0-.207-12.271,33.75,33.75,0,0,0-1.89-6.747c-.917-2.255-2.057-4.545-3.288-6.877-2.454-4.681-5.391-9.531-8.057-14.948-2.643-5.388-5.017-11.5-5.467-18.276-.535-6.732.518-13.728,0-20.916a30.749,30.749,0,0,0-2.57-10.584,63.147,63.147,0,0,0-5.733-9.9c-2.188-3.237-4.525-6.5-6.543-10.066a29.462,29.462,0,0,1-4.095-11.809c-1-8.708,4.089-16.838,2.827-25.424-.606-4.248-2.694-8.212-5.162-11.922-2.471-3.733-5.357-7.3-7.8-11.3-4.913-8.043-7.262-17.452-9.019-26.873-1.8-9.441-3.059-19.167-6.585-28.367a52.128,52.128,0,0,0-6.953-12.987,32.283,32.283,0,0,0-11.2-9.565l1.007-.552c-.031.277-.068.577-.1.877-.577,5.1-1.517,10.1-2.131,15.069a86.83,86.83,0,0,0-.662,14.868,70.955,70.955,0,0,0,.628,7.281,44.267,44.267,0,0,0,2.408,6.814,123.955,123.955,0,0,1,5.182,13.68c1.491,4.655,1.9,9.534,2.377,14.195q.739,7.047,1.466,13.957c.99,9.175,1.622,18.341,5.306,26.3,1.82,3.959,4.245,7.627,6.036,11.625a33.539,33.539,0,0,1,2.853,12.576c.427,8.422-.713,16.643,1.523,24.114,2.219,7.434,6.942,13.654,9.308,20.706,2.533,7.129,1.423,14.489.345,21-1.09,6.563-2.185,12.95-.812,18.757,1.228,5.867,5.351,10.128,7.952,14.789a20.2,20.2,0,0,1,2.663,7.31,63.391,63.391,0,0,1,.419,7.146,22.031,22.031,0,0,0,.894,6.345,11.678,11.678,0,0,0,3.359,4.613,29.863,29.863,0,0,0,8.515,4.865,37.609,37.609,0,0,0,6.979,1.938,28.125,28.125,0,0,0,4.435.453C259.916,638.079,260.436,638.1,260.436,638.1Z" transform="translate(-185.604 -367.674)" fill="#263238"/>
                </g>
              </g>
              <g id="Group_1058" data-name="Group 1058" transform="translate(7.357 13.043)">
                <g id="Group_1057" data-name="Group 1057">
                  <path id="Path_1385" data-name="Path 1385" d="M188.214,372.283a2.563,2.563,0,0,1,.207.659c.125.524.28,1.169.47,1.967.419,1.721.917,4.318,1.721,7.562.838,3.237,2.8,6.905,4.463,11.422a162.906,162.906,0,0,1,5.1,15.5c1.633,5.824,3.07,12.3,4.573,19.224,1.551,6.916,3.1,14.336,6.863,21.343,1.766,3.554,3.761,7.154,5.337,11.085a51.4,51.4,0,0,1,3.068,12.537A253.392,253.392,0,0,0,224.564,500c4.273,17.9,8.343,34.952,12.05,50.477,3.795,15.474,7.219,29.414,10.1,41.17,2.807,11.645,5.085,21.108,6.7,27.784.739,3.2,1.324,5.731,1.749,7.57.173.8.308,1.452.422,1.978a2.4,2.4,0,0,1,.1.685,2.648,2.648,0,0,1-.235-.651c-.147-.518-.331-1.155-.557-1.944-.487-1.822-1.157-4.333-2.006-7.508-1.709-6.648-4.137-16.074-7.126-27.677-2.969-11.733-6.489-25.65-10.394-41.1-3.741-15.528-7.85-32.584-12.166-50.489a249.9,249.9,0,0,1-4.542-26.528,50.328,50.328,0,0,0-2.954-12.231c-1.52-3.832-3.481-7.414-5.25-11.006-3.8-7.14-5.351-14.783-6.843-21.671-1.452-6.948-2.83-13.4-4.389-19.212-1.54-5.815-3.22-11-4.876-15.485-1.579-4.5-3.472-8.21-4.256-11.555-.739-3.325-1.138-5.895-1.472-7.647-.136-.809-.246-1.466-.334-2A2.383,2.383,0,0,1,188.214,372.283Z" transform="translate(-188.203 -372.283)" fill="#263238"/>
                </g>
              </g>
            </g>
            <g id="Group_1063" data-name="Group 1063" transform="translate(56.143)">
              <g id="Group_1060" data-name="Group 1060">
                <path id="Path_1386" data-name="Path 1386" d="M220.284,682.305c-14.2-8.549-18.145-34.282-12.115-49.722s16.515-29.519,18.213-46.006c1.307-12.675-2.773-25.716.252-38.094,4.081-16.705,20.486-29.57,20.4-46.767-.051-9.647-5.487-18.757-5-28.393.6-11.821,9.732-21.148,15.412-31.531,8.694-15.893,9.367-34.737,12.409-52.6s9.964-36.962,25.854-45.655c2.255,15.188,6.189,25.6,4.819,46.156-.492,7.38-9.152,21.465-10.408,37.638-.753,9.67-1.293,19.351-1.938,29.027-.628,9.415-1.293,19-4.718,27.793-2.626,6.738-6.817,12.848-8.778,19.81-3.687,13.094.979,27.326-2.015,40.6-2.536,11.243-10.38,20.888-12.039,32.292-2.326,16.026,7.958,32.751,2.558,48.018-2.68,7.576-8.96,13.637-10.776,21.465-1.409,6.073.054,12.52-1.225,18.624-2.063,9.831-20.882,18.01-30.9,17.345" transform="translate(-205.442 -343.541)" fill="#83bd44"/>
              </g>
              <g id="Group_1062" data-name="Group 1062" transform="translate(14.834 15.041)">
                <g id="Group_1061" data-name="Group 1061">
                  <path id="Path_1387" data-name="Path 1387" d="M282.1,348.856a3.7,3.7,0,0,1-.065.857c-.088.637-.2,1.457-.337,2.49-.34,2.19-.724,5.408-1.489,9.565-.821,4.18-3,8.877-4.757,14.549-1.851,5.651-3.7,12.177-5.337,19.481-1.667,7.3-3.073,15.386-4.551,24.085-1.525,8.637-3.09,18.179-7.46,27.221-2.026,4.545-4.293,9.09-6,13.937a62.626,62.626,0,0,0-3.093,15.381,310.5,310.5,0,0,1-4.369,33.167c-4.491,22.461-8.77,43.852-12.664,63.325-4.1,19.4-7.788,36.868-10.9,51.578-3.136,14.6-5.682,26.448-7.465,34.746-.9,4.024-1.6,7.182-2.1,9.432-.241,1.013-.433,1.82-.58,2.445-.139.549-.221,1.469-.243,1.463a8.8,8.8,0,0,1,.1-1.491c.116-.634.26-1.449.444-2.476.441-2.258,1.058-5.436,1.842-9.486,1.678-8.317,4.078-20.194,7.032-34.836,3.022-14.727,6.616-32.219,10.6-51.638,3.857-19.467,8.1-40.853,12.548-63.305a314.374,314.374,0,0,0,4.381-33.062,63.8,63.8,0,0,1,3.2-15.686c1.76-4.95,4.061-9.514,6.087-14.022,4.344-8.906,5.906-18.227,7.491-26.893,1.525-8.685,2.994-16.79,4.732-24.105,1.709-7.321,3.628-13.858,5.558-19.509,1.842-5.688,4.092-10.346,4.969-14.418.835-4.081,1.316-7.33,1.743-9.492.2-1.024.351-1.837.473-2.468A4,4,0,0,1,282.1,348.856Z" transform="translate(-210.684 -348.856)" fill="#263238"/>
                </g>
              </g>
            </g>
          </g>
        </g>
        <g id="Group_1080" data-name="Group 1080" transform="translate(911.55 262.916)">
          <g id="Group_1069" data-name="Group 1069" transform="translate(4.532 312.234)">
            <path id="Path_1388" data-name="Path 1388" d="M514.679,526.561,509.316,493.6l270.319-43.984,10.378,23.18Z" transform="translate(-509.316 -449.615)" fill="#455a64"/>
            <g id="Group_1066" data-name="Group 1066" transform="translate(1.377 21.999)">
              <path id="Path_1389" data-name="Path 1389" d="M786.335,457.427a15.7,15.7,0,0,1-2.83.453l-8.144.914c-7.29.756-17.475,1.808-29.972,3.1-25.291,2.671-60.263,6.353-98.448,13.159-19.091,3.421-37.12,7.471-53.381,11.7-16.249,4.287-30.823,8.473-43.2,11.489-12.369,3.045-22.506,5.006-29.558,6.039-3.526.51-6.268.863-8.139,1.024a15.543,15.543,0,0,1-2.858.181,15.509,15.509,0,0,1,2.8-.571c2.032-.351,4.715-.812,8.068-1.387,6.993-1.262,17.047-3.421,29.343-6.63,12.3-3.184,26.819-7.5,43.077-11.894,16.281-4.336,34.361-8.453,53.5-11.88,38.281-6.826,73.323-10.29,98.66-12.613,12.675-1.146,22.939-1.956,30.037-2.482,3.4-.226,6.121-.41,8.179-.546A15.566,15.566,0,0,1,786.335,457.427Z" transform="translate(-509.803 -457.388)" fill="#263238"/>
            </g>
            <g id="Group_1067" data-name="Group 1067" transform="translate(2.604 32.796)">
              <path id="Path_1390" data-name="Path 1390" d="M575.756,461.256c.026-.141,1.67.008,4.621.4s7.2,1.027,12.44,1.857l2.768.439-2.654.962c-8.606,3.127-20.226,7.225-33.014,11.622-13.632,4.686-26.007,8.824-35,11.727-4.5,1.452-8.144,2.595-10.68,3.342s-3.959,1.1-4,.973,1.3-.727,3.755-1.7,6.039-2.312,10.476-3.934c8.875-3.237,21.179-7.584,34.811-12.271,12.786-4.4,24.468-8.311,33.175-11.139l.113,1.4c-5.21-1-9.426-1.854-12.333-2.49S575.731,461.4,575.756,461.256Z" transform="translate(-510.237 -461.203)" fill="#263238"/>
            </g>
            <g id="Group_1068" data-name="Group 1068" transform="translate(101.735 8.324)">
              <path id="Path_1391" data-name="Path 1391" d="M718.641,452.567c.039.054-.425.461-1.356,1.2a29.442,29.442,0,0,1-4.446,2.652,47.2,47.2,0,0,1-18.491,4.208c-8.06.453-17.562-.843-28.008-1.206-10.451-.391-21.864,1.548-33.659,4.344-11.8,2.824-23.126,5.64-33.625,7.049a215.654,215.654,0,0,1-28,2.182c-8,.093-14.461-.289-18.909-.674-2.224-.187-3.948-.388-5.111-.555a6.26,6.26,0,0,1-1.769-.345c.014-.159,2.479-.008,6.927.139s10.887.317,18.83.045a236.875,236.875,0,0,0,27.767-2.581c10.4-1.5,21.584-4.333,33.447-7.174,11.835-2.807,23.491-4.737,34.163-4.239,10.607.475,19.988,1.9,27.9,1.627a49.555,49.555,0,0,0,18.225-3.518C716.589,453.982,718.531,452.409,718.641,452.567Z" transform="translate(-545.266 -452.556)" fill="#263238"/>
            </g>
          </g>
          <g id="Group_1073" data-name="Group 1073" transform="translate(0 300.101)">
            <path id="Path_1392" data-name="Path 1392" d="M508.209,478.133l6.25-32.806,269.035,51.256,1.812,25.332Z" transform="translate(-506.81 -445.328)" fill="#263238"/>
            <g id="Group_1070" data-name="Group 1070" transform="translate(0 24.994)">
              <path id="Path_1393" data-name="Path 1393" d="M783.981,503.727a15.665,15.665,0,0,1-2.81-.546c-2.006-.484-4.655-1.126-7.966-1.927L743.982,493.9c-24.677-6.149-58.8-14.67-97-21.349-19.108-3.325-37.434-5.7-54.159-7.293-16.736-1.539-31.862-2.6-44.523-4-12.667-1.375-22.863-3.005-29.839-4.449-3.489-.73-6.189-1.336-8-1.825a15.3,15.3,0,0,1-2.745-.809,15.749,15.749,0,0,1,2.83.424q3.039.548,8.054,1.46c7,1.208,17.189,2.623,29.839,3.818,12.65,1.225,27.767,2.139,44.548,3.58,16.779,1.5,35.176,3.826,54.329,7.16,38.3,6.7,72.415,15.446,97.013,21.943,12.3,3.263,22.224,6.016,29.072,7.955,3.274.948,5.892,1.709,7.873,2.284A15.307,15.307,0,0,1,783.981,503.727Z" transform="translate(-507.715 -454.16)" fill="#455a64"/>
            </g>
            <g id="Group_1071" data-name="Group 1071" transform="translate(3.184 12.855)">
              <path id="Path_1394" data-name="Path 1394" d="M581.125,449.884c.071-.125,1.565.58,4.2,1.958s6.415,3.433,11.054,6.005l2.448,1.358-2.824,0c-9.155-.011-21.476-.141-34.995-.391-14.413-.263-27.459-.614-36.9-.965-4.72-.175-8.538-.351-11.178-.518s-4.095-.323-4.092-.458,1.466-.238,4.109-.306,6.463-.1,11.189-.1c9.446-.006,22.5.125,36.908.39,13.519.249,25.834.572,34.983.9l-.374,1.353c-4.551-2.728-8.218-4.969-10.734-6.563S581.051,450.009,581.125,449.884Z" transform="translate(-508.84 -449.87)" fill="#455a64"/>
            </g>
            <g id="Group_1072" data-name="Group 1072" transform="translate(108.985 19.049)">
              <path id="Path_1395" data-name="Path 1395" d="M715.57,493.735a6.153,6.153,0,0,1-1.681.662,29.76,29.76,0,0,1-5.085.968,47.122,47.122,0,0,1-18.813-2.38c-7.729-2.332-16.213-6.8-25.9-10.723-9.687-3.948-21.074-6.033-33.113-7.448-12.047-1.384-23.661-2.618-34.007-4.893a215.793,215.793,0,0,1-27.054-7.539c-7.545-2.652-13.488-5.224-17.537-7.109-2.026-.939-3.574-1.718-4.61-2.272a6.206,6.206,0,0,1-1.542-.928c.065-.144,2.329.838,6.458,2.5s10.12,4.027,17.676,6.492a236.756,236.756,0,0,0,26.972,7.083c10.287,2.159,21.765,3.322,33.883,4.717,12.081,1.415,23.7,3.594,33.546,7.717,9.806,4.078,18.132,8.628,25.656,11.082a49.554,49.554,0,0,0,18.327,2.937C713.159,494.363,715.525,493.551,715.57,493.735Z" transform="translate(-546.226 -452.059)" fill="#455a64"/>
            </g>
          </g>
          <g id="Group_1074" data-name="Group 1074" transform="translate(34.672 305.237)">
            <path id="Path_1396" data-name="Path 1396" d="M743.109,489.571a13.515,13.515,0,0,1-2.3-.263l-6.537-1.044c-5.671-.928-13.864-2.36-23.978-4.185-20.231-3.642-48.123-8.959-78.9-14.99l-78.813-15.415-23.89-4.647q-4.066-.824-6.486-1.313a13.5,13.5,0,0,1-2.244-.557,13.5,13.5,0,0,1,2.3.263l6.534,1.044c5.671.928,13.864,2.36,23.978,4.185,20.231,3.642,48.126,8.962,78.907,14.993,30.71,6.005,58.509,11.444,78.8,15.412l23.893,4.647q4.067.823,6.486,1.313A13.86,13.86,0,0,1,743.109,489.571Z" transform="translate(-519.967 -447.142)" fill="#e8505b"/>
          </g>
          <g id="Group_1078" data-name="Group 1078" transform="translate(83.844)">
            <g id="Group_1075" data-name="Group 1075">
              <path id="Path_1397" data-name="Path 1397" d="M558.581,532.972l-17.382-28.3,7.291-78.422,17.558,26.411-2.592,27.873,19.62-36.773-5.6-31.97,5.8-62.36,9.6,50.45,10.415-9.515,3.478,54.169-7.335,78.895Z" transform="translate(-530.287 -320.712)" fill="#dabe6b"/>
              <path id="Path_1398" data-name="Path 1398" d="M558.581,532.972l-17.382-28.3,7.291-78.422,17.558,26.411-2.592,27.873,19.62-36.773-5.6-31.97,5.8-62.36,9.6,50.45,10.415-9.515,3.478,54.169-7.335,78.895Z" transform="translate(-530.287 -320.712)" fill="#b0b369" opacity="0.2"/>
              <path id="Path_1399" data-name="Path 1399" d="M537.343,482.785l12.39,93.595,47.53,32.056,24.566,2.284,44.845-41.575,6.852-73.7-28.963-37-1.343-57.306-14.237,30.126-7.1-56.888-33.044,68.4-19.379,23.93Z" transform="translate(-537.343 -275.06)" fill="#dabe6b"/>
              <path id="Path_1400" data-name="Path 1400" d="M596.986,339.282,575.124,361.7l5.654,22.744L598.665,366.1Z" transform="translate(-468.207 -339.282)" fill="#dabe6b"/>
            </g>
            <g id="Group_1076" data-name="Group 1076" transform="translate(57.098 241.152)" opacity="0.2">
              <path id="Path_1401" data-name="Path 1401" d="M568.507,508.69c-5.258-8.773-10.669-18.049-10.974-28.274-.227-7.632,2.437-15.021,5.151-22.158q6.474-17.013,13.615-33.761,6.826,16.411,13.654,32.816c3.586,8.611,7.236,17.97,5,27.026-1.607,6.515-6.056,11.894-10.375,17.028-4.188,4.978-9.469,10.428-15.941,9.789" transform="translate(-557.519 -424.497)" fill="#fff"/>
            </g>
            <g id="Group_1077" data-name="Group 1077" transform="translate(30.692 185.669)" opacity="0.2">
              <path id="Path_1402" data-name="Path 1402" d="M580.053,550.864q-12.327-15.239-24.654-30.481c-2.957-3.653-6.008-7.508-6.919-12.118-1.158-5.864,1.347-11.764,3.792-17.214,13.68-30.492,27.736-61.562,50.359-86.16.755,15.185,9.01,28.811,16.515,42.036s14.7,27.784,13.035,42.9c-1.109,10.058-6.05,19.227-9.231,28.834-2.165,6.54-3.535,13.363-6.342,19.654s-7.375,12.2-13.821,14.631c-8.92,3.362-18.757-.634-27.436-4.568" transform="translate(-548.188 -404.891)" fill="#fff"/>
            </g>
          </g>
          <g id="Group_1079" data-name="Group 1079" transform="translate(172.716 312.92)">
            <path id="Path_1403" data-name="Path 1403" d="M663.173,449.894a19.023,19.023,0,0,1-3.682.877c-2.674.5-6.067,1.126-10.117,1.879l-33.416,5.932c-13.052,2.326-24.852,4.488-33.376,6.13l-10.1,1.958a18.68,18.68,0,0,1-3.738.572,18.567,18.567,0,0,1,3.611-1.129c2.346-.651,5.77-1.455,10.012-2.42,8.484-1.907,20.271-4.236,33.328-6.56s24.912-4.234,33.506-5.51c4.3-.639,7.782-1.121,10.2-1.418A18.142,18.142,0,0,1,663.173,449.894Z" transform="translate(-568.747 -449.857)" fill="#e8505b"/>
          </g>
        </g>
        <g id="Group_1160" data-name="Group 1160" transform="translate(237.12 15)">
          <g id="Group_1105" data-name="Group 1105" transform="translate(237.434 9.783)">
            <g id="Group_1082" data-name="Group 1082" transform="translate(71.483 423.376)">
              <path id="Path_1404" data-name="Path 1404" d="M372.119,416.541s-5.719,60.965,34.692,63.993,114.867,1.814,127.579-6.053,22.4-21.79,24.21-34.5-16.776-40.539-16.776-40.539Z" transform="translate(-371.841 -399.44)" fill="#455a64"/>
              <g id="Group_1081" data-name="Group 1081" transform="translate(8.584 71.334)">
                <path id="Path_1405" data-name="Path 1405" d="M545.668,425.386c0,.4-38.238.736-85.393.736-47.172,0-85.4-.331-85.4-.736s38.229-.739,85.4-.739C507.43,424.647,545.668,424.978,545.668,425.386Z" transform="translate(-374.874 -424.647)" fill="#263238"/>
              </g>
            </g>
            <g id="Group_1101" data-name="Group 1101" transform="translate(0 19.407)">
              <g id="Group_1100" data-name="Group 1100">
                <path id="Path_1406" data-name="Path 1406" d="M494.131,275.983l2.281-11.7a4.853,4.853,0,0,0-4.151-5.739l-12.551-1.585s-1.8,2.926-.362,5.091,10.009,3.523,10.009,3.523v11.594Z" transform="translate(-104.646 -256.208)" fill="#aa6550"/>
                <g id="Group_1087" data-name="Group 1087" transform="translate(82.764 34.286)">
                  <g id="Group_1086" data-name="Group 1086">
                    <g id="Group_1085" data-name="Group 1085">
                      <g id="Group_1084" data-name="Group 1084">
                        <g id="Group_1083" data-name="Group 1083">
                          <path id="Path_1407" data-name="Path 1407" d="M418.177,445.256h0A29.376,29.376,0,0,0,447.158,414.4c-.8-15.983-1.7-32.134-1.7-32.134s23.933-4.4,23.562-28.446-6.073-79.113-6.073-79.113h0a83.56,83.56,0,0,0-83.636,12.882l-3.486,2.841L388.6,418.793A29.373,29.373,0,0,0,418.177,445.256Z" transform="translate(-375.827 -268.807)" fill="#ffbe9d"/>
                        </g>
                      </g>
                    </g>
                  </g>
                </g>
                <path id="Path_1408" data-name="Path 1408" d="M572.844,259.824l-28.4,13.516c-1.112-8.894-8.006-17.65-7.607-13.179s.334,27.679.334,27.679l-39.285,84.974c-5.317,13.451-16.292,21.989-24.538,24.063l-37.386,11.549,15.185,49.427,51.946-17.834a44.959,44.959,0,0,0,28.265-28.956l34.774-109.846s4.137-12.491,5.578-21.629A125.923,125.923,0,0,0,572.844,259.824Z" transform="translate(-183.028 -252.549)" fill="#b78876"/>
                <g id="Group_1095" data-name="Group 1095" transform="translate(0 149.154)">
                  <g id="Group_1090" data-name="Group 1090">
                    <g id="Group_1089" data-name="Group 1089">
                      <g id="Group_1088" data-name="Group 1088">
                        <path id="Path_1409" data-name="Path 1409" d="M346.581,453.734s36.217-94.217,39.376-97.315c19.594-19.238,46.736-19.909,46.736-19.909l73.892-5.934s57.479-12.446,90.857-21.179l20.947,68.17-63.614,21.462.857,79.3,19.747,58.8a163.634,163.634,0,0,1,10.038,21.323l2.629,6.817L417.176,582.244c-2.346-19.937,16.105-71.484,16.105-71.484L413.9,434.191l-3.45,30.232Z" transform="translate(-346.581 -309.397)" fill="#7bc1ba"/>
                      </g>
                    </g>
                  </g>
                  <g id="Group_1091" data-name="Group 1091" transform="translate(5.703 91.711)">
                    <path id="Path_1410" data-name="Path 1410" d="M550.1,359.229c.017.263-3.356-1.033-8.991.807a30.5,30.5,0,0,0-9.237,5.233c-3.283,2.57-6.495,6.132-10.278,9.879-3.764,3.69-8.359,7.8-14.566,9.676-6.121,1.964-13.216,1.729-20.056-.212A62.006,62.006,0,0,1,467.18,374.6c-6.237-4.505-12.138-9.811-18.465-14.795-6.311-5-12.9-9.322-19.965-12a64.524,64.524,0,0,0-21.19-4.392,63.208,63.208,0,0,0-35.21,9,67.474,67.474,0,0,0-18.525,16.493c-1.786,2.352-3.062,4.265-3.891,5.581a12.465,12.465,0,0,1-1.333,1.981,12.709,12.709,0,0,1,1.036-2.153,56.844,56.844,0,0,1,3.656-5.8,65.2,65.2,0,0,1,18.431-17.124,63.742,63.742,0,0,1,35.889-9.545,65.687,65.687,0,0,1,21.74,4.406c7.262,2.731,14.051,7.177,20.412,12.22,6.39,5.034,12.262,10.326,18.394,14.783A60.891,60.891,0,0,0,487.4,383.1c6.614,1.922,13.388,2.182,19.207.374,5.889-1.709,10.36-5.578,14.15-9.192,3.8-3.656,7.106-7.2,10.533-9.766a30.259,30.259,0,0,1,9.622-5.116,17.169,17.169,0,0,1,6.848-.7A8.356,8.356,0,0,1,550.1,359.229Z" transform="translate(-348.596 -341.805)" fill="#fafafa"/>
                  </g>
                  <g id="Group_1092" data-name="Group 1092" transform="translate(84.479 181.074)">
                    <path id="Path_1411" data-name="Path 1411" d="M502.334,373.415c.028.184-1.941.371-5.284,1.46a47.016,47.016,0,0,0-12.933,7.219c-5.082,3.73-10.507,8.979-17.172,14.184a67.859,67.859,0,0,1-24.671,11.965,75.526,75.526,0,0,1-27.382,1.661,71.445,71.445,0,0,1-21.539-6.152,73.117,73.117,0,0,1-7.587-4.089c-2.077-1.457-3.88-2.7-5.281-3.795a34.145,34.145,0,0,1-4.05-3.767c.294-.427,5.776,5.569,17.413,10.556a73.253,73.253,0,0,0,21.23,5.691,76.078,76.078,0,0,0,26.777-1.752,67.886,67.886,0,0,0,24.139-11.563c6.613-5.051,12.166-10.247,17.413-13.909a43.8,43.8,0,0,1,13.448-6.88,25.317,25.317,0,0,1,4.047-.767A4.448,4.448,0,0,1,502.334,373.415Z" transform="translate(-376.433 -373.382)" fill="#fafafa"/>
                  </g>
                  <g id="Group_1093" data-name="Group 1093" transform="translate(221.389 22.785)">
                    <path id="Path_1412" data-name="Path 1412" d="M424.814,320.583c-.074-.167,2.091-1.356,5.951-2.264a37.289,37.289,0,0,1,29.525,5.968c3.2,2.338,4.734,4.276,4.6,4.4-.2.209-2-1.392-5.269-3.4a42.5,42.5,0,0,0-28.636-5.79C427.2,320.079,424.91,320.851,424.814,320.583Z" transform="translate(-424.812 -317.448)" fill="#fafafa"/>
                  </g>
                  <g id="Group_1094" data-name="Group 1094" transform="translate(134.896 223.756)">
                    <path id="Path_1413" data-name="Path 1413" d="M394.25,425.356c-.082-.391,5.484-.7,13.349-4.536a93.54,93.54,0,0,0,13.154-7.811c4.766-3.4,9.95-7.095,15.389-10.974a89.6,89.6,0,0,1,16.617-9.3,59.977,59.977,0,0,1,15.086-3.854,54.963,54.963,0,0,1,10.474-.286,13.6,13.6,0,0,1,3.8.572c-.011.325-5.476-.4-14.107.905a63.6,63.6,0,0,0-14.659,4.112,94.674,94.674,0,0,0-16.249,9.254c-5.5,3.786-10.609,7.629-15.468,10.867a84.571,84.571,0,0,1-13.538,7.61,54.733,54.733,0,0,1-5.615,2.077c-1.707.447-3.187.8-4.4,1.038A16.724,16.724,0,0,1,394.25,425.356Z" transform="translate(-394.249 -388.465)" fill="#fafafa"/>
                  </g>
                </g>
                <g id="Group_1099" data-name="Group 1099" transform="translate(35.559)">
                  <path id="Path_1414" data-name="Path 1414" d="M481.627,275.366c43.315,4.146,26.652,60.954,37.482,78.16,4,6.359,10.635,11.133,15.944,16.733s9.458,12.919,7.154,20c-1.992,6.135-8.614,11.668-7,17.795.86,3.255,3.9,5.654,6.2,8.323,5.649,6.546,7.063,15.386,4.978,23.477s-7.409,15.466-14.039,21.626c-19.371,17.993-50.939,25.684-77.84,18.96-7.952-1.987-16.165-5.145-24.281-3.249-5.006,1.169-9.177,4.123-13.787,6.2-17.848,8.031-41.507.863-51.358-13.657s-6.86-34.044,4.627-48.211c8.227-10.148,20.967-19.4,20.794-31.554-.17-11.965-13.363-22.784-8.8-34.217,2.954-7.389,12.525-11.9,15.437-19.3,3.034-7.709-2.069-15.672-3.005-23.669-1.271-10.813,5.187-21.38,12.709-30.388,9.463-11.334,21.957-21.972,37.765-25.031s34.763,4.474,37.01,18" transform="translate(-359.146 -256.691)" fill="#263238"/>
                  <g id="Group_1096" data-name="Group 1096" transform="translate(115.866 22.16)">
                    <path id="Path_1415" data-name="Path 1415" d="M402.42,469.862c-.054-.226,3.577-.147,9.24-2.771a28.458,28.458,0,0,0,8.957-6.715,26.959,26.959,0,0,0,6.37-13.2A27.87,27.87,0,0,0,424.5,429.7c-1.35-2.963-3.036-5.92-4.624-9.087a32.826,32.826,0,0,1-3.6-10.442,17.368,17.368,0,0,1,2.493-11.419,45.112,45.112,0,0,1,7.946-9.087,51.763,51.763,0,0,0,8.179-8.9c2.275-3.308,3.631-7.366,2.784-11.345s-3.478-7.3-6.325-10.236c-2.867-2.957-5.98-5.694-8.628-8.863a22.1,22.1,0,0,1-5.235-10.983,34.031,34.031,0,0,1,.546-11.6c1.534-7.361,3.778-14.005,4.681-20.508a54.046,54.046,0,0,0,.161-18.049c-1.876-11.028-8.575-18.219-13.779-21.34-5.374-3.2-9.1-3.039-9.013-3.3,0-.031.221-.031.645,0a14.338,14.338,0,0,1,1.879.218,21.288,21.288,0,0,1,6.826,2.513c5.453,3.028,12.522,10.312,14.625,21.689a54.687,54.687,0,0,1,.051,18.482c-.86,6.611-3.09,13.417-4.536,20.59a32.6,32.6,0,0,0-.481,11.051,20.479,20.479,0,0,0,4.91,10.168c2.541,3.028,5.623,5.733,8.566,8.756,2.9,2.994,5.815,6.554,6.775,11.073s-.62,9.135-3.045,12.621a53.045,53.045,0,0,1-8.447,9.178,43.872,43.872,0,0,0-7.695,8.711,15.8,15.8,0,0,0-2.329,10.389c.993,7.143,5.337,13.049,7.952,19.139a29,29,0,0,1,2.38,18.278,27.721,27.721,0,0,1-6.846,13.615,28.475,28.475,0,0,1-9.387,6.679,26.476,26.476,0,0,1-6.987,2.012,15.107,15.107,0,0,1-1.882.173A1.89,1.89,0,0,1,402.42,469.862Z" transform="translate(-400.089 -264.522)" fill="#455a64"/>
                  </g>
                  <g id="Group_1097" data-name="Group 1097" transform="translate(37.399 8.185)">
                    <path id="Path_1416" data-name="Path 1416" d="M373.89,325.067a24.163,24.163,0,0,1-.849-4.907,83.593,83.593,0,0,1-.614-13.592,46.861,46.861,0,0,1,4.9-19.617,49.885,49.885,0,0,1,16.8-18.171c14.877-9.809,32.448-11.184,43.3-6.888,5.482,2.06,9.166,5.408,10.878,8.173a13.547,13.547,0,0,1,1.624,3.359,3.71,3.71,0,0,1,.286,1.268c-.173.068-.614-1.7-2.453-4.248a22.158,22.158,0,0,0-10.748-7.423c-10.508-3.849-27.541-2.332-41.948,7.177a49.355,49.355,0,0,0-16.346,17.478,47.156,47.156,0,0,0-5.091,18.963A104.425,104.425,0,0,0,373.7,320.1,32.9,32.9,0,0,1,373.89,325.067Z" transform="translate(-372.362 -259.583)" fill="#455a64"/>
                  </g>
                  <g id="Group_1098" data-name="Group 1098" transform="translate(59.981 31.536)">
                    <path id="Path_1417" data-name="Path 1417" d="M428.239,268.37c.02.283-3.155-.922-8.343.923-5.006,1.769-11.826,7.363-14.286,16.866a51.242,51.242,0,0,0-1.188,15.85c.28,5.767,1.211,11.914,1.477,18.5.243,6.534-.1,13.731-3.158,20.446-2.946,6.8-9.412,11.524-11.478,18.494a18.1,18.1,0,0,0,.589,10.5c1.084,3.421,2.649,6.684,3.982,10.018a31.431,31.431,0,0,1,2.584,10.375,23.722,23.722,0,0,1-1.958,10.1c-2.564,6.195-6.353,11.215-9.3,16.162-2.983,4.916-5.247,9.865-5.561,14.7a23.479,23.479,0,0,0,2.722,12.576,50.71,50.71,0,0,0,5.405,8.374c1.687,2.176,3.082,3.806,4.01,4.927a11.515,11.515,0,0,1,1.367,1.755,10.631,10.631,0,0,1-1.622-1.525c-1.013-1.05-2.49-2.612-4.27-4.74a48.145,48.145,0,0,1-5.736-8.357,24.241,24.241,0,0,1-3.076-13.094c.258-5.125,2.578-10.321,5.55-15.333,2.943-5.037,6.659-10.086,9.061-16.02a22.279,22.279,0,0,0,1.791-9.458,30.116,30.116,0,0,0-2.51-9.82c-1.313-3.266-2.9-6.543-4.047-10.128a19.772,19.772,0,0,1-.614-11.475c1.1-3.86,3.487-6.984,5.716-9.882,2.255-2.909,4.5-5.682,5.889-8.846,2.909-6.311,3.305-13.258,3.1-19.691-.215-6.472-1.1-12.644-1.322-18.491a51.668,51.668,0,0,1,1.438-16.235c2.731-9.888,9.958-15.528,15.225-17.178a15.4,15.4,0,0,1,6.376-.758,11.745,11.745,0,0,1,1.644.289C428.063,268.283,428.244,268.342,428.239,268.37Z" transform="translate(-380.342 -267.835)" fill="#455a64"/>
                  </g>
                </g>
              </g>
            </g>
            <g id="Group_1102" data-name="Group 1102" transform="translate(223.954 381.9)">
              <path id="Path_1418" data-name="Path 1418" d="M425.731,384.784a34.142,34.142,0,0,1,1.9,4.627c1.149,3,2.8,7.349,5.029,12.636s5.111,11.481,8.688,18.168c3.529,6.7,8.037,13.762,11.951,21.677,3.854,7.893,7.021,15.93,7.338,23.754a23.513,23.513,0,0,1-2.284,10.742,50.435,50.435,0,0,1-4.65,8.278,67.491,67.491,0,0,1-8.77,10.5,35.027,35.027,0,0,1-2.8,2.451,4.423,4.423,0,0,1-1.092.713c-.074-.1,1.3-1.22,3.484-3.568a77.763,77.763,0,0,0,8.309-10.672,51.2,51.2,0,0,0,4.395-8.184,22.537,22.537,0,0,0,2.052-10.2c-.368-7.471-3.486-15.355-7.3-23.157-3.868-7.822-8.337-14.908-11.832-21.7a196.957,196.957,0,0,1-8.45-18.406c-2.122-5.363-3.622-9.777-4.61-12.842-.5-1.531-.852-2.731-1.078-3.549A4.323,4.323,0,0,1,425.731,384.784Z" transform="translate(-425.719 -384.784)" fill="#e8505b"/>
            </g>
            <g id="Group_1103" data-name="Group 1103" transform="translate(207.578 131.192)">
              <path id="Path_1419" data-name="Path 1419" d="M575.473,296.192a2.812,2.812,0,0,1-.153.733c-.159.558-.354,1.251-.594,2.111-.586,1.953-1.4,4.652-2.42,8.071-2.2,7.1-5.32,17.186-9.16,29.6-1,3.124-1.938,6.39-3.124,9.8a36.523,36.523,0,0,1-5.363,9.9,45.413,45.413,0,0,1-8.541,8.5c-1.633,1.273-3.359,2.468-5.117,3.639a24.209,24.209,0,0,1-2.816,1.664q-1.481.654-2.983,1.313c-16.136,6.4-34.222,12.251-53.2,18.471l-1.31.422.478-.917q1.872,6.087,3.69,12.019l.209.682-.673.226c-23.449,7.864-45.154,15.143-63.656,21.346l.416-.58c.031,4.78.062,9.359.093,13.711-.037,4.341.269,8.493.243,12.37.048,7.763-.13,14.5-.2,20.036-.085,5.538-.088,9.879-.057,12.834.014,1.4.025,2.513.034,3.373a5.463,5.463,0,0,1-.04,1.16,5.458,5.458,0,0,1-.147-1.152c-.068-.761-.147-1.89-.215-3.37-.147-2.957-.258-7.3-.277-12.848s.048-12.285-.088-20.019c-.02-3.877-.365-7.963-.368-12.336q-.1-6.55-.2-13.756l-.006-.436.424-.144c18.477-6.271,40.151-13.626,63.569-21.575l-.461.908q-1.821-5.917-3.7-12.016l-.215-.7.693-.221,1.307-.422c18.946-6.212,37.083-12.036,53.129-18.324L537.606,369a22.815,22.815,0,0,0,2.66-1.559c1.755-1.157,3.455-2.321,5.06-3.56a44.347,44.347,0,0,0,8.36-8.21,35.6,35.6,0,0,0,5.269-9.551c1.183-3.32,2.173-6.636,3.2-9.729,4.03-12.353,7.3-22.388,9.608-29.457,1.135-3.382,2.032-6.05,2.683-7.986l.733-2.066A2.863,2.863,0,0,1,575.473,296.192Z" transform="translate(-419.932 -296.192)" fill="#e8505b"/>
            </g>
            <path id="Path_1420" data-name="Path 1420" d="M480.531,281.63c.478-.226,10.406-27.931,11.676-30.541,1.944-3.985,2.128,2.128,1.112,9.659-.857,6.37-2.04,15.768-2.04,15.768Z" transform="translate(-101.463 -249.833)" fill="#b78876"/>
            <g id="Group_1104" data-name="Group 1104" transform="translate(169.15 72.862)">
              <path id="Path_1421" data-name="Path 1421" d="M426.253,275.58a12,12,0,0,1,.512,2.105c.308,1.387.654,3.453,1.056,6.121.348,2.674.747,5.957,1.019,9.777.32,3.815.47,8.181,1.033,12.924.583,4.706,1.743,9.936,5.074,14.416,3.271,4.483,7.85,8.538,12.123,13.281a64.194,64.194,0,0,1,6.18,7.7,21.359,21.359,0,0,1,3.826,9.715,10.164,10.164,0,0,1-.976,5.45,21.8,21.8,0,0,1-3.1,4.536,25.9,25.9,0,0,0-3.121,4.2,6.427,6.427,0,0,0-.484,4.819c1.613,6.868,7.963,11.809,9.746,18.9,2.06,6.877,1.146,14-1.033,20.05a43.22,43.22,0,0,1-9.831,15.332,58.645,58.645,0,0,1-12.752,9.424,118.222,118.222,0,0,1-21.128,8.7c-2.572.809-4.576,1.4-5.943,1.788a11.893,11.893,0,0,1-2.105.515,11.873,11.873,0,0,1,2.015-.8c1.471-.518,3.416-1.2,5.849-2.052a129.245,129.245,0,0,0,20.8-9.064,58.468,58.468,0,0,0,12.4-9.376,42.282,42.282,0,0,0,9.424-14.936c2.072-5.861,2.892-12.681.928-19.167a31.27,31.27,0,0,0-4.76-9.132c-1.972-2.946-4.208-6.048-5.049-9.876a7.962,7.962,0,0,1,.62-5.8,26.959,26.959,0,0,1,3.3-4.46c2.3-2.652,4.174-5.643,3.758-8.937a20.068,20.068,0,0,0-3.56-9.053,63.609,63.609,0,0,0-6.011-7.559c-4.208-4.734-8.739-8.784-12.118-13.49-3.447-4.732-4.59-10.23-5.111-15-.5-4.828-.58-9.18-.818-12.992-.2-3.815-.507-7.086-.767-9.76-.314-2.669-.566-4.743-.781-6.141A12.406,12.406,0,0,1,426.253,275.58Z" transform="translate(-406.353 -275.58)" fill="#e8505b"/>
            </g>
          </g>
          <g id="Group_1137" data-name="Group 1137" transform="translate(23.85)">
            <g id="Group_1124" data-name="Group 1124" transform="translate(108.422)">
              <g id="Group_1116" data-name="Group 1116" transform="translate(3.229 12.82)">
                <g id="Group_1115" data-name="Group 1115">
                  <g id="Group_1114" data-name="Group 1114">
                    <g id="Group_1113" data-name="Group 1113">
                      <g id="Group_1112" data-name="Group 1112">
                        <g id="Group_1108" data-name="Group 1108" transform="translate(15.261 17.474)">
                          <g id="Group_1107" data-name="Group 1107">
                            <g id="Group_1106" data-name="Group 1106">
                              <path id="Path_1422" data-name="Path 1422" d="M322.553,269.521l-6.6,133.694,57.241,5.391,3.164-32.445s20.186,4.989,26.318-13.691c3.92-11.934,7.4-105.389,7.4-105.389Z" transform="translate(-315.954 -257.081)" fill="#ffbe9d"/>
                            </g>
                          </g>
                        </g>
                        <g id="Group_1111" data-name="Group 1111">
                          <g id="Group_1110" data-name="Group 1110">
                            <g id="Group_1109" data-name="Group 1109">
                              <path id="Path_1423" data-name="Path 1423" d="M424.892,283.993c1.585,12.511-15.91,19.753-15.91,19.753l-3.056,29.6a58.2,58.2,0,0,0-8.224-.074c1.474-13.886-16.411-11.178-18.23-1.706-1.752,9.107,8.62,15.185,8.62,15.185-7.16,10.986-10.063,16.779-20.22,27.071-11,11.141-16.909,12.041-28.26,11.707l-12.505-.58s-4.452-10.683-7.714-35.917c-1.571-12.14-11.048-28.047-8.351-47.783,7.666-56.086,61.4-50.16,61.4-50.16C400.325,251.865,421.216,254.958,424.892,283.993Z" transform="translate(-310.561 -250.906)" fill="#263238"/>
                            </g>
                          </g>
                        </g>
                      </g>
                    </g>
                  </g>
                </g>
              </g>
              <g id="Group_1117" data-name="Group 1117" transform="translate(55.96)">
                <path id="Path_1424" data-name="Path 1424" d="M375.671,311.1a42.347,42.347,0,0,0,27.111-28.91c1.347-5.142,1.622-10.9-1.013-15.516s-8.9-7.392-13.553-4.819a15.537,15.537,0,0,0-30.187-5.142c-3.379-4.613-10.021-6.158-15.437-4.324s-9.54,6.56-11.571,11.9-2.159,11.252-1.392,16.917" transform="translate(-329.195 -246.376)" fill="#263238"/>
              </g>
              <g id="Group_1119" data-name="Group 1119" transform="translate(0 26.079)">
                <g id="Group_1118" data-name="Group 1118">
                  <path id="Path_1425" data-name="Path 1425" d="M309.422,256.453c-.045-.181.993-.654,2.813-.815a15.053,15.053,0,0,1,12.61,5.456c1.126,1.438,1.491,2.519,1.33,2.612-.368.266-2.79-3.447-7.584-5.456C313.845,256.131,309.479,256.906,309.422,256.453Z" transform="translate(-309.42 -255.591)" fill="#263238"/>
                </g>
              </g>
              <g id="Group_1121" data-name="Group 1121" transform="translate(13.091 20.482)">
                <g id="Group_1120" data-name="Group 1120">
                  <path id="Path_1426" data-name="Path 1426" d="M315.593,253.623c.4.184-.685,2.855.232,6.067.818,3.243,3.1,5.009,2.844,5.368-.1.161-.86-.051-1.817-.857a8.565,8.565,0,0,1-2.4-8.926C314.875,254.1,315.427,253.532,315.593,253.623Z" transform="translate(-314.046 -253.614)" fill="#263238"/>
                </g>
              </g>
              <g id="Group_1123" data-name="Group 1123" transform="translate(4.59 53.359)">
                <g id="Group_1122" data-name="Group 1122">
                  <path id="Path_1427" data-name="Path 1427" d="M407.8,291.167c.017.023-.133.159-.441.4a11.8,11.8,0,0,1-1.429,1.019,16.648,16.648,0,0,1-6.362,2.256c-5.818.906-14.823-.855-23.273-7.281a22.261,22.261,0,0,1-5.663-6.121,11.772,11.772,0,0,1-1.508-8.959c.71-3.065,2.943-6.362,6.591-7.1,3.628-.77,7.3,1.421,9.2,4.5,2.04,3.184,2,7.279.866,10.807a24.574,24.574,0,0,1-6,9.548,27.062,27.062,0,0,1-21.669,7.975,27.814,27.814,0,0,1-11.433-3.67,21.579,21.579,0,0,1-8.269-8.263c-1.868-3.39-2.541-7.7-.71-11.274a10.183,10.183,0,0,1,9.449-5.264,6.732,6.732,0,0,1,4.825,2.652,9.088,9.088,0,0,1,1.7,5.006,18.318,18.318,0,0,1-2.425,9.427,23.174,23.174,0,0,1-13.233,10.782,20.436,20.436,0,0,1-14.079-.637,22.923,22.923,0,0,1-8.676-6.231,19.461,19.461,0,0,1-3.526-5.753,11.887,11.887,0,0,1-.555-1.661,1.752,1.752,0,0,1-.124-.586c.229-.13.767,3.291,4.652,7.6a22.748,22.748,0,0,0,8.546,5.83,19.616,19.616,0,0,0,13.434.4,22.145,22.145,0,0,0,12.446-10.358,17.131,17.131,0,0,0,2.2-8.736,7.786,7.786,0,0,0-1.452-4.253,5.336,5.336,0,0,0-3.854-2.08,8.789,8.789,0,0,0-8.031,4.545c-1.5,2.935-.993,6.795.741,9.874,3.481,6.35,10.9,10.383,18.522,11.122a25.612,25.612,0,0,0,20.463-7.511,23.108,23.108,0,0,0,5.666-8.934c1.067-3.252,1.064-6.9-.668-9.61-1.653-2.717-4.817-4.559-7.734-3.931-2.952.543-4.961,3.325-5.623,6.079a10.561,10.561,0,0,0,1.3,8.065,21.363,21.363,0,0,0,5.309,5.861c8.136,6.359,16.875,8.244,22.526,7.542C405.255,293.5,407.694,290.906,407.8,291.167Z" transform="translate(-311.042 -265.231)" fill="#455a64"/>
                </g>
              </g>
            </g>
            <g id="Group_1125" data-name="Group 1125" transform="translate(15.84 166.74)">
              <path id="Path_1428" data-name="Path 1428" d="M390.542,305.85s-67.423-11.014-94.412,65.207l-19.425,59.5,56.366,10.782-4,150.719,174.595-15.723L493.6,464.444l-13.451-2.253,2.991-21.717,67.59-24.289s-52.5-117.866-111.083-108.16Z" transform="translate(-276.705 -305.296)" fill="#7bc1ba"/>
            </g>
            <path id="Path_1429" data-name="Path 1429" d="M544.036,480.171l-107.752,5.272c-28.228,3.492-77.517,3.6-107.755,1.336-40.411-3.025-32.971-66.959-32.971-66.959l175.254-16.425c14.167-5.17,28.562-4.975,43.1-1.271C513.914,402.124,505.957,473.215,544.036,480.171Z" transform="translate(-227.353 33.681)" fill="#263238"/>
            <path id="Path_1430" data-name="Path 1430" d="M286.947,349.559s-15.632,68.017-15.836,77.042c-.266,11.852,14.8,32.287,28.628,35.063,22.1,4.437,43.575-14.894,43.575-14.894l2.669-91.211Z" transform="translate(-271.108 -57.559)" fill="#7bc1ba"/>
            <g id="Group_1129" data-name="Group 1129" transform="translate(410.243 323.636)">
              <g id="Group_1128" data-name="Group 1128">
                <g id="Group_1127" data-name="Group 1127">
                  <g id="Group_1126" data-name="Group 1126">
                    <path id="Path_1431" data-name="Path 1431" d="M416.074,411.532l10.007,4.106c9.427,2.949,14.56,4.95,18.106,3.608,4.749-1.794,1.438-6.93,1.438-6.93s7.5.526,8.58-3.73c.733-2.9-2.241-4.522-2.241-4.522s6.735.192,8.9-1.735c2.949-2.629-.393-6.107-.393-6.107,9.942-1.525,11.258-6.631,9.639-7.881s-8.965-1.027-8.965-1.027c-5.821-.713-21.816-2.38-13.261-7.972S460.9,366.225,460.7,363.347s-4.285-3.636-5.971-.948c-1.364,2.173-4.757,5.088-7.4,7.174a24.346,24.346,0,0,1-7.253,3.973c-3.062,1.039-5.7,1.8-7.958,2.388l-12.483,4.808Z" transform="translate(-416.074 -360.738)" fill="#ffbe9d"/>
                  </g>
                </g>
              </g>
            </g>
            <g id="Group_1130" data-name="Group 1130" transform="translate(52.506 263.075)">
              <path id="Path_1432" data-name="Path 1432" d="M289.7,339.338a4.813,4.813,0,0,1,.306,1.3l.6,3.769c.5,3.515,1.172,8.2,1.984,13.889,1.689,11.951,3.962,28.045,6.475,45.831,2.521,17.908,4.672,34.14,6.053,45.913.69,5.883,1.211,10.652,1.52,13.952l.323,3.8a4.808,4.808,0,0,1,.014,1.339,4.56,4.56,0,0,1-.308-1.3c-.164-1.033-.362-2.275-.6-3.769-.5-3.515-1.172-8.2-1.984-13.889-1.687-11.951-3.962-28.047-6.475-45.839-2.521-17.9-4.672-34.132-6.05-45.9-.693-5.886-1.214-10.652-1.52-13.954-.13-1.508-.235-2.762-.325-3.8A4.582,4.582,0,0,1,289.7,339.338Z" transform="translate(-289.662 -339.338)" fill="#263238"/>
            </g>
            <g id="Group_1131" data-name="Group 1131" transform="translate(128.813 238.07)" opacity="0.2">
              <path id="Path_1433" data-name="Path 1433" d="M368.269,330.5s-.77,52.274,6.288,86.106c.937,4.5-.835,10.522-3.325,14.387-2.632,4.084-7.963,5.281-12.749,6.13l-41.857,7.429A127.419,127.419,0,0,1,350.3,473.877c5.227,6.489,9.817,13.5,15.4,19.682s19.326,15.471,27.66,15.649c15.921.339,26.748-19.147,32.587-25.1L407.1,416.067,409.36,396.6Z" transform="translate(-316.626 -330.502)"/>
            </g>
            <g id="Group_1132" data-name="Group 1132" transform="translate(46.228 269.921)" opacity="0.2">
              <path id="Path_1434" data-name="Path 1434" d="M294.458,341.757q-4.567,27.889-6.455,56.126c-.775,11.631-1.186,23.494,1.817,34.757s9.916,22,20.427,27.037Z" transform="translate(-287.443 -341.757)"/>
            </g>
            <path id="Path_1435" data-name="Path 1435" d="M459.955,365.441l-16.62,35.781L332.871,387.469l-4.1-4.3c-1.791-1.5-3.846-3.317-6.172-5.564a24.433,24.433,0,0,1-4.856-6.693c-1.494-3.014-3.314-7.1-3.617-9.65-.374-3.153-4.386-4.211-5.8-1.7s-.594,11.224,4.746,19.94-9.831,3.379-15.4,1.534c0,0-6.546-3.345-8.544-2.909s-2.991,5.62,5.34,11.252c0,0-4.508,1.712-2.966,5.349,1.129,2.666,7.3,5.374,7.3,5.374s-3.382.192-3.959,3.13c-.849,4.307,6.158,7.044,6.158,7.044s-5.19,3.223-1.664,6.877c2.632,2.728,8.128,3.116,17.908,4.483l2.185.116c28.042,8.328,137.486,38.945,156.441,15.463,26.018-32.233,34.386-63.356,34.386-63.356Z" transform="translate(-240.666 -41.806)" fill="#b78876"/>
            <g id="Group_1136" data-name="Group 1136" transform="translate(33.414 183.075)">
              <path id="Path_1436" data-name="Path 1436" d="M359.594,405.76s46.651,68.728,65.151,75.344,146.03,29.584,146.03,29.584l5.977-45.7S465.165,428.34,461.237,425.513c-2.909-2.091-34.4-56.132-52.8-82.532-18.018-25.854-51.4-48.411-68.674-14.022-.167.331.2-.323,0,0C319.466,361.019,359.594,405.76,359.594,405.76Z" transform="translate(-189.377 -310.363)" fill="#7bc1ba"/>
              <g id="Group_1133" data-name="Group 1133" transform="translate(4.933 31.304)">
                <path id="Path_1437" data-name="Path 1437" d="M501.192,326.968c-.071.178-2.923-1.46-8.586-2.787a56.427,56.427,0,0,0-24.363.238c-10.208,2.038-21.57,7.233-33.554,14.014-12.024,6.633-25.079,14.911-40.663,19.215a60.854,60.854,0,0,1-23.307,2.091,68.578,68.578,0,0,1-20.837-6.407c-12.551-5.968-22.888-12.97-32.507-16.957-9.526-4.185-17.927-5.756-23.729-5.733-5.816-.028-8.957.968-8.988.773a29.373,29.373,0,0,1,8.985-1.347c5.881-.2,14.461,1.239,24.136,5.349,9.777,3.914,20.24,10.861,32.674,16.682a67.7,67.7,0,0,0,20.435,6.206,59.811,59.811,0,0,0,22.75-2.077c15.3-4.219,28.294-12.386,40.394-18.983,12.047-6.732,23.619-11.911,34-13.847,10.341-2.083,19.051-1.3,24.708.226A31.015,31.015,0,0,1,501.192,326.968Z" transform="translate(-284.658 -322.13)" fill="#ebebeb"/>
              </g>
              <g id="Group_1134" data-name="Group 1134" transform="translate(0 49.572)">
                <path id="Path_1438" data-name="Path 1438" d="M516.737,333.776c-.074.187-3.15-1.593-9.265-3.034a60.932,60.932,0,0,0-26.324.241c-11.028,2.2-23.307,7.8-36.251,15.126-12.984,7.16-27.079,16.1-43.9,20.74a65.669,65.669,0,0,1-25.147,2.255c-8.193-.962-15.7-3.758-22.481-6.911-13.55-6.435-24.716-14-35.114-18.3-10.292-4.517-19.371-6.209-25.636-6.178-6.285-.023-9.676,1.064-9.707.86a31.922,31.922,0,0,1,9.7-1.432c6.345-.212,15.6,1.35,26.047,5.79,10.553,4.228,21.844,11.733,35.275,18.027,6.721,3.085,14.1,5.793,22.082,6.707a64.628,64.628,0,0,0,24.589-2.241c16.538-4.562,30.566-13.383,43.629-20.508,13.006-7.273,25.495-12.868,36.7-14.959,11.158-2.255,20.56-1.418,26.666.224A33.776,33.776,0,0,1,516.737,333.776Z" transform="translate(-282.915 -328.586)" fill="#ebebeb"/>
              </g>
              <g id="Group_1135" data-name="Group 1135" transform="translate(142.625)">
                <path id="Path_1439" data-name="Path 1439" d="M360.068,311.078c.031.187-2.451.2-6.472,1.791A29.3,29.3,0,0,0,340.142,324.7a34.859,34.859,0,0,0-4.669,11.572,45.745,45.745,0,0,0-.515,14.365,75.906,75.906,0,0,0,3.586,15.587,110.873,110.873,0,0,0,6.653,15.9,261.6,261.6,0,0,0,17.681,28.361c5.915,8.428,11.5,15.836,16.278,21.989s8.75,11.051,11.529,14.407c1.3,1.585,2.36,2.87,3.189,3.877a7.819,7.819,0,0,1,1.044,1.412,7.931,7.931,0,0,1-1.268-1.214c-.792-.832-1.958-2.063-3.4-3.7-2.918-3.246-7.015-8.054-11.911-14.133s-10.575-13.442-16.569-21.853A249.445,249.445,0,0,1,343.884,382.8a109.959,109.959,0,0,1-6.71-16.119,76.04,76.04,0,0,1-3.566-15.9,46.317,46.317,0,0,1,.671-14.764,35.44,35.44,0,0,1,4.986-11.88,29.16,29.16,0,0,1,14.124-11.8A18.032,18.032,0,0,1,360.068,311.078Z" transform="translate(-333.314 -311.069)" fill="#263238"/>
              </g>
            </g>
          </g>
          <g id="Group_1159" data-name="Group 1159" transform="translate(0 506.256)">
            <g id="Group_1148" data-name="Group 1148" transform="translate(0 0.616)">
              <path id="Path_1440" data-name="Path 1440" d="M849.144,531.421h-533a52.844,52.844,0,0,1-52.846-52.846h0a52.845,52.845,0,0,1,52.846-52.846h533a52.845,52.845,0,0,1,52.846,52.846h0A52.844,52.844,0,0,1,849.144,531.421Z" transform="translate(-261.558 -425.046)" fill="#455a64"/>
              <g id="Group_1147" data-name="Group 1147">
                <circle id="Ellipse_21" data-name="Ellipse 21" cx="52.846" cy="52.846" r="52.846" transform="translate(0 0.683)" fill="#263238"/>
                <g id="Group_1138" data-name="Group 1138" transform="translate(37.853 38.626)">
                  <path id="Path_1441" data-name="Path 1441" d="M302.434,444.718c.042-.025.229.19.552.645a7.942,7.942,0,0,1,.934,2.241,15.672,15.672,0,0,1-.925,8.778,20.433,20.433,0,0,1-2.759,5.533,8.172,8.172,0,0,1-2.754,2.326,9.433,9.433,0,0,1-3.687.914,28.967,28.967,0,0,1-7.782-.863,14.558,14.558,0,0,1-7.409-4.169,9.335,9.335,0,0,1-2.34-8.289,13.067,13.067,0,0,1,4.019-6.913c3.866-3.438,8.34-4.59,11.755-5.66l.062-.02.057,0,1.882-.1.1-.006.085.028a19.876,19.876,0,0,1,6.585,3.424c1.313,1.183,1.678,2.1,1.622,2.128-.1.071-.606-.727-1.95-1.723a22.153,22.153,0,0,0-6.568-2.918l.19.023c-.6.057-1.211.11-1.876.173l.116-.023c-3.365,1.177-7.675,2.462-11.139,5.663a11.838,11.838,0,0,0-3.526,6.2,7.906,7.906,0,0,0,2.015,7.027,13.28,13.28,0,0,0,6.679,3.758,28.452,28.452,0,0,0,7.346.906,7.007,7.007,0,0,0,5.558-2.646,20.1,20.1,0,0,0,2.739-5.134,16.164,16.164,0,0,0,1.339-8.3A21.235,21.235,0,0,0,302.434,444.718Z" transform="translate(-276.056 -439.137)" fill="#455a64"/>
                </g>
                <g id="Group_1139" data-name="Group 1139" transform="translate(21.19 27.793)">
                  <path id="Path_1442" data-name="Path 1442" d="M326.354,452.778a6.737,6.737,0,0,1,.815,1.5,28.313,28.313,0,0,1,1.681,4.6,18.451,18.451,0,0,1,.473,7.777,19.871,19.871,0,0,1-4.5,9.288,31.836,31.836,0,0,1-23.882,10.907,31.175,31.175,0,0,1-15.369-3.888A32.88,32.88,0,0,1,273.3,471.176a25.1,25.1,0,0,1-2.714-6.031,9.655,9.655,0,0,1,.362-6.642c1.907-4.154,5.815-6.379,9.124-8.328A32.841,32.841,0,0,0,284.76,447a26.917,26.917,0,0,0,3.642-4.044,30.961,30.961,0,0,1,3.622-4.1,11.074,11.074,0,0,1,4.76-2.516l-.071.023a21.515,21.515,0,0,1,15.168.758,23.123,23.123,0,0,1,9.443,6.894,32,32,0,0,1,4.024,6.319,11.421,11.421,0,0,1,1,2.442c-.207.127-1.46-3.433-5.564-8.3a22.822,22.822,0,0,0-9.271-6.43c-4.067-1.548-9.308-2.4-14.385-.535l-.031.011-.04.008a9.891,9.891,0,0,0-4.185,2.278,29.879,29.879,0,0,0-3.427,3.968,28.074,28.074,0,0,1-3.795,4.265,34.022,34.022,0,0,1-4.867,3.342c-3.331,1.961-6.9,4.123-8.51,7.706-1.675,3.56.178,7.765,2.284,11.328a31.629,31.629,0,0,0,11.707,11.277,29.992,29.992,0,0,0,14.665,3.795,30.994,30.994,0,0,0,23.092-10.222,19.286,19.286,0,0,0,4.483-8.761,18.444,18.444,0,0,0-.218-7.5C327.316,454.937,326.207,452.832,326.354,452.778Z" transform="translate(-270.168 -435.309)" fill="#455a64"/>
                </g>
                <g id="Group_1140" data-name="Group 1140" transform="translate(11.773 14.302)">
                  <path id="Path_1443" data-name="Path 1443" d="M309.827,431.14a2.252,2.252,0,0,1,.657-.1c.524-.04,1.16-.085,1.933-.144a74.567,74.567,0,0,1,7.465-.082,33.469,33.469,0,0,1,11.6,2.4,22.941,22.941,0,0,1,11.266,10.782c2.782,5.21,4.2,11.538,5.326,18.239a62.639,62.639,0,0,1,1.157,10.57,17.4,17.4,0,0,1-3.5,10.822,66.5,66.5,0,0,1-8.388,8.385,96.151,96.151,0,0,1-9.709,7.593c-6.919,4.661-15.112,8.532-24.151,9.135-8.911.634-18.12-1.865-24.4-7.811a30.533,30.533,0,0,1-6.95-10.323,69.874,69.874,0,0,1-3.6-11.286c-1.822-7.443-2.454-15.061-.49-21.776a35.733,35.733,0,0,1,10.032-16.116,39.441,39.441,0,0,1,13.411-8.127,45.669,45.669,0,0,1,11.557-2.555,37.812,37.812,0,0,1,10.052.218,21.807,21.807,0,0,1-2.6-.014,53.278,53.278,0,0,0-7.4.368,46.749,46.749,0,0,0-11.328,2.756,38.977,38.977,0,0,0-12.984,8.113,34.874,34.874,0,0,0-9.571,15.686c-1.834,6.449-1.2,13.8.631,21.128,1.842,7.273,4.276,15.248,10.222,20.879,5.92,5.589,14.716,8,23.3,7.392,8.674-.574,16.648-4.307,23.446-8.863a95.494,95.494,0,0,0,9.588-7.454,65.928,65.928,0,0,0,8.23-8.145,16.07,16.07,0,0,0,3.288-10.024,62.109,62.109,0,0,0-1.067-10.352c-1.067-6.67-2.411-12.89-5.046-17.956a22.161,22.161,0,0,0-10.672-10.51,33.827,33.827,0,0,0-11.3-2.578c-3.212-.218-5.722-.19-7.42-.192A18.515,18.515,0,0,1,309.827,431.14Z" transform="translate(-266.84 -430.541)" fill="#455a64"/>
                </g>
                <g id="Group_1141" data-name="Group 1141" transform="translate(107.093 32.472)">
                  <path id="Path_1444" data-name="Path 1444" d="M829.789,454.207s-.461.068-1.37.122l-4.027.2c-3.608.147-8.818.362-15.491.637-13.454.5-32.926,1.206-57,1.7-24.071.478-52.755.713-84.586-.294-15.913-.532-32.612-1.409-49.886-2.816-17.279-1.361-35.108-3.385-53.35-5.527-36.475-4.355-71.241-8.524-103.037-9.594a546.99,546.99,0,0,0-84.326,3.28,459.616,459.616,0,0,0-56.007,10.191c-6.514,1.667-11.566,2.994-14.965,4-1.658.458-2.949.815-3.885,1.072-.877.235-1.339.32-1.339.32s.43-.181,1.293-.464l3.846-1.211c3.373-1.1,8.4-2.519,14.908-4.276a436.927,436.927,0,0,1,56.021-10.669,537.625,537.625,0,0,1,84.5-3.6c31.873,1,66.7,5.131,103.162,9.486,18.236,2.142,36.045,4.171,53.3,5.552,17.246,1.423,33.92,2.326,49.812,2.9,31.794,1.078,60.458.954,84.521.608,24.066-.365,43.541-.906,57-1.234,6.676-.156,11.886-.274,15.5-.359,1.721-.025,3.059-.042,4.03-.057C829.325,454.173,829.789,454.207,829.789,454.207Z" transform="translate(-300.523 -436.962)" fill="#263238"/>
                </g>
                <g id="Group_1142" data-name="Group 1142" transform="translate(102.288 21.986)">
                  <path id="Path_1445" data-name="Path 1445" d="M831.394,440.564a163.115,163.115,0,0,1-20.05,6.486c-13.1,3.54-32.57,7.086-56.859,7.989-12.138.47-25.455.235-39.707-.64-14.249-.911-29.425-2.51-45.332-4.582-31.823-4.035-66.585-10.2-103.462-12.947a855.928,855.928,0,0,0-104.189-1.109c-32.026,1.418-60.787,4.086-84.917,6.455-24.125,2.425-43.626,4.658-57.105,6.164l-15.522,1.712-4.041.41c-.911.085-1.384.09-1.384.09s.458-.107,1.364-.24l4.024-.555,15.491-1.989c13.459-1.678,32.943-4.069,57.068-6.63,24.125-2.5,52.9-5.278,84.96-6.772a840.917,840.917,0,0,1,104.365,1c36.973,2.759,71.75,8.965,103.524,13.069,15.887,2.105,31.027,3.747,45.236,4.709,14.212.923,27.487,1.22,39.591.818,24.218-.767,43.643-4.14,56.754-7.5,3.288-.815,6.195-1.585,8.688-2.357,2.507-.722,4.624-1.347,6.308-1.936,1.65-.538,2.932-.957,3.863-1.256C830.932,440.669,831.394,440.564,831.394,440.564Z" transform="translate(-298.825 -433.257)" fill="#263238"/>
                </g>
                <g id="Group_1143" data-name="Group 1143" transform="translate(101.609 48.792)">
                  <path id="Path_1446" data-name="Path 1446" d="M505.37,464.632s-.492.17-1.469.427l-4.352,1.106c-3.832.948-9.514,2.219-16.875,3.648a369.484,369.484,0,0,1-63.15,6.251c-6.707.071-13.736-.017-21.052-.342-3.659-.187-7.389-.374-11.184-.682-3.755-.342-7.729-.371-11.6-1.658a17.23,17.23,0,0,1-5.5-2.751,7.745,7.745,0,0,1-3.206-5.515,7.545,7.545,0,0,1,2.468-6,16.658,16.658,0,0,1,5.561-3.286,249.586,249.586,0,0,1,25.181-6.387,324.255,324.255,0,0,1,114.855-2.963c5.08.719,10.06,1.709,15.052,2.669,4.91,1.126,10.086,2.7,13.762,6.58a11.629,11.629,0,0,1,3.124,7.117,13.886,13.886,0,0,1-1.746,7.488,18.155,18.155,0,0,1-4.938,5.745,24.543,24.543,0,0,1-6.611,3.45,70.464,70.464,0,0,1-14.158,2.867c-4.7.594-9.344,1.276-13.957,1.777-9.226,1.061-18.276,1.888-27.119,2.553a634.2,634.2,0,0,1-94.135-.255,618.235,618.235,0,0,1-62.949-8.142c-7.38-1.322-13.077-2.513-16.929-3.373l-4.381-.965c-.988-.227-1.483-.379-1.483-.379s.518.054,1.514.232l4.412.823c3.869.764,9.579,1.862,16.965,3.1,14.761,2.49,36.217,5.733,62.929,7.666a646.05,646.05,0,0,0,93.956-.059c8.824-.682,17.851-1.525,27.054-2.6,4.6-.507,9.234-1.194,13.923-1.791a69.49,69.49,0,0,0,13.872-2.816c4.44-1.523,8.541-4.316,10.751-8.524a12.484,12.484,0,0,0,1.571-6.7,10.167,10.167,0,0,0-2.748-6.232c-3.257-3.467-8.193-5.049-13-6.13-4.921-.942-9.913-1.938-14.959-2.652a324.721,324.721,0,0,0-114.357,2.838,252.189,252.189,0,0,0-24.988,6.265,15.424,15.424,0,0,0-5.142,3,6.274,6.274,0,0,0-2.1,4.995,6.487,6.487,0,0,0,2.72,4.618,15.875,15.875,0,0,0,5.1,2.561c3.648,1.24,7.53,1.29,11.32,1.647,3.781.32,7.5.521,11.144.722,7.3.357,14.3.475,20.992.439a382.941,382.941,0,0,0,63.056-5.773c7.366-1.341,13.06-2.522,16.912-3.373q2.823-.62,4.381-.965C504.855,464.7,505.37,464.632,505.37,464.632Z" transform="translate(-298.585 -442.729)" fill="#263238"/>
                </g>
                <g id="Group_1144" data-name="Group 1144" transform="translate(342.718 77.338)">
                  <path id="Path_1447" data-name="Path 1447" d="M658.3,465.171a2.918,2.918,0,0,1-.719-.065l-2.083-.337-7.972-1.432c-3.453-.662-7.681-1.435-12.624-2.145-4.938-.736-10.536-1.738-16.784-2.422l-9.786-1.214c-3.4-.413-6.964-.665-10.641-1.027-7.346-.787-15.231-1.169-23.519-1.678-16.592-.719-34.862-.863-54.009.057-19.147,1.039-37.312,3.045-53.746,5.453-8.2,1.35-16,2.536-23.228,4.067-3.62.736-7.137,1.35-10.479,2.108s-6.549,1.5-9.613,2.2c-6.144,1.322-11.611,2.887-16.448,4.123-4.845,1.211-8.974,2.408-12.341,3.421l-7.782,2.236c-.824.224-1.491.4-2.035.546a2.568,2.568,0,0,1-.71.139,2.7,2.7,0,0,1,.662-.28c.532-.184,1.186-.407,1.992-.688l7.709-2.5c3.345-1.1,7.454-2.38,12.288-3.668,4.822-1.313,10.281-2.954,16.422-4.341q4.6-1.1,9.61-2.3c3.345-.787,6.862-1.432,10.485-2.193,7.236-1.588,15.052-2.822,23.262-4.214,16.465-2.487,34.678-4.542,53.879-5.581,19.2-.923,37.522-.739,54.151.059,8.309.546,16.21.976,23.568,1.817,3.682.388,7.247.671,10.655,1.112l9.794,1.313c6.251.753,11.849,1.828,16.781,2.643,4.938.787,9.158,1.644,12.6,2.394,3.348.722,6,1.29,7.924,1.7.829.2,1.5.351,2.052.478A2.679,2.679,0,0,1,658.3,465.171Z" transform="translate(-383.785 -452.816)" fill="#263238"/>
                </g>
                <g id="Group_1145" data-name="Group 1145" transform="translate(452.742 4.076)">
                  <path id="Path_1448" data-name="Path 1448" d="M572.4,426.936a6.1,6.1,0,0,1-1.407.676c-1.1.441-2.471.993-4.146,1.667-1.8.73-4.018,1.573-6.65,2.394-2.626.843-5.586,1.913-8.954,2.762-3.345.937-7.015,1.936-11.023,2.748-3.973.965-8.289,1.636-12.817,2.414a204.7,204.7,0,0,1-59.6.365c-4.539-.722-8.861-1.339-12.848-2.253-4.013-.764-7.7-1.718-11.054-2.612-3.379-.809-6.35-1.842-8.985-2.652-2.643-.79-4.873-1.6-6.682-2.315-1.681-.651-3.059-1.186-4.166-1.616a6.086,6.086,0,0,1-1.415-.657,6.279,6.279,0,0,1,1.52.379l4.248,1.353c1.831.623,4.081,1.356,6.735,2.069,2.649.73,5.626,1.689,9,2.428,3.353.826,7.032,1.715,11.034,2.425,3.973.855,8.278,1.423,12.791,2.105a214.789,214.789,0,0,0,59.213-.365c4.505-.736,8.8-1.358,12.76-2.264,3.993-.756,7.661-1.69,11.006-2.558,3.368-.781,6.333-1.777,8.974-2.541,2.646-.744,4.884-1.506,6.71-2.151,1.709-.566,3.107-1.033,4.231-1.4A6.383,6.383,0,0,1,572.4,426.936Z" transform="translate(-422.664 -426.928)" fill="#263238"/>
                </g>
                <g id="Group_1146" data-name="Group 1146" transform="translate(80.175)">
                  <path id="Path_1449" data-name="Path 1449" d="M491.958,425.511a10.947,10.947,0,0,1-2.038.385c-1.483.212-3.43.492-5.861.838-5.08.812-12.409,2.08-21.388,4.058-9.022,2.074-19.688,4.525-31.514,7.242-11.883,2.632-25.113,5.15-39.217,5.934a143.16,143.16,0,0,1-20.59-.481c-6.622-.693-12.941-1.786-18.929-2.9-11.971-2.27-22.679-4.567-31.8-5.6a107.491,107.491,0,0,0-21.669-.682c-2.567.13-4.531.473-5.875.634a11.292,11.292,0,0,1-2.066.187,10.906,10.906,0,0,1,2.015-.478,49.963,49.963,0,0,1,5.872-.914,99.431,99.431,0,0,1,21.839.218c9.2.908,19.976,3.11,31.93,5.3,5.98,1.075,12.268,2.131,18.827,2.8a143.878,143.878,0,0,0,20.37.447c13.969-.775,27.13-3.235,39.008-5.79s22.549-5.111,31.585-6.933c9.027-1.854,16.411-2.969,21.524-3.605,2.561-.3,4.559-.45,5.909-.566A10.948,10.948,0,0,1,491.958,425.511Z" transform="translate(-291.011 -425.488)" fill="#263238"/>
                </g>
              </g>
            </g>
            <g id="Group_1149" data-name="Group 1149" transform="translate(515.604)">
              <path id="Path_1450" data-name="Path 1450" d="M444.877,425.952a12.839,12.839,0,0,1,2.253-.15l6.464-.136c5.764-.057,13.844-.139,23.766-.235l35.244-.159a75.244,75.244,0,0,1,10.273.365,54.16,54.16,0,0,1,10.485,2.388,57.638,57.638,0,0,1,19.385,11.4c11.778,10.174,18.216,24.923,18.194,38.379a56.091,56.091,0,0,1-11.09,33.232,59.713,59.713,0,0,1-9.344,9.916,56.691,56.691,0,0,1-8.563,5.685l-3.373,1.633c-1,.413-1.882.693-2.575.948a12.756,12.756,0,0,1-2.154.676,12.95,12.95,0,0,1,2.046-.954c.673-.3,1.528-.62,2.5-1.07l3.28-1.738a59.99,59.99,0,0,0,8.309-5.813,60.619,60.619,0,0,0,9.03-9.9,55.518,55.518,0,0,0,10.575-32.6c-.054-13.069-6.328-27.362-17.814-37.293a56.506,56.506,0,0,0-18.876-11.133,52.744,52.744,0,0,0-10.191-2.357,74,74,0,0,0-10.069-.4l-35.264-.159-23.774-.235c-2.7-.057-4.848-.1-6.464-.139A12.682,12.682,0,0,1,444.877,425.952Z" transform="translate(-444.877 -425.27)" fill="#e8505b"/>
            </g>
            <g id="Group_1157" data-name="Group 1157" transform="translate(113.126 1.177)">
              <path id="Path_1451" data-name="Path 1451" d="M685.512,425.808c-3.866,12.619-8.034,20.919-19.371,27.674s-39.036,17.724-51.787,21.131c-54.442,14.543-93.953,19.348-150.176,15.522s-116.89-30.045-161.523-64.449Z" transform="translate(-302.655 -425.686)" fill="#7bc1ba"/>
              <g id="Group_1150" data-name="Group 1150" transform="translate(71.414 0.071)">
                <path id="Path_1452" data-name="Path 1452" d="M355.668,476.661c.009.19-3.526-1.406-5.864-6.628a33.577,33.577,0,0,1-2.394-9.409,67.75,67.75,0,0,0-2.114-11.4,43.837,43.837,0,0,0-10.773-17.761c-3.832-3.8-6.769-5.524-6.628-5.745a7.131,7.131,0,0,1,2.151,1.056,36.269,36.269,0,0,1,5.2,3.936,41.309,41.309,0,0,1,11.458,18.08,61.666,61.666,0,0,1,2.055,11.654,35.884,35.884,0,0,0,2.006,9.177C352.722,474.669,355.852,476.486,355.668,476.661Z" transform="translate(-327.89 -425.711)" fill="#ebebeb"/>
              </g>
              <g id="Group_1151" data-name="Group 1151" transform="translate(138.577 0.122)">
                <path id="Path_1453" data-name="Path 1453" d="M352.146,425.729c.28.008-.158,3.7.8,9.48a68.454,68.454,0,0,0,2.589,9.953c1.245,3.67,2.954,7.6,4.76,11.736a112.67,112.67,0,0,1,4.641,11.931,45.624,45.624,0,0,1,2.012,10.312,27.772,27.772,0,0,1-.371,7.081,6.9,6.9,0,0,1-.747,2.487c-.272-.045.73-3.648.079-9.475a50.08,50.08,0,0,0-2.27-10c-1.194-3.687-2.889-7.615-4.695-11.755a127.031,127.031,0,0,1-4.7-11.894,60.119,60.119,0,0,1-2.332-10.227,34.421,34.421,0,0,1-.19-7.075A7.683,7.683,0,0,1,352.146,425.729Z" transform="translate(-351.623 -425.729)" fill="#ebebeb"/>
              </g>
              <g id="Group_1152" data-name="Group 1152" transform="translate(199.345 0.122)">
                <path id="Path_1454" data-name="Path 1454" d="M390.767,490.65c-.292-.091,1.653-3.639,1.692-9.862A37.673,37.673,0,0,0,390.88,470.1,68.8,68.8,0,0,0,385.7,457.8c-4.449-8.447-8.866-15.958-11.057-21.96a26.054,26.054,0,0,1-1.525-7.364,7.807,7.807,0,0,1,.136-2.751c.306-.034.062,3.976,2.363,9.749,2.369,5.728,6.913,13.151,11.393,21.646a64.5,64.5,0,0,1,5.173,12.6,36.029,36.029,0,0,1,1.313,11.091,23.922,23.922,0,0,1-1.472,7.38A7.2,7.2,0,0,1,390.767,490.65Z" transform="translate(-373.097 -425.729)" fill="#ebebeb"/>
              </g>
              <g id="Group_1153" data-name="Group 1153" transform="translate(264.599 0.12)">
                <path id="Path_1455" data-name="Path 1455" d="M405.193,425.73a11.828,11.828,0,0,1-.665,2.42,15.882,15.882,0,0,0-.47,6.6,67.037,67.037,0,0,0,2.456,9.732,47.743,47.743,0,0,1,2.419,12.33,36.96,36.96,0,0,1-6.282,21.725,32.844,32.844,0,0,1-4.477,5.266,7.831,7.831,0,0,1-2.009,1.545c-.2-.2,2.581-2.533,5.612-7.378a38.35,38.35,0,0,0,5.682-21.106,49.978,49.978,0,0,0-2.25-12.007,58.26,58.26,0,0,1-2.19-10,14.773,14.773,0,0,1,.965-6.894A6.456,6.456,0,0,1,405.193,425.73Z" transform="translate(-396.156 -425.728)" fill="#ebebeb"/>
              </g>
              <g id="Group_1154" data-name="Group 1154" transform="translate(318.566 0.122)">
                <path id="Path_1456" data-name="Path 1456" d="M420.482,471.413c-.226-.13,1.265-2.425,2.462-6.554a29.53,29.53,0,0,0,.028-16.433c-1.916-6.217-5.323-11.365-6.605-15.644-1.429-4.236-1.169-7.072-1.024-7.052.26-.023.376,2.705,2,6.7,1.463,4.041,5,9.027,7.041,15.584a28.092,28.092,0,0,1-.45,17.166C422.429,469.381,420.592,471.506,420.482,471.413Z" transform="translate(-415.226 -425.729)" fill="#ebebeb"/>
              </g>
              <g id="Group_1155" data-name="Group 1155" transform="translate(51.575 24.417)">
                <path id="Path_1457" data-name="Path 1457" d="M631.2,437.505a16.531,16.531,0,0,1-2.963,1.237,34.851,34.851,0,0,1-9.056,1.67,59.827,59.827,0,0,1-14.526-1.149c-5.516-1.276-11.917-1.729-19.031-2.094-7.086-.328-14.97-.623-23.27-1.435a82.777,82.777,0,0,0-26.29,2.773c-9.081,2.338-18.3,5.912-28.03,9.211-9.729,3.257-20.053,6.268-30.976,7.329a154.982,154.982,0,0,1-31.839-.184c-10.222-1.152-20.016-2.745-29.267-4.579-18.508-3.62-35.1-7.148-49.249-8.7-14.13-1.616-25.687-1.463-33.586-.56a41.5,41.5,0,0,0-5.235.7l-3.823.628-2.36.359a3.344,3.344,0,0,1-.818.074,3.306,3.306,0,0,1,.784-.221c.608-.13,1.378-.3,2.335-.5l3.812-.773a39.667,39.667,0,0,1,5.238-.832c7.918-1.087,19.555-1.4,33.767.093,14.226,1.423,30.9,4.862,49.391,8.4,9.242,1.794,19,3.351,29.159,4.474a154.859,154.859,0,0,0,31.531.156c10.771-1.044,20.987-4.01,30.676-7.233,9.69-3.263,18.96-6.826,28.155-9.158a83.552,83.552,0,0,1,26.706-2.677c8.377.869,16.1,1.217,23.248,1.616,7.106.427,13.615.965,19.136,2.326a61.325,61.325,0,0,0,14.339,1.384,37.413,37.413,0,0,0,8.993-1.384C630.165,437.89,631.17,437.426,631.2,437.505Z" transform="translate(-320.88 -434.314)" fill="#ebebeb"/>
              </g>
              <g id="Group_1156" data-name="Group 1156" transform="translate(17.735 0.718)">
                <path id="Path_1458" data-name="Path 1458" d="M670.456,433.1a4.688,4.688,0,0,1-.883.32c-.674.2-1.545.467-2.646.8l-1.961.569-2.414.478-2.819.552c-1.013.161-2.1.252-3.249.393-9.2,1.228-22.7.252-38.892-2.81-8.116-1.457-16.954-3.3-26.516-4.681a143.232,143.232,0,0,0-30.716-1.087c-21.7,1.373-45.021,7.488-70.174,9.7-12.587,1.172-24.968.526-36.778-.625-11.826-1.163-23.143-2.847-33.953-4.115a275.738,275.738,0,0,0-57.648-1.29c-16.4,1.316-29.592,3.339-38.708,4.635-4.488.654-8.006,1.163-10.5,1.525l-2.737.368a4.423,4.423,0,0,1-.94.073,4.591,4.591,0,0,1,.917-.224c.688-.13,1.585-.3,2.714-.509l10.457-1.8c9.1-1.472,22.272-3.656,38.713-5.108a271.006,271.006,0,0,1,57.892.982c21.621,2.374,45.409,6.848,70.451,4.619,24.968-2.185,48.335-8.266,70.2-9.582a143.341,143.341,0,0,1,30.982,1.231c9.611,1.443,18.443,3.348,26.531,4.867,16.139,3.187,29.5,4.307,38.645,3.263,1.141-.116,2.224-.187,3.232-.323l2.813-.481q1.3-.221,2.414-.408l1.964-.5c1.115-.275,2-.49,2.677-.657A4.3,4.3,0,0,1,670.456,433.1Z" transform="translate(-308.922 -425.94)" fill="#ebebeb"/>
              </g>
            </g>
            <g id="Group_1158" data-name="Group 1158" transform="translate(117.504 1.299)" opacity="0.4">
              <path id="Path_1459" data-name="Path 1459" d="M304.2,425.729c23.678,9.766,49.838,18.887,74.846,24.422s51.51,6.628,75.964-.99c13.875-4.324,26.927-11.379,41.206-14.073,17.217-3.249,34.938.062,52.071,3.741,22.526,4.834,45.4,10.343,68.331,8.17s52.563-.475,62.473-21.27Z" transform="translate(-304.202 -425.729)"/>
            </g>
          </g>
        </g>
      </g>
    </g>
  </g>
</svg>
