<svg xmlns="http://www.w3.org/2000/svg" xmlns:xlink="http://www.w3.org/1999/xlink" width="1126" height="724.354" viewBox="0 0 1126 724.354">
  <defs>
    <clipPath id="clip-path">
      <path id="Path_105" data-name="Path 105" d="M900.168,231.557a282.726,282.726,0,0,0-49.406,3.923,115.269,115.269,0,0,1-91.225-23.816A285.018,285.018,0,0,0,580.31,148.612c-130.659,0-240.858,87.537-275.183,207.161a116.21,116.21,0,0,1-66.856,74.9A189.034,189.034,0,0,0,122.145,609.121c2.075,100.435,83.769,182.491,184.191,184.99a188.336,188.336,0,0,0,134.647-51.617,101.119,101.119,0,0,1,87.652-25.979,288.731,288.731,0,0,0,112.211-1.768c29.468-6.354,60.086,1.224,83.829,19.8A280.048,280.048,0,0,0,897.85,794.171c154.38,0,279.717-124.361,281.3-278.37C1180.733,360.9,1055.076,232.809,900.168,231.557Z" transform="translate(-122.104 -148.612)" fill="none"/>
    </clipPath>
  </defs>
  <g id="Group_110" data-name="Group 110" transform="translate(-104.74 -128.956)">
    <g id="Group_98" data-name="Group 98" transform="translate(148.209 178.165)">
      <g id="Group_93" data-name="Group 93">
        <g id="Group_92" data-name="Group 92" clip-path="url(#clip-path)">
          <g id="Group_19" data-name="Group 19">
            <path id="Path_2" data-name="Path 2" d="M900.168,231.557a282.726,282.726,0,0,0-49.406,3.923,115.269,115.269,0,0,1-91.225-23.816A285.018,285.018,0,0,0,580.31,148.612c-130.659,0-240.858,87.537-275.183,207.161a116.21,116.21,0,0,1-66.856,74.9A189.034,189.034,0,0,0,122.145,609.121c2.075,100.435,83.769,182.491,184.191,184.99a188.336,188.336,0,0,0,134.647-51.617,101.119,101.119,0,0,1,87.652-25.979,288.731,288.731,0,0,0,112.211-1.768c29.468-6.354,60.086,1.224,83.829,19.8A280.048,280.048,0,0,0,897.85,794.171c154.38,0,279.717-124.361,281.3-278.37C1180.733,360.9,1055.076,232.809,900.168,231.557Z" transform="translate(-122.104 -148.612)" fill="#d1f4f5"/>
            <g id="Group_1" data-name="Group 1" transform="translate(256.358 108.068)">
              <path id="Path_3" data-name="Path 3" d="M794.958,267.539H354.75a29.851,29.851,0,0,1,15.274-13.454,27.438,27.438,0,0,1,19.487.218,37.169,37.169,0,0,1,58.013-20.541c10.2-17.046,32.32-27.468,52.145-26.2a55.6,55.6,0,0,1,46.392,32.533c6.99-2.516,15-1.264,21.9,1.507a30.936,30.936,0,0,1,16.007,14.793l195.324.473C784.466,260.068,789.781,264.339,794.958,267.539Z" transform="translate(-28.681 -168.208)" fill="#fff"/>
              <path id="Path_4" data-name="Path 4" d="M266.838,238.537H435.826a37.107,37.107,0,0,0-18.4-21.194,34.986,34.986,0,0,0-27.2-1.2c-6.842-14.833-22.624-24.9-38.949-24.336a42.808,42.808,0,0,0-37.6,26.91c-8-3.54-18.345-1.935-26.6.961S270.876,230.773,266.838,238.537Z" transform="translate(-160.855 -191.779)" fill="#fff"/>
              <path id="Path_5" data-name="Path 5" d="M224.5,224.053h75.1c-2.3-11.408-13.266-20.656-24.782-22.359a29.275,29.275,0,0,0-29.291,14.715,14.423,14.423,0,0,0-11.924-1.369C229.7,216.3,226.044,220.24,224.5,224.053Z" transform="translate(-224.504 -177.295)" fill="#fff"/>
              <path id="Path_6" data-name="Path 6" d="M366.393,246.951H292c1.547-8.5,8.83-15.95,17.4-17.046a21.082,21.082,0,0,1,21.2,11.716,23.337,23.337,0,0,1,17.987-5.653C354.912,236.7,362.823,241.686,366.393,246.951Z" transform="translate(-123.019 -134.684)" fill="#fff"/>
              <path id="Path_7" data-name="Path 7" d="M340,254.128h89.71c-3.893-8.872-12.938-15.118-22.539-16.418a28.964,28.964,0,0,0-25.861,10.239c-4.661-6.216-13.554-8.124-21.154-6.517S345.682,248.826,340,254.128Z" transform="translate(-50.852 -123.086)" fill="#fff"/>
            </g>
            <path id="Path_8" data-name="Path 8" d="M244.236,277.426c22.659-28.467,58.927-45.581,95.308-44.975S411.6,251.373,433.3,280.578c10.672-4.737,25.518-3.675,35.209,2.836a35.36,35.36,0,0,1,15.331,29.849c19.772-6.124,41.933-4.574,60.169,5.215a79.273,79.273,0,0,1,38.111,46.96c8.457-6.97,22.649-9.057,33.567-8.066a42.664,42.664,0,0,1,28.424,14.818c8.049-18.361,27.168-31.654,46.385-37.372a70.262,70.262,0,0,1,57.663,8.424c2.684-8.134,11.511-14.38,19.943-15.877a24.386,24.386,0,0,1,22.882,8.685c4.629-32.057,32.022-57.793,63.351-66.009s65.216-.876,93.871,14.22c20.353-30.46,55.642-52.175,91.873-57.59A133.645,133.645,0,0,1,1143,254.963L1172.773,424.8H133.226v-75.32Z" transform="translate(-105.381 -33.352)" fill="#fff"/>
            <g id="Group_18" data-name="Group 18" transform="translate(277.621 53.38)">
              <g id="Group_2" data-name="Group 2" transform="translate(63.534)">
                <path id="Path_9" data-name="Path 9" d="M266.676,184.258a2.705,2.705,0,0,1-.285-.015,2.505,2.505,0,0,1-2.181-2.048,9.2,9.2,0,0,0-4.534-6.314,2.5,2.5,0,0,1,2.408-4.391,14.075,14.075,0,0,1,5.052,4.739,19.484,19.484,0,0,1,8.922-6.171,2.5,2.5,0,1,1,1.56,4.759,14.436,14.436,0,0,0-8.642,7.924A2.5,2.5,0,0,1,266.676,184.258Z" transform="translate(-258.375 -169.934)" fill="#9ee6e0"/>
              </g>
              <g id="Group_3" data-name="Group 3" transform="translate(101.06 0.472)">
                <path id="Path_10" data-name="Path 10" d="M275.873,184.278a2.417,2.417,0,0,1-.593-.07,2.5,2.5,0,0,1-1.843-3.024,16.194,16.194,0,0,1,9.18-10.855,2.489,2.489,0,0,1,2.161.088,22,22,0,0,1,9.471,9.794,2.5,2.5,0,1,1-4.571,2.043,17.083,17.083,0,0,0-6.166-6.782,11.12,11.12,0,0,0-5.207,6.9A2.506,2.506,0,0,1,275.873,184.278Z" transform="translate(-273.365 -170.123)" fill="#7cbab6"/>
              </g>
              <g id="Group_4" data-name="Group 4" transform="translate(44.276 35.101)">
                <path id="Path_11" data-name="Path 11" d="M259.61,198.259a2.51,2.51,0,0,1-2.321-1.562,14.342,14.342,0,0,0-5.46-6.592,2.5,2.5,0,1,1,2.714-4.206,19.338,19.338,0,0,1,5.881,5.978l9.118-7.368a2.5,2.5,0,1,1,3.147,3.9l-11.506,9.3A2.5,2.5,0,0,1,259.61,198.259Z" transform="translate(-250.683 -183.955)" fill="#7cbab6"/>
              </g>
              <g id="Group_5" data-name="Group 5" transform="translate(0 18.351)">
                <path id="Path_12" data-name="Path 12" d="M235.5,189.59a2.5,2.5,0,0,1-2.2-3.7,18.4,18.4,0,0,1,10.029-8.487,2.507,2.507,0,0,1,2.676.691,44.211,44.211,0,0,0,3.37,3.174,47.189,47.189,0,0,1,3.773,3.575,2.5,2.5,0,1,1-3.718,3.35,44.665,44.665,0,0,0-3.367-3.169c-.851-.751-1.725-1.522-2.526-2.3a13.358,13.358,0,0,0-5.841,5.558A2.506,2.506,0,0,1,235.5,189.59Z" transform="translate(-232.997 -177.265)" fill="#9ee6e0"/>
              </g>
              <g id="Group_6" data-name="Group 6" transform="translate(321.875 57.313)">
                <path id="Path_13" data-name="Path 13" d="M373.259,201.676a2.51,2.51,0,0,1-2-.991,7.389,7.389,0,0,0-6.822-2.776,2.5,2.5,0,1,1-.739-4.952,12.411,12.411,0,0,1,9.4,2.524,10.4,10.4,0,0,1,9.846-2.155,2.5,2.5,0,0,1-1.51,4.774,5.385,5.385,0,0,0-6.016,2.328,2.5,2.5,0,0,1-2.01,1.244C373.362,201.673,373.312,201.676,373.259,201.676Z" transform="translate(-361.568 -192.828)" fill="#9ee6e0"/>
              </g>
              <g id="Group_7" data-name="Group 7" transform="translate(530.069 66.161)">
                <path id="Path_14" data-name="Path 14" d="M456.421,205.209a2.511,2.511,0,0,1-2-.989,7.391,7.391,0,0,0-6.822-2.779,2.5,2.5,0,1,1-.738-4.952,12.412,12.412,0,0,1,9.4,2.526,10.39,10.39,0,0,1,9.846-2.158,2.5,2.5,0,1,1-1.51,4.774,5.39,5.39,0,0,0-6.016,2.331,2.5,2.5,0,0,1-2.01,1.242C456.524,205.209,456.474,205.209,456.421,205.209Z" transform="translate(-444.73 -196.362)" fill="#9ee6e0"/>
              </g>
              <g id="Group_8" data-name="Group 8" transform="translate(350.675 77.93)">
                <path id="Path_15" data-name="Path 15" d="M384.19,211.648H384.1a2.509,2.509,0,0,1-1.935-1.036,11.8,11.8,0,0,0-7.092-4.594,2.5,2.5,0,1,1,1.016-4.9,16.9,16.9,0,0,1,8.317,4.456,12.009,12.009,0,0,1,6.8-2.261h.035a2.5,2.5,0,0,1,.035,5.007,6.978,6.978,0,0,0-5.17,2.441A2.494,2.494,0,0,1,384.19,211.648Z" transform="translate(-373.072 -201.063)" fill="#9ee6e0"/>
              </g>
              <g id="Group_9" data-name="Group 9" transform="translate(362.939 49.392)">
                <path id="Path_16" data-name="Path 16" d="M393.763,200.787a2.494,2.494,0,0,1-1.953-.936,30.111,30.111,0,0,0-2.8-2.774c-.759-.693-1.535-1.4-2.226-2.105a7.031,7.031,0,0,0-4,3.818,2.5,2.5,0,0,1-4.624-1.915,12.12,12.12,0,0,1,9.058-7.177,2.5,2.5,0,0,1,2.353.9,29.621,29.621,0,0,0,2.809,2.779,32.4,32.4,0,0,1,3.33,3.337,2.5,2.5,0,0,1-1.948,4.071Z" transform="translate(-377.971 -189.664)" fill="#7cbab6"/>
              </g>
              <g id="Group_10" data-name="Group 10" transform="translate(523.678 96.228)">
                <path id="Path_17" data-name="Path 17" d="M457.972,219.5a2.5,2.5,0,0,1-1.953-.936,30.182,30.182,0,0,0-2.806-2.776c-.756-.691-1.532-1.4-2.223-2.1a7.031,7.031,0,0,0-4,3.818,2.5,2.5,0,0,1-4.627-1.918,12.13,12.13,0,0,1,9.06-7.175,2.5,2.5,0,0,1,2.353.9,29.625,29.625,0,0,0,2.809,2.779,32.644,32.644,0,0,1,3.33,3.335,2.5,2.5,0,0,1-1.948,4.073Z" transform="translate(-442.177 -208.372)" fill="#7cbab6"/>
              </g>
              <g id="Group_11" data-name="Group 11" transform="translate(307.289 93.683)">
                <path id="Path_18" data-name="Path 18" d="M365.623,215.46a2.809,2.809,0,0,1-.288-.015,2.51,2.51,0,0,1-1.82-1.139,3.95,3.95,0,0,0-4.434-1.52,2.5,2.5,0,0,1-1.672-4.722,9,9,0,0,1,8.469,1.5,13.455,13.455,0,0,1,6.124-2.2,2.5,2.5,0,0,1,.426,4.989,8.721,8.721,0,0,0-5.062,2.4A2.5,2.5,0,0,1,365.623,215.46Z" transform="translate(-355.742 -207.356)" fill="#7cbab6"/>
              </g>
              <g id="Group_12" data-name="Group 12" transform="translate(556.212 84.463)">
                <path id="Path_19" data-name="Path 19" d="M465.055,211.778a2.241,2.241,0,0,1-.288-.018,2.5,2.5,0,0,1-1.82-1.137,3.954,3.954,0,0,0-4.436-1.522,2.5,2.5,0,0,1-1.67-4.722,9,9,0,0,1,8.467,1.5,13.466,13.466,0,0,1,6.126-2.2,2.5,2.5,0,0,1,.426,4.989,8.724,8.724,0,0,0-5.062,2.4A2.5,2.5,0,0,1,465.055,211.778Z" transform="translate(-455.173 -203.672)" fill="#9ee6e0"/>
              </g>
              <g id="Group_13" data-name="Group 13" transform="translate(163.822 202.212)">
                <path id="Path_20" data-name="Path 20" d="M313.213,260.486a2.064,2.064,0,0,1-.25-.013,2.5,2.5,0,0,1-1.913-1.227,7.168,7.168,0,0,0-9.1-2.927,2.5,2.5,0,1,1-2.033-4.574,12.143,12.143,0,0,1,13.727,2.7c4.036-2.318,9.543-1.555,13.143.911a2.5,2.5,0,1,1-2.831,4.128c-2.564-1.755-6.837-2.125-8.88.16A2.507,2.507,0,0,1,313.213,260.486Z" transform="translate(-298.435 -250.707)" fill="#9ee6e0"/>
              </g>
              <g id="Group_14" data-name="Group 14" transform="translate(213.826 182.998)">
                <path id="Path_21" data-name="Path 21" d="M334.5,257.352A2.5,2.5,0,0,1,332,255c-.113-1.833-1.765-4.952-3.365-6.962a5.881,5.881,0,0,0-5.478,3.194,2.5,2.5,0,1,1-4.5-2.2,11.006,11.006,0,0,1,11.739-5.816,2.508,2.508,0,0,1,1.354.764c1.9,2.07,5,6.807,5.245,10.707a2.5,2.5,0,0,1-2.346,2.651C334.6,257.352,334.55,257.352,334.5,257.352Z" transform="translate(-318.409 -243.032)" fill="#9ee6e0"/>
              </g>
              <g id="Group_15" data-name="Group 15" transform="translate(221.984 218.009)">
                <path id="Path_22" data-name="Path 22" d="M331.655,270.128a2.371,2.371,0,0,1-.588-.073,2.491,2.491,0,0,1-1.893-2.1,7.4,7.4,0,0,0-5.53-5.986,2.5,2.5,0,1,1,1.056-4.894,12.28,12.28,0,0,1,8.021,6.008,15.241,15.241,0,0,1,9.561-2.841,2.5,2.5,0,0,1,2.343,2.656,2.574,2.574,0,0,1-2.656,2.341,10.109,10.109,0,0,0-8.262,3.818A2.507,2.507,0,0,1,331.655,270.128Z" transform="translate(-321.668 -257.017)" fill="#7cbab6"/>
              </g>
              <g id="Group_16" data-name="Group 16" transform="translate(250.746 204.597)">
                <path id="Path_23" data-name="Path 23" d="M348.437,265.448a2.507,2.507,0,0,1-2.3-1.512,22.347,22.347,0,0,0-4.321-6.479,17.134,17.134,0,0,0-3.913,5.127,2.5,2.5,0,0,1-4.484-2.231,22.222,22.222,0,0,1,7.08-8.239,2.5,2.5,0,0,1,3.029.115,26.924,26.924,0,0,1,7.205,9.721,2.5,2.5,0,0,1-1.3,3.292A2.531,2.531,0,0,1,348.437,265.448Z" transform="translate(-333.156 -251.659)" fill="#9ee6e0"/>
              </g>
              <g id="Group_17" data-name="Group 17" transform="translate(184.865 240.236)">
                <path id="Path_24" data-name="Path 24" d="M325.538,276.237a2.5,2.5,0,0,1-1.945-.924,3.446,3.446,0,0,0-4.914-.35,2.5,2.5,0,0,1-4.251-1.069,4.274,4.274,0,0,0-4.631-2.939,2.5,2.5,0,1,1-.9-4.924,9.346,9.346,0,0,1,8.925,3.635,8.753,8.753,0,0,1,3.515-.566,8.4,8.4,0,0,1,6.149,3.054,2.5,2.5,0,0,1-1.943,4.083Z" transform="translate(-306.84 -265.895)" fill="#7cbab6"/>
              </g>
            </g>
          </g>
          <g id="Group_23" data-name="Group 23" transform="translate(27.844 357.73)">
            <rect id="Rectangle_1" data-name="Rectangle 1" width="1039.547" height="307.806" transform="translate(0 0.001)" fill="#9ee6e0"/>
            <g id="Group_22" data-name="Group 22" transform="translate(224.759)">
              <g id="Group_20" data-name="Group 20">
                <path id="Path_25" data-name="Path 25" d="M477.944,294.109h0a2.6,2.6,0,0,1-2.6,2.6H395.061a2.237,2.237,0,0,0-2.236,2.238h0a2.237,2.237,0,0,0,2.236,2.238H424.64a2.4,2.4,0,0,1,2.4,2.4h0a2.4,2.4,0,0,1-2.4,2.4H299.152a2.3,2.3,0,0,0-2.3,2.293h0a2.3,2.3,0,0,0,2.3,2.3h29.729a2.609,2.609,0,0,1,2.609,2.609h0a2.608,2.608,0,0,1-2.609,2.606H223V291.505H475.34A2.6,2.6,0,0,1,477.944,294.109Z" transform="translate(-223.004 -291.505)" fill="#d1f4f5"/>
                <path id="Path_26" data-name="Path 26" d="M297.063,304.338h-22.8a2.606,2.606,0,0,1-2.609-2.606h0a2.607,2.607,0,0,1,2.609-2.609h22.8a2.607,2.607,0,0,1,2.609,2.609h0A2.606,2.606,0,0,1,297.063,304.338Z" transform="translate(-149.866 -280.051)" fill="#d1f4f5"/>
                <path id="Path_27" data-name="Path 27" d="M297.534,304.338h-7.651a2.606,2.606,0,0,1-2.609-2.606h0a2.607,2.607,0,0,1,2.609-2.609h7.651a2.606,2.606,0,0,1,2.606,2.609h0A2.606,2.606,0,0,1,297.534,304.338Z" transform="translate(-126.374 -280.051)" fill="#d1f4f5"/>
              </g>
              <g id="Group_21" data-name="Group 21" transform="translate(261.915)">
                <path id="Path_28" data-name="Path 28" d="M559.2,291.505H340.439a2.6,2.6,0,0,0-2.6,2.6h0a2.6,2.6,0,0,0,2.6,2.6h88.779a2.187,2.187,0,0,1,2.188,2.186h0a2.187,2.187,0,0,1-2.188,2.185H391.192a2.659,2.659,0,0,0-2.659,2.661h0a2.657,2.657,0,0,0,2.659,2.659h99.155a3.332,3.332,0,0,1,3.332,3.332h0a3.33,3.33,0,0,1-3.332,3.33H469.081a2.626,2.626,0,0,0-2.626,2.629h0a2.626,2.626,0,0,0,2.626,2.626H559.2Z" transform="translate(-312.267 -291.505)" fill="#d1f4f5"/>
                <path id="Path_29" data-name="Path 29" d="M337.31,300.651H357.5a2.659,2.659,0,0,0,2.661-2.659h0a2.661,2.661,0,0,0-2.661-2.661H337.31a2.659,2.659,0,0,0-2.659,2.661h0A2.657,2.657,0,0,0,337.31,300.651Z" transform="translate(-317.059 -285.753)" fill="#d1f4f5"/>
                <path id="Path_30" data-name="Path 30" d="M330.285,300.651h4.509a2.659,2.659,0,0,0,2.661-2.659h0a2.662,2.662,0,0,0-2.661-2.661h-4.509a2.662,2.662,0,0,0-2.661,2.661h0A2.659,2.659,0,0,0,330.285,300.651Z" transform="translate(-327.624 -285.753)" fill="#d1f4f5"/>
              </g>
            </g>
            <path id="Path_31" data-name="Path 31" d="M323.846,310.845h0a2.6,2.6,0,0,0,2.6,2.6h80.277a2.239,2.239,0,0,1,2.238,2.238h0a2.239,2.239,0,0,1-2.238,2.238H377.148a2.4,2.4,0,0,0-2.4,2.4h0a2.4,2.4,0,0,0,2.4,2.4H751.922a2.293,2.293,0,0,1,2.293,2.293h0a2.293,2.293,0,0,1-2.293,2.3h-317a2.607,2.607,0,0,0-2.609,2.609h0a2.606,2.606,0,0,0,2.609,2.606H886.179V308.241H326.45A2.6,2.6,0,0,0,323.846,310.845Z" transform="translate(153.369 -266.343)" fill="#7bc1ba"/>
            <path id="Path_32" data-name="Path 32" d="M266.088,319.206H398.46a3.444,3.444,0,0,1,3.442,3.442h0a3.442,3.442,0,0,1-3.442,3.442h-28.9a3.13,3.13,0,0,0-3.129,3.129h0a3.129,3.129,0,0,0,3.129,3.129h70.248a3.4,3.4,0,0,1,3.4,3.4h0a3.4,3.4,0,0,1-3.4,3.4h-68.22a8.077,8.077,0,0,0-8.079,8.076h0a8.079,8.079,0,0,0,8.079,8.079H519.355a3.546,3.546,0,0,1,3.547,3.548h0a3.546,3.546,0,0,1-3.547,3.545H475.963a5.633,5.633,0,0,0-5.633,5.633h0a5.632,5.632,0,0,0,5.633,5.633H632.849a3.13,3.13,0,0,1,3.129,3.129h0a3.129,3.129,0,0,1-3.129,3.129H612.508a4.381,4.381,0,0,0-4.381,4.381h0a4.379,4.379,0,0,0,4.381,4.381h181.5a4.068,4.068,0,0,0,4.068-4.068h0a4.07,4.07,0,0,0-4.068-4.068H783.821a4.692,4.692,0,0,1-4.694-4.694h0a4.694,4.694,0,0,1,4.694-4.694h49.461a4.538,4.538,0,0,0,4.539-4.536h0a4.54,4.54,0,0,0-4.539-4.539h-7.04a3.127,3.127,0,0,1-3.129-3.129h0a3.129,3.129,0,0,1,3.129-3.129H914.02a3.6,3.6,0,0,0,3.6-3.6h0a3.6,3.6,0,0,0-3.6-3.6H897.434a3.6,3.6,0,0,1-3.6-3.6h0a3.6,3.6,0,0,1,3.6-3.6h75.583v96.241H266.088l.143-108.033" transform="translate(66.531 -249.857)" fill="#7bc1ba"/>
            <path id="Path_33" data-name="Path 33" d="M310.171,313.448H332.4a2.6,2.6,0,0,0,2.6-2.6h0a2.6,2.6,0,0,0-2.6-2.6H310.171a2.6,2.6,0,0,0-2.6,2.6h0A2.6,2.6,0,0,0,310.171,313.448Z" transform="translate(128.894 -266.343)" fill="#7bc1ba"/>
            <path id="Path_34" data-name="Path 34" d="M333.893,326.091H328.28a3.44,3.44,0,0,1-3.442-3.442h0a3.442,3.442,0,0,1,3.442-3.442h5.613a3.443,3.443,0,0,1,3.442,3.442h0A3.442,3.442,0,0,1,333.893,326.091Z" transform="translate(154.861 -249.857)" fill="#7bc1ba"/>
            <path id="Path_35" data-name="Path 35" d="M359.009,321.074h9.018a2.608,2.608,0,0,0,2.609-2.606h0a2.609,2.609,0,0,0-2.609-2.609h-9.018a2.606,2.606,0,0,0-2.606,2.609h0A2.606,2.606,0,0,0,359.009,321.074Z" transform="translate(202.318 -254.889)" fill="#7bc1ba"/>
          </g>
          <g id="Group_24" data-name="Group 24" transform="translate(691.549 220.872)">
            <path id="Path_36" data-name="Path 36" d="M774.181,400.511H398.338l6.8-6.8a32.626,32.626,0,0,1,23.075-9.558h0a32.642,32.642,0,0,0,23.077-9.558l8.189-8.191a62.184,62.184,0,0,1,43.964-18.21h0a62.175,62.175,0,0,0,43.966-18.21l15.745-15.744a62.164,62.164,0,0,1,43.964-18.21h.143a62.184,62.184,0,0,0,43.964-18.21l22.767-22.769a62.186,62.186,0,0,1,43.966-18.21h56.226Z" transform="translate(-398.338 -236.838)" fill="#f0bf6c"/>
            <path id="Path_37" data-name="Path 37" d="M740.29,245.79H698.514A62.1,62.1,0,0,0,654.6,263.978l-28.174,28.174a24.362,24.362,0,0,1-17.221,7.132h0a24.344,24.344,0,0,0-17.219,7.135l-4.974,4.972a24.353,24.353,0,0,1-17.221,7.135H555.41a53.572,53.572,0,0,0-37.875,15.687l-1.207,1.207a53.565,53.565,0,0,1-37.875,15.689h0a53.573,53.573,0,0,0-38.406,16.225L420.88,387.052H740.29Z" transform="translate(-364.447 -223.379)" fill="#cfa05d"/>
            <path id="Path_38" data-name="Path 38" d="M474.171,340.567l11.3-11.3a24.916,24.916,0,0,1,17.62-7.3h14.585a24.909,24.909,0,0,0,17.62-7.3l6.3-6.3A58.257,58.257,0,0,1,582.79,291.3h12.492a24.91,24.91,0,0,0,17.62-7.3h0a24.929,24.929,0,0,1,17.62-7.3h29.646v63.859Z" transform="translate(-284.324 -176.894)" fill="#979168"/>
          </g>
          <g id="Group_60" data-name="Group 60" transform="translate(-24.448 205.193)">
            <g id="Group_27" data-name="Group 27" transform="translate(185.453)">
              <g id="Group_25" data-name="Group 25" transform="translate(87.304 39.63)">
                <path id="Path_39" data-name="Path 39" d="M282.039,305.162a42.782,42.782,0,0,0-10.888-12.432l37.112,13.01a44.667,44.667,0,0,0-19.6-15.191,36.608,36.608,0,0,0-15.532-2.524,228.36,228.36,0,0,1,34.05-11.854,34.592,34.592,0,0,0-24.8-.926,31.365,31.365,0,0,0-13.661,9.714,252.258,252.258,0,0,1,22.924-31.126,31.771,31.771,0,0,0-21.217,13.1,33.242,33.242,0,0,0-5.04,10.607,42.7,42.7,0,0,0-2.463-10.965,39.185,39.185,0,0,0-15.684-20.171,260.433,260.433,0,0,0,13.026,37.021,36.98,36.98,0,0,0-13.406-9.113,31.849,31.849,0,0,0-25.568.936l36.581,12.823a32.468,32.468,0,0,0-16.47,4.384,37,37,0,0,0-16.726,21.608,258.3,258.3,0,0,1,37.737-22.869,260.612,260.612,0,0,0-16.438,80.444l8.757.13a260.9,260.9,0,0,1,2.619-39.575,264.093,264.093,0,0,1,8.8-38.862,231.818,231.818,0,0,0,20.939,34.355A36.677,36.677,0,0,0,282.039,305.162Z" transform="translate(-221.289 -246.405)" fill="#638674"/>
              </g>
              <g id="Group_26" data-name="Group 26">
                <path id="Path_40" data-name="Path 40" d="M265.872,297.626a52.837,52.837,0,0,0-15.306-13.7l47.746,10.392a55.11,55.11,0,0,0-26.489-15.777,45.465,45.465,0,0,0-19.54-.721,293.683,293.683,0,0,1,40.163-19.975c-10.067-2.666-20.862-2.2-30.72,2.766a41.107,41.107,0,0,0-8.732,6.088,40.571,40.571,0,0,0-6.617,8.011,323.969,323.969,0,0,1,23.41-41.983,39.635,39.635,0,0,0-24.091,19.5,41.4,41.4,0,0,0-4.566,13.852,52.966,52.966,0,0,0-4.737-13.128,48.605,48.605,0,0,0-22.5-22.376,333.585,333.585,0,0,0,21.825,43.543,45.969,45.969,0,0,0-17.927-9.175,39.728,39.728,0,0,0-31.374,5.024l47.061,10.242a40.464,40.464,0,0,0-19.645,7.884,45.952,45.952,0,0,0-17.392,29.058,330.871,330.871,0,0,1,43.113-33.785,334.389,334.389,0,0,0-8.539,101.647l10.833-1.062A334.979,334.979,0,0,1,239.42,334.7a339.235,339.235,0,0,1,5.065-49.269,297.721,297.721,0,0,0,30.966,39.315A45.558,45.558,0,0,0,265.872,297.626Z" transform="translate(-186.416 -230.575)" fill="#638674"/>
              </g>
            </g>
            <g id="Group_59" data-name="Group 59" transform="translate(0 86.49)">
              <path id="Path_41" data-name="Path 41" d="M187.443,265.123h58.066a73.375,73.375,0,0,1,51.877,21.487L319.5,308.726a73.356,73.356,0,0,0,51.877,21.487h29.346A73.375,73.375,0,0,1,452.6,351.7l35.467,35.467a73.364,73.364,0,0,0,51.877,21.488h22.672a73.367,73.367,0,0,1,51.877,21.49h0a73.365,73.365,0,0,0,51.877,21.487h105.7a73.376,73.376,0,0,1,51.877,21.487l36.3,36.3V638.976H112.338V265.123Z" transform="translate(-112.338 -265.123)" fill="#dabe6b"/>
              <path id="Path_42" data-name="Path 42" d="M112.338,277.544h57.785a65.99,65.99,0,0,1,46.66,19.327h0a65.986,65.986,0,0,0,46.66,19.327h41.781A40.3,40.3,0,0,1,333.719,328h0a40.287,40.287,0,0,0,28.492,11.8H401.7a64.9,64.9,0,0,1,45.891,19.009L469.5,380.718a19.725,19.725,0,0,0,13.947,5.778h0a19.724,19.724,0,0,1,13.947,5.776l3.966,3.965a67.772,67.772,0,0,0,47.927,19.853h0a67.768,67.768,0,0,1,47.927,19.853l9.008,9.008a65.432,65.432,0,0,0,46.259,19.162h13.932A19.217,19.217,0,0,0,680,458.481l.373-.37a19.211,19.211,0,0,1,13.587-5.63h51.937a19.216,19.216,0,0,1,13.589,5.63h0a19.22,19.22,0,0,0,13.589,5.628h0A65.42,65.42,0,0,1,819.33,482.9l23.846,23.848V620.3H112.338Z" transform="translate(-112.338 -246.448)" fill="#b0b369"/>
              <g id="Group_58" data-name="Group 58" transform="translate(6.385 59.666)">
                <g id="Group_28" data-name="Group 28" transform="translate(247.011 146.038)">
                  <path id="Path_43" data-name="Path 43" d="M217.182,354.8h66.76c4.832,0,4.839-7.51,0-7.51h-66.76c-4.832,0-4.839,7.51,0,7.51Z" transform="translate(-213.555 -347.29)" fill="#dabe6b"/>
                </g>
                <g id="Group_29" data-name="Group 29" transform="translate(331.167 146.038)">
                  <path id="Path_44" data-name="Path 44" d="M250.926,354.8H257.6a3.755,3.755,0,0,0,0-7.51h-6.677a3.755,3.755,0,1,0,0,7.51Z" transform="translate(-247.171 -347.29)" fill="#dabe6b"/>
                </g>
                <g id="Group_30" data-name="Group 30" transform="translate(356.329 163.563)">
                  <path id="Path_45" data-name="Path 45" d="M260.85,361.8c4.832,0,4.839-7.51,0-7.51s-4.842,7.51,0,7.51Z" transform="translate(-257.222 -354.29)" fill="#dabe6b"/>
                </g>
                <g id="Group_31" data-name="Group 31" transform="translate(365.509 122.671)">
                  <path id="Path_46" data-name="Path 46" d="M264.517,345.466c4.832,0,4.839-7.51,0-7.51s-4.842,7.51,0,7.51Z" transform="translate(-260.889 -337.956)" fill="#dabe6b"/>
                </g>
                <g id="Group_32" data-name="Group 32" transform="translate(372.185 181.087)">
                  <path id="Path_47" data-name="Path 47" d="M267.182,368.8h59.25c4.832,0,4.839-7.51,0-7.51h-59.25c-4.832,0-4.839,7.51,0,7.51Z" transform="translate(-263.555 -361.29)" fill="#dabe6b"/>
                </g>
                <g id="Group_33" data-name="Group 33" transform="translate(455.634 180.251)">
                  <path id="Path_48" data-name="Path 48" d="M300.517,368.466H333.9c4.832,0,4.839-7.51,0-7.51H300.517c-4.834,0-4.842,7.51,0,7.51Z" transform="translate(-296.889 -360.956)" fill="#dabe6b"/>
                </g>
                <g id="Group_34" data-name="Group 34" transform="translate(508.081 179.835)">
                  <path id="Path_49" data-name="Path 49" d="M321.593,368.3h6.674a3.755,3.755,0,1,0,0-7.511h-6.674a3.755,3.755,0,0,0,0,7.511Z" transform="translate(-317.838 -360.79)" fill="#dabe6b"/>
                </g>
                <g id="Group_35" data-name="Group 35" transform="translate(466.066 201.531)">
                  <path id="Path_50" data-name="Path 50" d="M304.682,376.967c4.834,0,4.842-7.51,0-7.51s-4.839,7.51,0,7.51Z" transform="translate(-301.055 -369.456)" fill="#dabe6b"/>
                </g>
                <g id="Group_36" data-name="Group 36" transform="translate(423.506 162.311)">
                  <path id="Path_51" data-name="Path 51" d="M287.682,361.3c4.834,0,4.842-7.51,0-7.51s-4.839,7.51,0,7.51Z" transform="translate(-284.055 -353.79)" fill="#dabe6b"/>
                </g>
                <g id="Group_37" data-name="Group 37" transform="translate(410.571 138.943)">
                  <path id="Path_52" data-name="Path 52" d="M282.517,351.966c4.832,0,4.839-7.51,0-7.51s-4.842,7.51,0,7.51Z" transform="translate(-278.889 -344.456)" fill="#dabe6b"/>
                </g>
                <g id="Group_38" data-name="Group 38" transform="translate(81.781 67.594)">
                  <path id="Path_53" data-name="Path 53" d="M151.182,323.466c4.834,0,4.842-7.51,0-7.51s-4.839,7.51,0,7.51Z" transform="translate(-147.555 -315.956)" fill="#dabe6b"/>
                </g>
                <g id="Group_39" data-name="Group 39" transform="translate(89.291 82.615)">
                  <path id="Path_54" data-name="Path 54" d="M154.182,329.466c4.834,0,4.842-7.51,0-7.51s-4.839,7.51,0,7.51Z" transform="translate(-150.555 -321.956)" fill="#dabe6b"/>
                </g>
                <g id="Group_40" data-name="Group 40" transform="translate(104.312 54.243)">
                  <path id="Path_55" data-name="Path 55" d="M160.182,318.133c4.834,0,4.842-7.51,0-7.51s-4.839,7.51,0,7.51Z" transform="translate(-156.555 -310.623)" fill="#dabe6b"/>
                </g>
                <g id="Group_41" data-name="Group 41" transform="translate(111.82 100.803)">
                  <path id="Path_56" data-name="Path 56" d="M163.178,338.394l50.07-1.66c4.819-.16,4.842-7.671,0-7.51l-50.07,1.66c-4.822.16-4.842,7.671,0,7.51Z" transform="translate(-159.555 -329.221)" fill="#dabe6b"/>
                </g>
                <g id="Group_42" data-name="Group 42" transform="translate(117.664 89.71)">
                  <path id="Path_57" data-name="Path 57" d="M165.517,332.3h10.848c4.832,0,4.839-7.51,0-7.51H165.517c-4.834,0-4.842,7.51,0,7.51Z" transform="translate(-161.889 -324.79)" fill="#dabe6b"/>
                </g>
                <g id="Group_43" data-name="Group 43" transform="translate(139.778 55.077)">
                  <path id="Path_58" data-name="Path 58" d="M174.35,318.466c4.832,0,4.839-7.511,0-7.511s-4.842,7.511,0,7.511Z" transform="translate(-170.722 -310.956)" fill="#dabe6b"/>
                </g>
                <g id="Group_44" data-name="Group 44" transform="translate(142.699 88.248)">
                  <path id="Path_59" data-name="Path 59" d="M175.517,331.716H182.4c4.832,0,4.839-7.51,0-7.51h-6.885c-4.834,0-4.842,7.51,0,7.51Z" transform="translate(-171.889 -324.206)" fill="#dabe6b"/>
                </g>
                <g id="Group_45" data-name="Group 45" transform="translate(295.411 78.234)">
                  <path id="Path_60" data-name="Path 60" d="M236.517,327.716c4.832,0,4.839-7.51,0-7.51s-4.842,7.51,0,7.51Z" transform="translate(-232.889 -320.206)" fill="#dabe6b"/>
                </g>
                <g id="Group_46" data-name="Group 46" transform="translate(205.286 131.433)">
                  <path id="Path_61" data-name="Path 61" d="M200.517,348.967c4.832,0,4.839-7.51,0-7.51s-4.842,7.51,0,7.51Z" transform="translate(-196.889 -341.456)" fill="#dabe6b"/>
                </g>
                <g id="Group_47" data-name="Group 47" transform="translate(595.203 165.856)">
                  <path id="Path_62" data-name="Path 62" d="M356.267,362.716H390.69c4.832,0,4.839-7.51,0-7.51H356.267c-4.834,0-4.842,7.51,0,7.51Z" transform="translate(-352.639 -355.206)" fill="#dabe6b"/>
                </g>
                <g id="Group_48" data-name="Group 48" transform="translate(574.55 165.856)">
                  <path id="Path_63" data-name="Path 63" d="M356.153,355.206h-8.136c-4.834,0-4.842,7.51,0,7.51h8.136c4.832,0,4.839-7.51,0-7.51Z" transform="translate(-344.389 -355.206)" fill="#dabe6b"/>
                </g>
                <g id="Group_49" data-name="Group 49" transform="translate(598.959 178.999)">
                  <path id="Path_64" data-name="Path 64" d="M357.767,367.966c4.832,0,4.839-7.51,0-7.51s-4.842,7.51,0,7.51Z" transform="translate(-354.139 -360.456)" fill="#dabe6b"/>
                </g>
                <g id="Group_50" data-name="Group 50" transform="translate(633.382 175.87)">
                  <path id="Path_65" data-name="Path 65" d="M371.517,366.716c4.832,0,4.839-7.51,0-7.51s-4.842,7.51,0,7.51Z" transform="translate(-367.889 -359.206)" fill="#dabe6b"/>
                </g>
                <g id="Group_51" data-name="Group 51" transform="translate(642.144 165.856)">
                  <path id="Path_66" data-name="Path 66" d="M375.017,362.716c4.832,0,4.839-7.51,0-7.51s-4.842,7.51,0,7.51Z" transform="translate(-371.389 -355.206)" fill="#dabe6b"/>
                </g>
                <g id="Group_52" data-name="Group 52" transform="translate(464.396 148.957)">
                  <path id="Path_67" data-name="Path 67" d="M304.017,355.966c4.832,0,4.839-7.51,0-7.51s-4.842,7.51,0,7.51Z" transform="translate(-300.389 -348.456)" fill="#dabe6b"/>
                </g>
                <g id="Group_53" data-name="Group 53" transform="translate(52.573 17.524)">
                  <path id="Path_68" data-name="Path 68" d="M139.517,303.466c4.832,0,4.839-7.51,0-7.51s-4.842,7.51,0,7.51Z" transform="translate(-135.889 -295.956)" fill="#dabe6b"/>
                </g>
                <g id="Group_54" data-name="Group 54" transform="translate(0 83.867)">
                  <path id="Path_69" data-name="Path 69" d="M118.517,329.966H163.58c4.832,0,4.839-7.51,0-7.51H118.517c-4.834,0-4.842,7.51,0,7.51Z" transform="translate(-114.889 -322.456)" fill="#dabe6b"/>
                </g>
                <g id="Group_55" data-name="Group 55" transform="translate(8.762 70.098)">
                  <path id="Path_70" data-name="Path 70" d="M122.017,324.466H138.29c4.832,0,4.839-7.51,0-7.51H122.017c-4.834,0-4.842,7.51,0,7.51Z" transform="translate(-118.389 -316.956)" fill="#dabe6b"/>
                </g>
                <g id="Group_56" data-name="Group 56" transform="translate(80.112)">
                  <path id="Path_71" data-name="Path 71" d="M150.517,296.466c4.832,0,4.839-7.51,0-7.51s-4.842,7.51,0,7.51Z" transform="translate(-146.889 -288.956)" fill="#dabe6b"/>
                </g>
                <g id="Group_57" data-name="Group 57" transform="translate(321.698 77.608)">
                  <path id="Path_72" data-name="Path 72" d="M247.017,327.466c4.832,0,4.839-7.51,0-7.51s-4.842,7.51,0,7.51Z" transform="translate(-243.389 -319.956)" fill="#dabe6b"/>
                </g>
              </g>
            </g>
          </g>
          <path id="Path_73" data-name="Path 73" d="M112.338,329.612H175.7a56.556,56.556,0,0,1,39.991,16.566l16.328,16.328a56.551,56.551,0,0,0,39.991,16.565h27.2a56.554,56.554,0,0,1,39.991,16.563h0A56.551,56.551,0,0,0,379.184,412.2h58.547a56.553,56.553,0,0,1,39.988,16.563l58.361,58.361v54.894H112.338Z" transform="translate(-136.786 123.519)" fill="#638674"/>
          <path id="Path_74" data-name="Path 74" d="M112.338,343.206H169.76a23.042,23.042,0,0,1,16.293,6.749l10.6,10.6a23.039,23.039,0,0,0,16.293,6.747h0a23.042,23.042,0,0,1,16.293,6.749l21.708,21.708a23.043,23.043,0,0,0,16.3,6.749h18.305a23.043,23.043,0,0,1,16.293,6.749l23.821,23.818a23.042,23.042,0,0,0,16.293,6.749H442.014a23.042,23.042,0,0,1,16.293,6.749L487.43,475.7v45.884H112.338Z" transform="translate(-136.786 143.957)" fill="#454f6b"/>
          <g id="Group_91" data-name="Group 91" transform="translate(11.145 362.938)">
            <g id="Group_63" data-name="Group 63" transform="translate(468.441)">
              <path id="Path_75" data-name="Path 75" d="M313.671,475.26l36.986-36.989A51.1,51.1,0,0,1,386.793,423.3h50.913a51.1,51.1,0,0,0,36.133-14.968h0a51.1,51.1,0,0,1,36.135-14.966H694.186a72.565,72.565,0,0,0,51.309-21.252h0A72.561,72.561,0,0,1,796.8,350.864h29.241A36.278,36.278,0,0,0,851.7,340.239h0a36.282,36.282,0,0,1,25.656-10.627H891.14V542.018H313.671Z" transform="translate(-313.671 -239.419)" fill="#638674"/>
              <g id="Group_61" data-name="Group 61" transform="translate(146.078 21.608)">
                <path id="Path_76" data-name="Path 76" d="M445.1,359.205a36.078,36.078,0,0,0-16.743-7.5l41.928-6.995A35.527,35.527,0,0,0,443.3,339.18a39.782,39.782,0,0,0-15.622,6.789,370.542,370.542,0,0,0,21.347-35.882A41.654,41.654,0,0,0,428.059,327.9a45.2,45.2,0,0,0-6.206,17.647,378.8,378.8,0,0,0-2.216-43.335A44.876,44.876,0,0,0,412.28,328.6a43.383,43.383,0,0,0,2.246,12.167,35.889,35.889,0,0,0-8.9-7.678,37.924,37.924,0,0,0-26.537-4.531,335.912,335.912,0,0,1,34.1,20.263,39.458,39.458,0,0,0-17.479-.463,45.672,45.672,0,0,0-23.688,12.758l41.328-6.9a44.375,44.375,0,0,0-13.829,11.4,39.54,39.54,0,0,0-9.033,23.821,336.887,336.887,0,0,0,28.8-34.646,369.125,369.125,0,0,1,1.289,87.026l9.441.724a387.151,387.151,0,0,0-.458-44.059,386.512,386.512,0,0,0-5.605-43.556,366.074,366.074,0,0,1,35.4,29.451A39.837,39.837,0,0,0,445.1,359.205Z" transform="translate(-372.021 -302.216)" fill="#638674"/>
              </g>
              <g id="Group_62" data-name="Group 62" transform="translate(220.492)">
                <path id="Path_77" data-name="Path 77" d="M490.078,364.213a55.55,55.55,0,0,0-17.965-13.028l52.375,5.553a57.442,57.442,0,0,0-30.235-13.959,49.02,49.02,0,0,0-21.014,1.635,378.829,378.829,0,0,1,40.5-26.957,46.811,46.811,0,0,0-32.523,7.245,44.993,44.993,0,0,0-8.577,7.673,44.422,44.422,0,0,0-6.1,9.418,415.679,415.679,0,0,1,19.492-48.207,43.623,43.623,0,0,0-23.067,24.234,45.194,45.194,0,0,0-3.1,15.376,55.8,55.8,0,0,0-6.749-13.4,51.85,51.85,0,0,0-27.09-20.751,421.677,421.677,0,0,0,29.033,43.393,49.445,49.445,0,0,0-20.326-7.616,43.623,43.623,0,0,0-32.981,8.9l51.624,5.473a44.315,44.315,0,0,0-20.146,10.6,49.461,49.461,0,0,0-15.6,32.525,417.541,417.541,0,0,1,42.632-40.454,425.076,425.076,0,0,0,.06,109.873l11.586-1.85a416.382,416.382,0,0,1-6.121-106.378,381.968,381.968,0,0,0,37.395,39.26A49.112,49.112,0,0,0,490.078,364.213Z" transform="translate(-401.745 -293.585)" fill="#638674"/>
              </g>
            </g>
            <g id="Group_90" data-name="Group 90" transform="translate(0 106.075)">
              <g id="Group_64" data-name="Group 64" transform="translate(279.846 83.554)">
                <path id="Path_78" data-name="Path 78" d="M238.338,369.331" transform="translate(-238.338 -369.331)" fill="#454f6b"/>
              </g>
              <g id="Group_65" data-name="Group 65" transform="translate(291.663 91.134)">
                <path id="Path_79" data-name="Path 79" d="M250.566,378.949a7.058,7.058,0,0,0-7.508-6.574A7.056,7.056,0,0,0,250.566,378.949Z" transform="translate(-243.058 -372.359)" fill="#454f6b"/>
              </g>
              <g id="Group_66" data-name="Group 66" transform="translate(252.906 85.702)">
                <path id="Path_80" data-name="Path 80" d="M238.57,370.572a8.812,8.812,0,0,0-10.993,5.871,8.811,8.811,0,0,0,10.993-5.871Z" transform="translate(-227.577 -370.189)" fill="#454f6b"/>
              </g>
              <g id="Group_67" data-name="Group 67" transform="translate(216.658 83.198)">
                <path id="Path_81" data-name="Path 81" d="M220.023,377.313a7.537,7.537,0,0,0-6.9-8.124A7.535,7.535,0,0,0,220.023,377.313Z" transform="translate(-213.098 -369.189)" fill="#454f6b"/>
              </g>
              <g id="Group_68" data-name="Group 68" transform="translate(128.443 52.372)">
                <path id="Path_82" data-name="Path 82" d="M191.593,364.545a10.953,10.953,0,0,0-13.732-7.162h0A10.951,10.951,0,0,0,191.593,364.545Z" transform="translate(-177.861 -356.876)" fill="#454f6b"/>
              </g>
              <g id="Group_69" data-name="Group 69" transform="translate(153.383 50.992)">
                <path id="Path_83" data-name="Path 83" d="M199.106,356.621a9.261,9.261,0,0,0-11.283,6.647,9.259,9.259,0,0,0,11.283-6.647Z" transform="translate(-187.823 -356.325)" fill="#454f6b"/>
              </g>
              <g id="Group_70" data-name="Group 70" transform="translate(159.761 69.527)">
                <path id="Path_84" data-name="Path 84" d="M198.285,370.052a7.141,7.141,0,0,0-7.913-6.276A7.142,7.142,0,0,0,198.285,370.052Z" transform="translate(-190.371 -363.728)" fill="#454f6b"/>
              </g>
              <g id="Group_71" data-name="Group 71" transform="translate(34.527 1.97)">
                <path id="Path_85" data-name="Path 85" d="M151.215,345.147a9.677,9.677,0,0,0-10.868-8.319,9.679,9.679,0,0,0,10.868,8.322Z" transform="translate(-140.347 -336.743)" fill="#454f6b"/>
              </g>
              <g id="Group_72" data-name="Group 72" transform="translate(624.934 92.899)">
                <path id="Path_86" data-name="Path 86" d="M389.54,373.26a11.454,11.454,0,0,0-13.359,9.168h0A11.459,11.459,0,0,0,389.54,373.26Z" transform="translate(-376.181 -373.064)" fill="#454f6b"/>
              </g>
              <g id="Group_73" data-name="Group 73" transform="translate(648.254 75.934)">
                <path id="Path_87" data-name="Path 87" d="M393.006,372.575a6.914,6.914,0,0,0-7.51-6.259h0A6.912,6.912,0,0,0,393.006,372.575Z" transform="translate(-385.496 -366.288)" fill="#454f6b"/>
              </g>
              <g id="Group_74" data-name="Group 74" transform="translate(702.501 69.221)">
                <path id="Path_88" data-name="Path 88" d="M414.318,372.794a8.2,8.2,0,0,0-7.085-9.188,8.207,8.207,0,0,0,7.085,9.188Z" transform="translate(-407.165 -363.606)" fill="#454f6b"/>
              </g>
              <g id="Group_75" data-name="Group 75" transform="translate(707.561 83.242)">
                <path id="Path_89" data-name="Path 89" d="M421.7,370.868a8.973,8.973,0,0,0-12.512,2.111h0A8.971,8.971,0,0,0,421.7,370.868Z" transform="translate(-409.186 -369.206)" fill="#454f6b"/>
              </g>
              <g id="Group_76" data-name="Group 76" transform="translate(794.647 65.927)">
                <path id="Path_90" data-name="Path 90" d="M449.9,373.556a8.842,8.842,0,0,0-5.425-11.266,8.843,8.843,0,0,0,5.425,11.266Z" transform="translate(-443.972 -362.29)" fill="#454f6b"/>
              </g>
              <g id="Group_77" data-name="Group 77" transform="translate(785.107 83.025)">
                <path id="Path_91" data-name="Path 91" d="M450.187,372.923a7.377,7.377,0,0,0-10.026-2.879A7.377,7.377,0,0,0,450.187,372.923Z" transform="translate(-440.161 -369.12)" fill="#454f6b"/>
              </g>
              <g id="Group_78" data-name="Group 78" transform="translate(817.161 63.345)">
                <path id="Path_92" data-name="Path 92" d="M452.965,370.412a9.391,9.391,0,0,0,9.626-9.15A9.4,9.4,0,0,0,452.965,370.412Z" transform="translate(-452.965 -361.259)" fill="#454f6b"/>
              </g>
              <g id="Group_79" data-name="Group 79" transform="translate(903.146 38.418)">
                <path id="Path_93" data-name="Path 93" d="M487.311,362.851a7.39,7.39,0,0,0,7.047-11.549h0c-4.281,3.5-5.891,6.141-7.047,11.549Z" transform="translate(-487.311 -351.302)" fill="#454f6b"/>
              </g>
              <g id="Group_80" data-name="Group 80" transform="translate(168.568 90.125)">
                <path id="Path_94" data-name="Path 94" d="M197.517,379.466c4.832,0,4.839-7.51,0-7.51s-4.842,7.51,0,7.51Z" transform="translate(-193.889 -371.956)" fill="#454f6b"/>
              </g>
              <g id="Group_81" data-name="Group 81" transform="translate(273.714 79.278)">
                <path id="Path_95" data-name="Path 95" d="M239.517,375.133c4.832,0,4.839-7.51,0-7.51s-4.842,7.51,0,7.51Z" transform="translate(-235.889 -367.623)" fill="#454f6b"/>
              </g>
              <g id="Group_82" data-name="Group 82" transform="translate(316.273 90.125)">
                <path id="Path_96" data-name="Path 96" d="M256.517,379.466c4.832,0,4.839-7.51,0-7.51s-4.842,7.51,0,7.51Z" transform="translate(-252.889 -371.956)" fill="#454f6b"/>
              </g>
              <g id="Group_83" data-name="Group 83">
                <path id="Path_97" data-name="Path 97" d="M130.182,343.466c4.834,0,4.842-7.51,0-7.51s-4.839,7.51,0,7.51Z" transform="translate(-126.555 -335.956)" fill="#454f6b"/>
              </g>
              <g id="Group_84" data-name="Group 84" transform="translate(651.74 98.472)">
                <path id="Path_98" data-name="Path 98" d="M390.517,382.8c4.832,0,4.839-7.51,0-7.51s-4.842,7.51,0,7.51Z" transform="translate(-386.889 -375.29)" fill="#454f6b"/>
              </g>
              <g id="Group_85" data-name="Group 85" transform="translate(579.139 85.118)">
                <path id="Path_99" data-name="Path 99" d="M361.517,377.466c4.832,0,4.839-7.51,0-7.51s-4.842,7.51,0,7.51Z" transform="translate(-357.889 -369.956)" fill="#454f6b"/>
              </g>
              <g id="Group_86" data-name="Group 86" transform="translate(760.225 65.927)">
                <path id="Path_100" data-name="Path 100" d="M433.85,369.8c4.832,0,4.839-7.51,0-7.51s-4.842,7.51,0,7.51Z" transform="translate(-430.222 -362.29)" fill="#454f6b"/>
              </g>
              <g id="Group_87" data-name="Group 87" transform="translate(747.707 88.458)">
                <path id="Path_101" data-name="Path 101" d="M428.85,378.8c4.832,0,4.839-7.51,0-7.51s-4.842,7.51,0,7.51Z" transform="translate(-425.222 -371.29)" fill="#454f6b"/>
              </g>
              <g id="Group_88" data-name="Group 88" transform="translate(926.289 15.021)">
                <path id="Path_102" data-name="Path 102" d="M500.182,349.467c4.834,0,4.842-7.51,0-7.51s-4.839,7.51,0,7.51Z" transform="translate(-496.555 -341.956)" fill="#454f6b"/>
              </g>
              <g id="Group_89" data-name="Group 89" transform="translate(993.049 10.85)">
                <path id="Path_103" data-name="Path 103" d="M526.85,347.8c4.832,0,4.839-7.51,0-7.51s-4.842,7.51,0,7.51Z" transform="translate(-523.222 -340.29)" fill="#454f6b"/>
              </g>
            </g>
          </g>
          <path id="Path_104" data-name="Path 104" d="M815.823,349.5H781.245A53.515,53.515,0,0,0,743.4,365.172h0a53.514,53.514,0,0,1-37.84,15.674h-40.1a53.514,53.514,0,0,0-37.84,15.674l-9.828,9.829a53.525,53.525,0,0,1-37.84,15.674H486.1a29.975,29.975,0,0,0-21.2,8.78h0a29.983,29.983,0,0,1-21.2,8.782H347.671v72.533H815.823Z" transform="translate(217.034 153.417)" fill="#454f6b"/>
        </g>
      </g>
      <g id="Group_94" data-name="Group 94" transform="translate(115.475 358.737)">
        <path id="Path_106" data-name="Path 106" d="M311.649,409.27a92.118,92.118,0,0,0-28.009-23.9l85.9,16.017a95.269,95.269,0,0,0-48.189-27.038,81.294,81.294,0,0,0-34.966-.035,631.862,631.862,0,0,1,70.488-39.33,83.126,83.126,0,0,0-27.744-1.207,72.235,72.235,0,0,0-42.171,20.546,73.6,73.6,0,0,0-11.316,14.781,691.77,691.77,0,0,1,38.509-77.2,72.422,72.422,0,0,0-41.3,37.087,67.683,67.683,0,0,0-4.689,12.367,72.91,72.91,0,0,0-2.446,12.66,92.518,92.518,0,0,0-9.416-23.039,89.542,89.542,0,0,0-18.368-22.93,81.059,81.059,0,0,0-23.746-14.906,702.839,702.839,0,0,0,42.374,75.533,82.011,82.011,0,0,0-32.623-15.244,72.406,72.406,0,0,0-55.708,10.422l84.67,15.787a73.547,73.547,0,0,0-34.7,14.891c-16.313,12.7-26.822,31.544-30.067,51.734a695.393,695.393,0,0,1,75.8-61.313A708.287,708.287,0,0,0,249.6,566.674L269,565.15A693.484,693.484,0,0,1,272.855,388.4a636.446,636.446,0,0,0,56.706,69.837C329.241,441.523,323.593,424.552,311.649,409.27Z" transform="translate(-168.229 -291.907)" fill="#454f6b"/>
      </g>
      <g id="Group_95" data-name="Group 95" transform="translate(12.864 244.02)">
        <path id="Path_107" data-name="Path 107" d="M282.355,400.9a112.515,112.515,0,0,0-12.532-17.224,117.11,117.11,0,0,0-15.244-14.57l94.777,35.126a131.857,131.857,0,0,0-21.435-21.941,119.344,119.344,0,0,0-28.412-17.227,93.9,93.9,0,0,0-39.67-7.811,403.523,403.523,0,0,1,87.792-24.349,97.318,97.318,0,0,0-30.59-9.468A76.514,76.514,0,0,0,264.8,335a79.515,79.515,0,0,0-16.07,14.1,453.461,453.461,0,0,1,62.983-75.535,80.047,80.047,0,0,0-15.534,2.443,70.62,70.62,0,0,0-15.089,5.66,87.951,87.951,0,0,0-13.922,9,83.1,83.1,0,0,0-12.094,12.28,70.709,70.709,0,0,0-4.626,6.269q-2.05,3.263-3.82,6.647a78.646,78.646,0,0,0-5.831,13.879,117.956,117.956,0,0,0-4.987-28.677,111.324,111.324,0,0,0-14.368-31.253,93.255,93.255,0,0,0-22.294-23.731,485.876,485.876,0,0,0,27.946,98.51,95.359,95.359,0,0,0-33.674-24.572,79.042,79.042,0,0,0-33.048-6.421,80.161,80.161,0,0,0-33.131,8.317l93.42,34.621a79.768,79.768,0,0,0-21.5,2.473,84.386,84.386,0,0,0-21.119,8.8,79.6,79.6,0,0,0-14.683,10.94A93.979,93.979,0,0,0,151.068,392.5a114.485,114.485,0,0,0-9.438,16.04,100.65,100.65,0,0,0-6.384,17.67,486.516,486.516,0,0,1,96.932-61.438,480.073,480.073,0,0,0-32.4,208.708l22.406-2.2a471.19,471.19,0,0,1-1.359-101.161A485.38,485.38,0,0,1,241.684,370.4a418.31,418.31,0,0,0,54.961,85.922,86.477,86.477,0,0,0-.12-13.514A73.738,73.738,0,0,0,294.154,429a97.056,97.056,0,0,0-4.629-13.994A130.592,130.592,0,0,0,282.355,400.9Z" transform="translate(-127.242 -246.084)" fill="#454f6b"/>
      </g>
      <g id="Group_96" data-name="Group 96" transform="translate(757.583 52.456)">
        <path id="Path_108" data-name="Path 108" d="M675.071,353.233a123.06,123.06,0,0,0-31.857-12.264,115.456,115.456,0,0,0-32.082-2.544l138.53-57.655a126.956,126.956,0,0,0-24.887-8.434,107.138,107.138,0,0,0-25.137-2.676,114.042,114.042,0,0,0-48.685,11.6c-18.876,9.118-34.478,22.419-47.01,37.557a619.039,619.039,0,0,0,31.436-149.248c-12.174,10.42-22.128,23.157-30.335,37.75a170.773,170.773,0,0,0-18.035,48.094,171.715,171.715,0,0,0-4.661,34.14,177.2,177.2,0,0,0,1.212,32.871,606.116,606.116,0,0,0-57.372-144.909A178.859,178.859,0,0,0,523.473,202q-.248,6.114-.053,12.18.15,3.019.3,6.056.105,3.094.323,6.171a151.9,151.9,0,0,0,3.663,24.229,171.979,171.979,0,0,0,6.834,23.928c1.274,3.5,2.821,6.8,4.218,10.182s2.894,6.672,4.521,9.869,3.37,6.306,5.23,9.328,3.878,5.933,5.733,8.91a69.968,69.968,0,0,0-8.624-5.337q-4.51-2.433-9.213-4.486a115.341,115.341,0,0,0-19.507-6.512,117.728,117.728,0,0,0-48.037-.135c-15.449,3.139-30.477,9.438-44.144,17.479,42.93,2.641,87.507,11.694,132.061,27.205-20.2.033-40.537,5.127-59.939,14.5a186.149,186.149,0,0,0-41.032,27.283A229.886,229.886,0,0,0,439.107,399a199.653,199.653,0,0,0-14.1,16.889l136.545-56.829a182.074,182.074,0,0,0-21.848,22.291,173.658,173.658,0,0,0-17.888,25.8,209.476,209.476,0,0,0-10.2,20.776,144.654,144.654,0,0,0-6.537,20.343,103.078,103.078,0,0,0-3.322,19.875c-.135,3.232-.368,6.491-.448,9.723a88.212,88.212,0,0,0,.346,9.583c31.834-37.437,59.368-81.6,80.77-131.233l1.752,4.459,1.525,4.546,3.044,9.09c1.958,6.081,4.223,12.052,5.928,18.205l5.155,18.433c.816,3.079,1.812,6.109,2.483,9.228l2.105,9.328,4.186,18.631,3.254,18.809,1.63,9.391c.481,3.139.789,6.309,1.192,9.458l2.293,18.906a583.694,583.694,0,0,1-4.989,151.078l33.093,4.687A616.118,616.118,0,0,0,641.8,503.109,633.461,633.461,0,0,0,598.632,353.03c48.75,21.387,96.822,50.54,142.18,87.387q-1.93-6.9-4.356-13.619a102.874,102.874,0,0,0-5.57-13.1,173.712,173.712,0,0,0-14.575-24.094,138.651,138.651,0,0,0-18.879-20.421A115.057,115.057,0,0,0,675.071,353.233Z" transform="translate(-424.715 -169.565)" fill="#454f6b"/>
      </g>
      <g id="Group_97" data-name="Group 97" transform="translate(732.844 299.422)">
        <path id="Path_109" data-name="Path 109" d="M556.508,366.238a69.487,69.487,0,0,0-35.9-6.512l77.012-34.1a68.2,68.2,0,0,0-54.746,2.361,78.9,78.9,0,0,0-26.432,20.994,558.555,558.555,0,0,0,21.267-80.762c-14.28,10.68-24.97,26.84-30.032,45.756a88.657,88.657,0,0,0-3.177,18.821,89.871,89.871,0,0,0,.551,18.318,564.606,564.606,0,0,0-27.929-81.764,93.05,93.05,0,0,0,.8,54.373,109.746,109.746,0,0,0,4.624,11.514,92.431,92.431,0,0,0,6.033,10.46,68.689,68.689,0,0,0-20.962-9.891c-18.383-4.909-36.751-1.865-52.788,6.2A489.263,489.263,0,0,1,490.1,361.722a78.11,78.11,0,0,0-33.689,8.054,95.667,95.667,0,0,0-39.265,35.775l75.908-33.617a91.639,91.639,0,0,0-21.137,28.357c-8.006,16.726-9.884,33.452-6.97,48.853a495.441,495.441,0,0,0,39.781-79.053,558.076,558.076,0,0,1,25.891,82.3,555.981,555.981,0,0,1,12.545,84.951l18.676-1.77a575.32,575.32,0,0,0-17.519-85.829,578.248,578.248,0,0,0-30.56-81.679,553.309,553.309,0,0,1,82.1,41.353C588.655,390.672,574.638,374.8,556.508,366.238Z" transform="translate(-414.833 -268.214)" fill="#454f6b"/>
      </g>
    </g>
    <g id="Group_109" data-name="Group 109" transform="translate(104.74 128.956)">
      <g id="Group_99" data-name="Group 99" transform="translate(0 572.176)">
        <path id="Path_110" data-name="Path 110" d="M105.489,380.773a193.94,193.94,0,0,0,45.786,81.771c16.523,17.707,43.035-8.89,26.552-26.552a153.724,153.724,0,0,1-36.128-65.2c-6.346-23.287-42.584-13.4-36.21,9.984Z" transform="translate(-104.74 -357.508)" fill="#454f6b"/>
      </g>
      <g id="Group_100" data-name="Group 100" transform="translate(78.673 680.103)">
        <path id="Path_111" data-name="Path 111" d="M141.68,432.682l8.344,6.677a14.091,14.091,0,0,0,6.043,3.883,14.147,14.147,0,0,0,7.233,1.617c4.606,0,10.107-2.045,13.278-5.5,3.285-3.578,5.723-8.277,5.5-13.276-.208-4.654-1.692-10.234-5.5-13.279q-4.176-3.335-8.347-6.674a14.045,14.045,0,0,0-6.043-3.883,14.122,14.122,0,0,0-7.233-1.617c-4.606,0-10.107,2.045-13.276,5.5-3.285,3.577-5.725,8.277-5.5,13.276.208,4.651,1.692,10.232,5.5,13.276Z" transform="translate(-136.165 -400.618)" fill="#454f6b"/>
      </g>
      <g id="Group_101" data-name="Group 101" transform="translate(425.289 633.315)">
        <path id="Path_112" data-name="Path 112" d="M287.841,418.96a171.993,171.993,0,0,0,62.822,6.194c10.1-.9,18.776-7.984,18.776-18.776,0-9.458-8.617-19.68-18.776-18.776a142.042,142.042,0,0,1-52.841-4.854c-23.27-6.677-33.206,29.549-9.981,36.213Z" transform="translate(-274.619 -381.93)" fill="#454f6b"/>
      </g>
      <g id="Group_102" data-name="Group 102" transform="translate(968.176 648.475)">
        <path id="Path_113" data-name="Path 113" d="M519.685,459.4a234.884,234.884,0,0,0,52.4-39.352c17.149-17.074-9.4-43.631-26.555-26.554a198.342,198.342,0,0,1-44.8,33.482c-21.179,11.651-2.256,44.091,18.951,32.425Z" transform="translate(-491.471 -387.985)" fill="#454f6b"/>
      </g>
      <g id="Group_103" data-name="Group 103" transform="translate(1047.416 585.919)">
        <path id="Path_114" data-name="Path 114" d="M558.144,413.622q7.522-11.262,15.039-22.521c5.467-8.186,1.865-21.144-6.734-25.688-9.451-4.992-19.855-2-25.691,6.737l-15.038,22.519c-5.467,8.186-1.862,21.147,6.737,25.688,9.448,4.994,19.855,2,25.688-6.734Z" transform="translate(-523.123 -362.997)" fill="#454f6b"/>
      </g>
      <g id="Group_104" data-name="Group 104" transform="translate(252.634 22.239)">
        <path id="Path_115" data-name="Path 115" d="M238.011,211.331A215.141,215.141,0,0,1,296.335,172.5c9.29-4.256,11.391-17.507,6.734-25.688-5.423-9.528-16.523-10.935-25.688-6.737a245.756,245.756,0,0,0-65.922,44.7c-17.652,16.581,8.94,43.1,26.552,26.554Z" transform="translate(-205.653 -137.839)" fill="#d1f4f5"/>
      </g>
      <g id="Group_105" data-name="Group 105" transform="translate(385.169 0.626)">
        <path id="Path_116" data-name="Path 116" d="M276.731,166.758c24.161,0,24.2-37.552,0-37.552-24.164,0-24.2,37.552,0,37.552Z" transform="translate(-258.593 -129.206)" fill="#d1f4f5"/>
      </g>
      <g id="Group_106" data-name="Group 106" transform="translate(674.625 41.57)">
        <path id="Path_117" data-name="Path 117" d="M379.749,177.629a108.134,108.134,0,0,0,54.764,29.759c9.929,2.013,20.281-2.864,23.1-13.113,2.549-9.27-3.127-21.072-13.113-23.1-14.828-3.009-27.453-9.381-38.193-20.1-17.124-17.094-43.688,9.451-26.555,26.552Z" transform="translate(-374.214 -145.561)" fill="#d1f4f5"/>
      </g>
      <g id="Group_107" data-name="Group 107" transform="translate(787.157 71.767)">
        <path id="Path_118" data-name="Path 118" d="M437.957,195.175h20.028c9.821,0,19.229-8.637,18.776-18.776-.456-10.172-8.249-18.776-18.776-18.776H437.957c-9.821,0-19.232,8.637-18.776,18.776.456,10.174,8.249,18.776,18.776,18.776Z" transform="translate(-419.165 -157.623)" fill="#d1f4f5"/>
      </g>
      <g id="Group_108" data-name="Group 108" transform="translate(755.266)">
        <path id="Path_119" data-name="Path 119" d="M424.564,166.508c24.164,0,24.2-37.552,0-37.552-24.164,0-24.2,37.552,0,37.552Z" transform="translate(-406.426 -128.956)" fill="#d1f4f5"/>
      </g>
    </g>
  </g>
</svg>
